<?xml version="1.0" standalone="no"?>
<!DOCTYPE svg PUBLIC "-//W3C//DTD SVG 1.1//EN" "http://www.w3.org/Graphics/SVG/1.1/DTD/svg11.dtd" >
<svg xmlns="http://www.w3.org/2000/svg" xmlns:xlink="http://www.w3.org/1999/xlink" version="1.1">
<metadata>
Created by FontForge 20161003 at Wed Jan 31 10:48:30 2018
 By www-data
</metadata>
<defs>
<font id="RaineHorneLight" horiz-adv-x="535" >
  <font-face 
    font-family="RaineHorneLight"
    font-weight="300"
    font-stretch="normal"
    units-per-em="1000"
    panose-1="2 0 5 3 0 0 0 2 0 4"
    ascent="720"
    descent="-280"
    x-height="497"
    cap-height="665"
    bbox="-122 -275 1000 902"
    underline-thickness="50"
    underline-position="-150"
    unicode-range="U+000D-FB04"
  />
<missing-glyph horiz-adv-x="500" 
 />
    <glyph glyph-name="fi" unicode="fi" horiz-adv-x="510" 
d="M152 435v-435h-78v544q0 35 6.5 61.5t24 52.5t54.5 40t91 14q83 0 170 -40l-22 -56q-82 35 -144 35q-55 0 -78.5 -25.5t-23.5 -79.5v-49h286v-497h-78v435h-208z" />
    <glyph glyph-name="fl" unicode="fl" horiz-adv-x="588" 
d="M484 -14q-34 0 -58 9t-36 21.5t-19 34t-8.5 38t-1.5 40.5v306h-209v-435h-78v544q0 35 6.5 61.5t23.5 52.5t54 40t91 14q85 0 189 -38v-534q0 -51 13 -71.5t50 -20.5q33 0 67 17l18 -54q-38 -25 -102 -25zM152 546v-49h209v131q-64 23 -109 23q-55 0 -77.5 -25t-22.5 -80
z" />
    <glyph glyph-name="ffi" unicode="ffi" horiz-adv-x="797" 
d="M439 435v-435h-78v435h-209v-435h-78v544q0 35 6.5 61.5t23.5 52.5t54 40t91 14q77 0 158 -37q45 37 130 37q83 0 170 -40l-22 -56q-82 35 -144 35q-55 0 -78.5 -25.5t-23.5 -79.5v-49h286v-497h-78v435h-208zM152 546v-49h209v43q0 53 12 81q-72 30 -124 30
q-53 0 -75 -25t-22 -80z" />
    <glyph glyph-name="ffl" unicode="ffl" horiz-adv-x="875" 
d="M772 -14q-34 0 -58 9t-36 21.5t-19 34t-8.5 38t-1.5 40.5v306h-210v-435h-77v435h-210v-435h-78v544q0 35 6.5 61.5t23.5 52.5t54 40t91 14q86 0 158 -37q44 37 130 37q85 0 189 -38v-534q0 -51 13 -71.5t50 -20.5q33 0 67 17l18 -54q-38 -25 -102 -25zM362 497v47
q0 48 12 76q-67 31 -122 31q-56 0 -78 -26t-22 -83v-45h210zM439 546v-49h209v130q-66 24 -109 24q-55 0 -77.5 -25t-22.5 -80z" />
    <glyph glyph-name="ff" unicode="ff" horiz-adv-x="600" 
d="M152 435v-435h-78v544q0 35 6.5 61.5t23.5 52.5t54 40t91 14q79 0 157 -36q41 36 116 36q30 0 66 -9t56 -20l-21 -56q-50 24 -98 24q-47 0 -66.5 -26.5t-19.5 -78.5v-49h157v-62h-157v-435h-77v435h-210zM152 546v-49h210v47q0 45 12 76q-64 31 -122 31q-55 0 -77.5 -25
t-22.5 -80z" />
    <glyph glyph-name="tt" unicode="tt" horiz-adv-x="635" 
d="M376 695h78v-198h142v-67h-142v-296q0 -48 18 -67.5t55 -19.5q35 0 76 24l23 -52q-48 -33 -113 -33q-38 0 -65 9.5t-41 22t-21 35t-8.5 39t-1.5 44.5v294h-224v-296q0 -48 18 -67.5t55 -19.5q35 0 76 24l23 -52q-48 -33 -113 -33q-38 0 -65 9.5t-41 22t-21 35t-8.5 39
t-1.5 44.5v559h78v-198h224v198z" />
    <glyph glyph-name=".notdef" horiz-adv-x="500" 
 />
    <glyph glyph-name=".null" horiz-adv-x="0" 
 />
    <glyph glyph-name=".null" horiz-adv-x="0" 
 />
    <glyph glyph-name="nonmarkingreturn" horiz-adv-x="333" 
 />
    <glyph glyph-name="CR" unicode="&#xd;" horiz-adv-x="220" 
 />
    <glyph glyph-name="space" unicode=" " horiz-adv-x="220" 
 />
    <glyph glyph-name="exclam" unicode="!" horiz-adv-x="261" 
d="M93 530v129q0 36 40 36q24 0 33 -9.5t9 -27.5v-128l-17 -365h-49zM77 40q0 23 16 39t38 16q26 0 42 -15t16 -39t-15.5 -40.5t-39.5 -16.5q-26 0 -41.5 16t-15.5 40z" />
    <glyph glyph-name="quotedbl" unicode="&#x22;" horiz-adv-x="350" 
d="M66 665h76l-8 -224h-58zM207 665h77l-9 -224h-58z" />
    <glyph glyph-name="numbersign" unicode="#" horiz-adv-x="539" 
d="M296 0l14 161h-123l-14 -161h-62l14 161h-112v56h117l15 169h-113v54h118l14 165h62l-15 -165h123l15 165h62l-15 -165h109v-54h-114l-15 -169h110v-56h-114l-14 -161h-62zM207 386l-16 -169h124l15 169h-123z" />
    <glyph glyph-name="dollar" unicode="$" 
d="M44 69l33 65q74 -50 160 -56v232q-33 10 -53 17t-47 21.5t-42 31t-26 43t-11 60.5q0 74 48 119t131 53v92h61v-92q111 -11 187 -87l-44 -53q-70 61 -143 72v-217q42 -13 67.5 -23.5t55.5 -30.5t44.5 -50.5t14.5 -72.5q0 -83 -47 -129t-135 -54v-118h-61v116
q-61 3 -116 22.5t-77 38.5zM400 183q0 43 -26.5 67.5t-75.5 41.5v-213q102 15 102 104zM140 491q0 -40 25 -63t72 -39v198q-97 -10 -97 -96z" />
    <glyph glyph-name="percent" unicode="%" horiz-adv-x="786" 
d="M606 353q70 0 109.5 -44.5t39.5 -132.5q0 -89 -40 -138t-115 -49q-73 0 -112 46.5t-39 134.5q0 85 42.5 134t114.5 49zM602 40q39 0 63.5 32t24.5 100q0 66 -23.5 98.5t-62.5 32.5q-42 0 -66 -34.5t-24 -100.5q0 -64 24.5 -96t63.5 -32zM190 657q70 0 109.5 -45
t39.5 -133t-40 -137.5t-115 -49.5q-73 0 -112 46.5t-39 134.5q0 86 42.5 135t114.5 49zM186 343q38 0 63 32.5t25 100.5q0 66 -24 98t-62 32q-42 0 -66 -34t-24 -100q0 -65 24.5 -97t63.5 -32zM275 -3l-58 27l292 627l60 -26z" />
    <glyph glyph-name="ampersand" unicode="&#x26;" horiz-adv-x="793" 
d="M614 167q36 -75 36 -167h-72q0 56 -12 99q-49 -53 -117 -83t-145 -30q-94 0 -169 54.5t-75 142.5q0 80 48.5 128.5t118.5 72.5q-74 56 -74 128q0 23 8.5 48t28.5 53t62.5 46t100.5 18q60 0 117 -32.5t93 -80.5l-46 -37q-73 89 -168 89q-32 0 -56 -9.5t-36.5 -22t-20 -29
t-9.5 -27.5t-2 -19q0 -23 19.5 -50t55.5 -47l66 -34q67 -34 116.5 -67.5t85.5 -72.5q18 63 3 148h72q23 -119 -29 -219zM304 47q64 0 129 31.5t104 90.5q-71 98 -235 172q-23 -4 -47 -12t-54.5 -24.5t-49.5 -48t-19 -72.5q0 -49 31.5 -82t68 -44t72.5 -11z" />
    <glyph glyph-name="quotesingle" unicode="'" horiz-adv-x="209" 
d="M66 665h76l-8 -224h-58z" />
    <glyph glyph-name="parenleft" unicode="(" horiz-adv-x="308" 
d="M86 276q0 212 124 438l64 -32q-110 -217 -110 -406q0 -184 108 -406l-64 -29q-122 225 -122 435z" />
    <glyph glyph-name="parenright" unicode=")" horiz-adv-x="308" 
d="M217 279q0 -212 -124 -438l-64 32q110 217 110 406q0 184 -108 406l64 29q122 -225 122 -435z" />
    <glyph glyph-name="asterisk" unicode="*" horiz-adv-x="401" 
d="M219 556q51 -9 79 -41q36 -44 11 -67q-27 -23 -64 22q-27 35 -26 86zM233 592q26 45 66 60q54 19 66 -12q12 -34 -42 -53q-42 -15 -90 5zM183 556q1 -51 -26 -86q-37 -45 -64 -22q-25 23 11 67q28 32 79 41zM169 592q-48 -20 -90 -5q-54 19 -42 53q12 31 66 12
q40 -15 66 -60zM201 616q-35 39 -35 83q0 57 35 57q34 0 34 -57q0 -43 -34 -83z" />
    <glyph glyph-name="plus" unicode="+" 
d="M232 353v173h70v-173h171v-67h-171v-173h-70v173h-171v67h171z" />
    <glyph glyph-name="comma" unicode="," horiz-adv-x="217" 
d="M171 73l-93 -208l-42 13q15 122 27 175q6 28 15 40t26 12q35 0 67 -32z" />
    <glyph glyph-name="hyphen" unicode="-" horiz-adv-x="322" 
d="M30 259v66h262v-66h-262z" />
    <glyph glyph-name="period" unicode="." horiz-adv-x="208" 
d="M46 45q0 25 16 41.5t41 16.5q27 0 43 -15.5t16 -41.5t-15.5 -42.5t-40.5 -16.5q-28 0 -44 15.5t-16 42.5z" />
    <glyph glyph-name="slash" unicode="/" horiz-adv-x="400" 
d="M76 -101l-68 26l318 819l70 -25z" />
    <glyph glyph-name="zero" unicode="0" 
d="M273 657q217 0 217 -329q0 -174 -56 -256t-169 -82q-111 0 -165.5 80t-54.5 253q0 167 60 250.5t168 83.5zM268 54q33 0 57.5 12.5t44.5 42.5t30.5 84.5t10.5 132.5q0 148 -36.5 207t-105.5 59q-71 0 -107.5 -63.5t-36.5 -215.5q0 -142 36.5 -200.5t106.5 -58.5z" />
    <glyph glyph-name="one" unicode="1" horiz-adv-x="422" 
d="M85 63h126v497l-155 -82l-29 50l189 116h77l-5 -70v-511h121v-63h-324v63z" />
    <glyph glyph-name="two" unicode="2" horiz-adv-x="506" 
d="M94 516l-45 50q41 41 95.5 66t112.5 25q83 0 128.5 -45.5t45.5 -121.5q0 -89 -84 -188l-205 -237h326v-65h-424v57l226 266q47 56 63.5 86.5t16.5 74.5q0 50 -29.5 77.5t-76.5 27.5q-71 0 -150 -73z" />
    <glyph glyph-name="three" unicode="3" horiz-adv-x="514" 
d="M81 512l-43 48q41 42 100.5 69.5t123.5 27.5q85 0 127 -42.5t42 -107.5q0 -94 -80 -151q91 -78 91 -176q0 -80 -54.5 -135.5t-159.5 -55.5q-53 0 -107 14.5t-78 32.5l26 63q77 -44 160 -44q61 0 97 33t36 84q0 80 -73 143q-33 -16 -113 -37l-21 60q104 26 150 59.5
t46 97.5q0 46 -25.5 70.5t-75.5 24.5q-81 0 -169 -78z" />
    <glyph glyph-name="four" unicode="4" horiz-adv-x="519" 
d="M358 442h47v-212h96v-63h-96v-167h-79v167h-284v62l203 427l63 -32l-188 -394h209v71z" />
    <glyph glyph-name="five" unicode="5" horiz-adv-x="494" 
d="M76 323l41 321h313v-65h-249l-27 -196q55 -2 102 -13.5t88.5 -33.5t65.5 -62t24 -93q0 -78 -52.5 -135t-163.5 -57q-56 0 -112.5 17t-79.5 35l27 61q84 -48 164 -48q71 0 104.5 35t33.5 89q0 145 -279 145z" />
    <glyph glyph-name="six" unicode="6" 
d="M371 668l15 -61q-108 -17 -170 -86.5t-70 -166.5q76 51 159 51q82 0 128.5 -52.5t46.5 -140.5q0 -95 -55 -159.5t-155 -64.5q-108 0 -157.5 79t-49.5 207q0 338 308 394zM402 210q0 61 -30.5 98.5t-85.5 37.5q-36 0 -79.5 -17t-65.5 -38q-3 -66 8 -118t42.5 -87t80.5 -35
q59 0 94.5 43t35.5 116z" />
    <glyph glyph-name="seven" unicode="7" horiz-adv-x="447" 
d="M32 579v65h407v-60q-70 -61 -118 -132t-71 -145t-32 -137t-9 -135v-35h-81v43q0 321 213 536h-309z" />
    <glyph glyph-name="eight" unicode="8" horiz-adv-x="532" 
d="M64 154q0 68 40.5 115t92.5 75q-31 18 -52 34.5t-40 48.5t-19 71q0 67 51.5 113t131.5 46q88 0 132.5 -42.5t44.5 -101.5q0 -90 -105 -168q128 -67 128 -172q0 -77 -51 -130.5t-154 -53.5t-151.5 49t-48.5 116zM388 169q0 86 -127 142q-120 -55 -120 -151q0 -45 33 -77
t93 -32q58 0 89.5 32t31.5 86zM266 597q-45 0 -74 -28.5t-29 -67.5q0 -75 114 -128q38 24 66 59t28 75q0 39 -28 64.5t-77 25.5z" />
    <glyph glyph-name="nine" unicode="9" 
d="M161 -8l-15 60q113 22 174.5 82.5t69.5 154.5q-70 -49 -158 -49q-85 0 -132.5 52t-47.5 141q0 95 55 159.5t155 64.5q56 0 97.5 -22.5t64.5 -63t34 -90t11 -110.5q0 -157 -71.5 -254t-236.5 -125zM130 435q0 -62 29.5 -98.5t84.5 -36.5q86 0 147 53q3 67 -8.5 119
t-42.5 87t-80 35q-59 0 -94.5 -43.5t-35.5 -115.5z" />
    <glyph glyph-name="colon" unicode=":" horiz-adv-x="208" 
d="M46 45q0 25 16 41.5t41 16.5q27 0 43 -15.5t16 -41.5t-15.5 -42.5t-40.5 -16.5q-28 0 -44 15.5t-16 42.5zM46 430q0 25 16 41.5t41 16.5q27 0 43 -15.5t16 -41.5t-15.5 -42.5t-40.5 -16.5q-28 0 -44 15.5t-16 42.5z" />
    <glyph glyph-name="semicolon" unicode=";" horiz-adv-x="217" 
d="M60 430q0 25 16 41.5t41 16.5q27 0 43 -15.5t16 -41.5t-15.5 -42.5t-40.5 -16.5q-28 0 -44 15.5t-16 42.5zM170 73l-93 -208l-42 13q15 122 27 175q6 28 15 40t26 12q35 0 67 -32z" />
    <glyph glyph-name="less" unicode="&#x3c;" 
d="M433 522l27 -61l-300 -139l302 -141l-29 -61l-357 170v61z" />
    <glyph glyph-name="equal" unicode="=" 
d="M470 430v-65h-405v65h405zM470 257v-65h-405v65h405z" />
    <glyph glyph-name="greater" unicode="&#x3e;" 
d="M105 120l-27 61l300 139l-302 141l29 61l357 -170v-61z" />
    <glyph glyph-name="question" unicode="?" horiz-adv-x="362" 
d="M239 544q0 81 -97 81q-41 0 -98 -21l-14 67q65 24 122 24q85 0 125 -40.5t40 -105.5q0 -62 -26.5 -98.5t-80.5 -76.5q-25 -19 -35.5 -28.5t-18.5 -26t-8 -39.5v-108h-66q-6 54 -6 103q0 53 17.5 81.5t62.5 62.5q30 22 42.5 33t26.5 36t14 56zM63 40q0 23 16 39t38 16
q26 0 42 -15t16 -39t-15.5 -40.5t-39.5 -16.5q-26 0 -41.5 16t-15.5 40z" />
    <glyph glyph-name="at" unicode="@" horiz-adv-x="955" 
d="M818 291q0 135 -79.5 218t-236.5 83q-171 0 -266.5 -105.5t-95.5 -272.5q0 -159 87 -254.5t242 -95.5q97 0 173 36l19 -55q-80 -37 -195 -37q-101 0 -178.5 32t-123.5 88.5t-69 127.5t-23 154q0 210 121.5 324.5t318.5 114.5q171 0 271 -95.5t100 -264.5
q0 -143 -68.5 -215t-184.5 -74h-37l-6 58l-3 1q-42 -64 -130 -64q-169 0 -169 209q0 114 57 178t160 64q65 0 144 -26v-331l3 -35q38 3 66.5 15.5t53 38t37 72t12.5 111.5zM577 375q-30 16 -84 16q-27 0 -43 -5q-96 -27 -96 -185q0 -152 112 -152q54 0 82.5 31t28.5 75v220z
" />
    <glyph glyph-name="A" unicode="A" horiz-adv-x="607" 
d="M98 0h-78l234 665h94l239 -665h-83l-73 205h-262zM299 594l-111 -325h224z" />
    <glyph glyph-name="B" unicode="B" horiz-adv-x="569" 
d="M82 665h201q208 0 208 -163q0 -101 -107 -143q64 -11 102.5 -53.5t38.5 -110.5q0 -96 -62 -145.5t-181 -49.5h-200v665zM161 322v-258h120q161 0 161 130q0 61 -41 94.5t-115 33.5h-125zM161 603v-219h97q78 0 115.5 30t37.5 82q0 62 -38 84.5t-108 22.5h-104z" />
    <glyph glyph-name="C" unicode="C" horiz-adv-x="588" 
d="M345 55q88 0 170 73l43 -52q-93 -88 -217 -88q-135 0 -211 86.5t-76 257.5q0 92 26.5 162t70 108t93 56.5t103.5 18.5q138 0 216 -110l-56 -43q-72 85 -163 85q-96 0 -152.5 -73t-56.5 -199q0 -134 52.5 -208t157.5 -74z" />
    <glyph glyph-name="D" unicode="D" horiz-adv-x="642" 
d="M82 0v665h203q142 0 222.5 -78.5t80.5 -229.5q0 -96 -24 -167t-66.5 -111.5t-94 -59.5t-112.5 -19h-209zM161 601v-537h132q101 0 158 71t57 203q0 143 -61 203t-168 60h-118z" />
    <glyph glyph-name="E" unicode="E" horiz-adv-x="493" 
d="M82 0v665h372v-68h-293v-224h252v-68h-252v-237h300v-68h-379z" />
    <glyph glyph-name="F" unicode="F" horiz-adv-x="498" 
d="M82 665h399v-68h-320v-224h265v-68h-265v-305h-79v665z" />
    <glyph glyph-name="G" unicode="G" horiz-adv-x="621" 
d="M558 354v-305q-91 -61 -221 -61q-134 0 -208.5 86.5t-74.5 256.5q0 93 25 162.5t67 108t90 57t101 18.5q139 0 223 -108l-57 -45q-72 85 -167 85q-94 0 -147.5 -72.5t-53.5 -198.5q0 -285 209 -285q37 0 76.5 10.5t58.5 24.5v198h-151v68h230z" />
    <glyph glyph-name="H" unicode="H" horiz-adv-x="669" 
d="M508 665h79v-665h-79v312h-347v-312h-79v665h79v-284h347v284z" />
    <glyph glyph-name="I" unicode="I" horiz-adv-x="245" 
d="M162 0h-79v665h79v-665z" />
    <glyph glyph-name="J" unicode="J" horiz-adv-x="418" 
d="M11 45l40 56q59 -46 115 -46q92 0 92 102v508h79v-414q0 -75 -2 -111q-6 -152 -166 -152q-53 0 -95.5 17.5t-62.5 39.5z" />
    <glyph glyph-name="K" unicode="K" horiz-adv-x="566" 
d="M534 665l-191 -261l211 -404h-89l-177 339l-128 -169v-170h-78v665h78v-388l286 388h88z" />
    <glyph glyph-name="L" unicode="L" horiz-adv-x="487" 
d="M84 0v665h78v-597h297v-68h-375z" />
    <glyph glyph-name="M" unicode="M" horiz-adv-x="819" 
d="M409 177l199 488h96l37 -665h-76l-30 553h-1l-194 -472h-67l-188 470h-1l-30 -551h-76l39 665h98l193 -488h1z" />
    <glyph glyph-name="N" unicode="N" horiz-adv-x="668" 
d="M508 665h78v-665h-86l-339 556h-1v-556h-78v665h92l333 -548h1v548z" />
    <glyph glyph-name="O" unicode="O" horiz-adv-x="661" 
d="M607 331q0 -168 -74 -255.5t-205 -87.5q-130 0 -202 87.5t-72 255.5q0 92 25 161.5t66.5 108.5t90 57.5t102.5 18.5q119 0 194 -83.5t75 -262.5zM135 334q0 -279 201 -279q52 0 90.5 23t59.5 63t30.5 86.5t9.5 100.5q0 49 -9 94.5t-29 89.5t-59.5 70.5t-93.5 26.5
q-69 0 -116 -41.5t-65.5 -101t-18.5 -132.5z" />
    <glyph glyph-name="P" unicode="P" horiz-adv-x="565" 
d="M161 245v-245h-79v665h216q106 0 165 -51t59 -147q0 -108 -67 -165t-180 -57h-114zM161 309h100q180 0 180 146q0 48 -13 78t-42 44t-59 18.5t-79 4.5h-87v-291z" />
    <glyph glyph-name="Q" unicode="Q" horiz-adv-x="649" 
d="M718 -68l-25 -61q-36 13 -70.5 38t-55 45t-62.5 65q-10 11 -15 16q-67 -47 -162 -47q-130 0 -202 87.5t-72 255.5q0 92 25 161.5t66.5 108.5t90 57.5t102.5 18.5q119 0 194 -83.5t75 -262.5q0 -161 -70 -250q5 -5 18 -20t18.5 -20.5t17.5 -18.5t19 -19.5t18.5 -17
t20.5 -16.5t20.5 -13.5t23.5 -13t25 -10.5zM332 50q65 0 110 37q-45 47 -76 66t-70 19q-32 0 -52.5 -17.5t-20.5 -42.5q0 -34 34.5 -48t74.5 -14zM484 137q42 74 42 191q0 49 -9 94.5t-29 89.5t-59.5 70.5t-93.5 26.5q-69 0 -116 -41.5t-65.5 -101t-18.5 -132.5
q0 -116 35 -185q14 38 49.5 61t81.5 23q49 0 90 -22t93 -74z" />
    <glyph glyph-name="R" unicode="R" horiz-adv-x="585" 
d="M161 273v-273h-79v665h211q226 0 226 -179q0 -77 -37 -121.5t-89 -61.5q25 -7 37 -20.5t27 -47.5l108 -235h-84l-98 209q-15 31 -32 47.5t-45 16.5h-145zM161 337h130q68 0 107.5 37.5t39.5 105.5q0 77 -43 99t-147 22h-87v-264z" />
    <glyph glyph-name="S" unicode="S" horiz-adv-x="532" 
d="M44 49l33 65q84 -57 181 -57q140 0 140 123q0 54 -38 81t-112 47q-43 12 -71.5 23.5t-58.5 32t-45 53t-15 76.5q0 83 58.5 133.5t152.5 50.5q64 0 121 -25.5t95 -63.5l-44 -53q-86 74 -173 74q-51 0 -89.5 -25.5t-38.5 -82.5q0 -53 37 -78.5t117 -49.5q34 -11 55.5 -19
t49 -24t43 -34t27 -47.5t11.5 -65.5q0 -93 -59 -144t-165 -51q-65 0 -126 20.5t-86 40.5z" />
    <glyph glyph-name="T" unicode="T" horiz-adv-x="517" 
d="M19 665h479v-68h-202v-597h-79v597h-198v68z" />
    <glyph glyph-name="U" unicode="U" horiz-adv-x="629" 
d="M77 665h79v-458q0 -152 162 -152q72 0 113.5 37t41.5 110v463h79v-478q0 -94 -65 -146.5t-174 -52.5q-119 0 -177.5 51.5t-58.5 165.5v460z" />
    <glyph glyph-name="V" unicode="V" horiz-adv-x="567" 
d="M326 0h-85l-225 665h83l187 -572l185 572h80z" />
    <glyph glyph-name="W" unicode="W" horiz-adv-x="819" 
d="M536 0l-127 499h-1l-124 -499h-100l-151 665h79l128 -569l126 514h88l128 -514h1l124 569h79l-151 -665h-99z" />
    <glyph glyph-name="X" unicode="X" horiz-adv-x="575" 
d="M452 665h93l-207 -311l235 -354h-93l-194 289l-191 -289h-93l235 353l-206 312h96l162 -253z" />
    <glyph glyph-name="Y" unicode="Y" horiz-adv-x="524" 
d="M434 665h84l-215 -412v-253h-79v253l-218 412h90l171 -331z" />
    <glyph glyph-name="Z" unicode="Z" horiz-adv-x="488" 
d="M450 600l-331 -536h342v-64h-429v64l330 537h-324v64h412v-65z" />
    <glyph glyph-name="bracketleft" unicode="[" horiz-adv-x="297" 
d="M98 -155v858h187v-60h-113v-738h113v-60h-187z" />
    <glyph glyph-name="backslash" unicode="\" horiz-adv-x="400" 
d="M-3 719l70 26l319 -819l-69 -26z" />
    <glyph glyph-name="bracketright" unicode="]" horiz-adv-x="297" 
d="M197 703v-858h-187v60h113v738h-113v60h187z" />
    <glyph glyph-name="asciicircum" unicode="^" 
d="M487 307l-69 -11l-150 296l-151 -297l-67 13l184 357h71z" />
    <glyph glyph-name="underscore" unicode="_" horiz-adv-x="500" 
d="M0 -132v58h500v-58h-500z" />
    <glyph glyph-name="grave" unicode="`" horiz-adv-x="500" 
d="M233 771l109 -181l-31 -25q-78 70 -120 118q-22 25 -22 41q0 31 64 47z" />
    <glyph glyph-name="a" unicode="a" 
d="M462 479v-392l8 -87h-70l-6 59l-3 1q-51 -74 -146 -74q-101 0 -149.5 64t-48.5 177q0 135 64 209.5t187 74.5q79 0 164 -32zM385 158v275q-38 17 -100 17q-161 0 -161 -226q0 -49 10 -86.5t41 -65.5t80 -28q60 0 95 34.5t35 79.5z" />
    <glyph glyph-name="b" unicode="b" horiz-adv-x="533" 
d="M74 30v665h77v-242q52 58 137 58q93 0 146 -63t53 -173q0 -144 -57.5 -216.5t-164.5 -72.5q-50 0 -105.5 12.5t-85.5 31.5zM151 352v-279q48 -28 115 -28q143 0 143 218q0 32 -6 62t-20 60t-43.5 48t-70.5 18q-48 0 -83 -28.5t-35 -70.5z" />
    <glyph glyph-name="c" unicode="c" horiz-adv-x="449" 
d="M275 50q65 0 123 46l33 -51q-65 -59 -162 -59q-108 0 -164.5 67.5t-56.5 195.5q0 72 20.5 126t54 82t69.5 41t74 13q114 0 173 -88l-52 -41q-49 65 -120 65q-64 0 -102.5 -49t-38.5 -146q0 -94 36 -148t113 -54z" />
    <glyph glyph-name="d" unicode="d" 
d="M282 511q51 0 103 -18v202h77v-605l8 -90h-69l-7 60l-4 1q-53 -75 -147 -75q-102 0 -148.5 69t-46.5 179q0 128 61.5 202.5t172.5 74.5zM385 153v274q-46 24 -106 24q-78 0 -116 -57t-38 -151q0 -197 130 -197q58 0 94 33t36 74z" />
    <glyph glyph-name="e" unicode="e" horiz-adv-x="455" 
d="M280 511q69 0 107.5 -34t38.5 -90q0 -52 -28 -88.5t-74 -53.5t-87.5 -23.5t-85.5 -6.5q-5 0 -13.5 0.5t-12.5 0.5q3 -70 40 -119t110 -49q66 0 128 46l30 -51q-68 -57 -163 -57q-112 0 -167 68.5t-55 186.5q0 116 61 193t171 77zM353 378q0 35 -21.5 55t-55.5 20
q-73 0 -110.5 -55t-40.5 -125q3 0 9.5 -0.5t10.5 -0.5q31 0 62 4.5t66.5 14.5t57.5 32.5t22 54.5z" />
    <glyph glyph-name="f" unicode="f" horiz-adv-x="313" 
d="M274 649q-47 0 -66 -25.5t-19 -77.5v-49h120v-67h-120v-430h-78v430h-74v67h74v47q0 168 161 168q36 0 89 -15l-16 -61q-36 13 -71 13z" />
    <glyph glyph-name="g" unicode="g" horiz-adv-x="536" 
d="M286 511q82 0 170 -35v-505q0 -93 -59 -144t-165 -51q-89 0 -169 37l22 58q65 -35 149 -35q144 0 144 132v80h-2q-55 -62 -143 -62q-91 0 -138 63.5t-47 186.5q0 130 63 202.5t175 72.5zM379 148v284q-42 17 -88 17q-82 0 -124 -51.5t-42 -145.5q0 -42 3.5 -71.5
t14.5 -64t38 -53t68 -18.5q58 0 94 32t36 71z" />
    <glyph glyph-name="h" unicode="h" horiz-adv-x="534" 
d="M150 0h-77v695h77v-259q62 75 154 75q159 0 159 -172v-339h-78v318q0 62 -21 96.5t-81 34.5q-53 0 -93 -38.5t-40 -84.5v-326z" />
    <glyph glyph-name="i" unicode="i" horiz-adv-x="225" 
d="M153 0h-78v497h78v-497zM62 639q0 22 15 37t37 15t37 -15t15 -37q0 -23 -15 -38t-38 -15q-22 0 -36.5 15t-14.5 38z" />
    <glyph glyph-name="j" unicode="j" horiz-adv-x="225" 
d="M75 -61v558h78v-540q0 -34 -1.5 -56t-9 -48t-21.5 -40.5t-40 -25t-63 -10.5q-72 0 -117 30l25 57q42 -24 83 -24q35 0 50.5 22t15.5 77zM64 639q0 22 15 37t37 15t37 -15t15 -37q0 -23 -15 -38t-38 -15q-22 0 -36.5 15t-14.5 38z" />
    <glyph glyph-name="k" unicode="k" horiz-adv-x="480" 
d="M450 392q0 -50 -30 -103t-96 -85l124 -204h-91l-107 179q-48 -10 -98 -10v-169h-78v695h78v-324q22 57 69.5 98.5t110.5 41.5q51 0 84.5 -30.5t33.5 -88.5zM372 384q0 30 -15 46t-41 16q-54 0 -103 -70t-61 -150q102 -2 161 40.5t59 117.5z" />
    <glyph glyph-name="l" unicode="l" horiz-adv-x="302" 
d="M75 695h77v-555q0 -51 13 -71.5t50 -20.5q33 0 67 17l18 -54q-38 -25 -102 -25q-34 0 -58 9t-36 21.5t-19 34t-8.5 38t-1.5 40.5v566z" />
    <glyph glyph-name="m" unicode="m" horiz-adv-x="825" 
d="M153 0h-77v422l-7 75h65l9 -71q54 85 153 85q105 0 143 -93q23 45 64.5 69t90.5 24q77 0 118.5 -45.5t41.5 -130.5v-335h-77v314q0 63 -21.5 99t-81.5 36q-50 0 -85 -36t-35 -83v-330h-77v313q0 28 -3.5 49t-13 42.5t-31.5 33t-55 11.5q-52 0 -86.5 -37.5t-34.5 -86.5
v-325z" />
    <glyph glyph-name="n" unicode="n" horiz-adv-x="536" 
d="M152 0h-78v422l-5 75h67l9 -72q58 86 161 86q78 0 118.5 -43.5t40.5 -128.5v-339h-78v315q0 64 -21 99t-79 35q-56 0 -95.5 -38t-39.5 -85v-326z" />
    <glyph glyph-name="o" unicode="o" horiz-adv-x="520" 
d="M258 46q68 0 102 56t34 144q0 204 -132 204q-68 0 -103 -51.5t-35 -136.5q0 -216 134 -216zM46 252q0 74 20 127t54.5 80.5t70.5 39.5t77 12q25 0 48 -4t53.5 -19t52 -40t36.5 -73t15 -112q0 -139 -61 -208t-161 -69q-97 0 -151 67t-54 199z" />
    <glyph glyph-name="p" unicode="p" horiz-adv-x="529" 
d="M151 24v-234h-78v691q105 30 181 30q117 0 172 -64t55 -193t-53.5 -198.5t-148.5 -69.5q-73 0 -128 38zM403 244q0 97 -34 149t-124 52q-48 0 -94 -16v-334q51 -44 122 -44q66 0 98 55t32 138z" />
    <glyph glyph-name="q" unicode="q" horiz-adv-x="528" 
d="M456 476v-686h-78v258h-2q-55 -62 -143 -62q-91 0 -138 63.5t-47 186.5q0 130 63 202.5t175 72.5q82 0 170 -35zM379 148v284q-42 17 -88 17q-82 0 -124 -51.5t-42 -145.5q0 -42 3.5 -71.5t14.5 -64t38 -53t68 -18.5q58 0 94 32t36 71z" />
    <glyph glyph-name="r" unicode="r" horiz-adv-x="346" 
d="M152 317v-317h-77v429l-6 68h67l9 -72q37 86 125 86q49 0 79 -19l-24 -69q-36 19 -65 19q-46 0 -76 -36.5t-32 -88.5z" />
    <glyph glyph-name="s" unicode="s" horiz-adv-x="405" 
d="M30 34l30 56q64 -44 136 -44q44 0 71.5 21.5t27.5 63.5q0 40 -26 59t-77 31q-35 8 -58 16.5t-46.5 24.5t-35 41t-11.5 61q0 71 48.5 109t118.5 38q99 0 166 -67l-45 -46q-57 54 -124 54q-37 0 -64 -19.5t-27 -57.5q0 -21 7.5 -36t25.5 -25.5t31 -15t42 -13.5
q37 -11 56 -19t45 -24.5t38 -42t12 -61.5q0 -72 -48 -112t-126 -40q-55 0 -101 15.5t-66 32.5z" />
    <glyph glyph-name="t" unicode="t" horiz-adv-x="333" 
d="M74 695h78v-198h142v-67h-142v-296q0 -48 18 -67.5t55 -19.5q35 0 76 24l23 -52q-48 -33 -113 -33q-38 0 -65 9.5t-41 22t-21 35t-8.5 39t-1.5 44.5v559z" />
    <glyph glyph-name="u" unicode="u" horiz-adv-x="537" 
d="M386 497h77v-424l7 -73h-69l-8 68h-2q-53 -82 -157 -82q-161 0 -161 171v340h78v-318q0 -64 21 -98t82 -34q51 0 91.5 38t40.5 82v330z" />
    <glyph glyph-name="v" unicode="v" horiz-adv-x="514" 
d="M351 497h78q33 -112 33 -212q0 -141 -57.5 -220t-171.5 -79q-82 0 -121 39t-39 129v343h78v-314q0 -26 1 -42.5t6 -36t14.5 -30t27 -18t42.5 -7.5q51 0 84.5 34.5t46 83t12.5 107.5q0 93 -34 223z" />
    <glyph glyph-name="w" unicode="w" horiz-adv-x="790" 
d="M627 497h76q36 -122 36 -209q0 -302 -209 -302q-108 0 -133 96q-59 -96 -167 -96q-81 0 -119 41t-38 127v343h78v-302q0 -29 1 -46t6 -39t14 -33.5t26.5 -20t43.5 -8.5q51 0 87 37t36 86v326h78v-305q0 -34 2.5 -55t10.5 -44t27 -34t49 -11q131 0 131 236q0 82 -36 213z
" />
    <glyph glyph-name="x" unicode="x" horiz-adv-x="444" 
d="M349 497h79l-161 -236l172 -261h-82l-133 203l-138 -203h-81l178 259l-157 238h83l117 -184z" />
    <glyph glyph-name="y" unicode="y" horiz-adv-x="534" 
d="M386 497h77v-526q0 -93 -59 -144t-165 -51q-74 0 -151 29l19 59q63 -28 134 -28q145 0 145 132v93h-2q-53 -75 -150 -75q-161 0 -161 171v340h78v-320q0 -64 21 -98t82 -34q51 0 91.5 38t40.5 82v332z" />
    <glyph glyph-name="z" unicode="z" horiz-adv-x="422" 
d="M410 0h-384v52l280 383h-259v62h355v-47l-284 -388h292v-62z" />
    <glyph glyph-name="braceleft" unicode="{" horiz-adv-x="295" 
d="M125 281q38 -13 50.5 -40t12.5 -84q0 -21 -5 -89t-5 -92q0 -41 9.5 -59t40.5 -18q14 0 41 5l9 -53q-38 -9 -68 -9q-59 0 -82 31.5t-23 85.5q0 34 4.5 98.5t4.5 94.5q0 48 -12.5 72.5t-47.5 32.5v48q37 8 49 31.5t12 80.5q0 30 -4.5 87.5t-4.5 84.5q0 120 105 120
q39 0 68 -9l-10 -54q-24 6 -42 6q-30 0 -39 -14.5t-9 -53.5q0 -23 4 -88t4 -87q0 -54 -13 -84.5t-49 -43.5z" />
    <glyph glyph-name="bar" unicode="|" horiz-adv-x="225" 
d="M76 -88v835h73v-835h-73z" />
    <glyph glyph-name="braceright" unicode="}" horiz-adv-x="295" 
d="M160 281q-36 13 -49 43.5t-13 84.5q0 22 4 87t4 88q0 39 -9 53.5t-39 14.5q-18 0 -42 -6l-10 54q29 9 68 9q105 0 105 -120q0 -27 -4.5 -84.5t-4.5 -87.5q0 -57 12 -80.5t49 -31.5v-48q-35 -8 -47.5 -32.5t-12.5 -72.5q0 -30 4.5 -94.5t4.5 -98.5q0 -54 -23 -85.5
t-82 -31.5q-30 0 -68 9l9 53q27 -5 41 -5q31 0 40.5 18t9.5 59q0 24 -5 92t-5 89q0 57 12.5 84t50.5 40z" />
    <glyph glyph-name="asciitilde" unicode="~" horiz-adv-x="576" 
d="M385 221q-40 0 -103 38t-89 38q-36 0 -68 -56l-52 29q50 92 121 92q41 0 102.5 -38.5t90.5 -38.5q39 0 64 54l52 -27q-39 -91 -118 -91z" />
    <glyph glyph-name="uni00A0" unicode="&#xa0;" horiz-adv-x="199" 
 />
    <glyph glyph-name="exclamdown" unicode="&#xa1;" horiz-adv-x="261" 
d="M173 -35v-129q0 -36 -40 -36q-24 0 -33 9.5t-9 27.5v128l17 365h49zM189 455q0 -23 -16 -39t-38 -16q-26 0 -42 15t-16 39t15.5 40.5t39.5 16.5q26 0 41.5 -16t15.5 -40z" />
    <glyph glyph-name="cent" unicode="&#xa2;" 
d="M337 -60h-65v112q-89 12 -135.5 79t-46.5 183q0 122 53 184.5t129 74.5v112h65v-111q94 -11 144 -86l-52 -41q-40 53 -92 62v-394q54 6 103 45l33 -53q-51 -47 -136 -56v-111zM168 317q0 -167 104 -197v387q-48 -12 -76 -60t-28 -130z" />
    <glyph glyph-name="sterling" unicode="&#xa3;" horiz-adv-x="530" 
d="M31 156v60h113l56 258q22 104 70 143.5t120 39.5q76 0 143 -50l-37 -51q-55 38 -108 38q-52 0 -76 -30.5t-40 -100.5l-54 -247h180v-59h-191l-24 -106q-17 -81 -80 -133l2 -3q35 11 67 11q31 0 89.5 -12.5t99.5 -12.5q50 0 105 12l-8 -63q-54 -11 -99 -11q-49 0 -119 14
t-110 14q-64 0 -122 -25v63q40 21 62.5 52t34.5 82l27 117h-101z" />
    <glyph glyph-name="yen" unicode="&#xa5;" horiz-adv-x="517" 
d="M224 163h-170v57h170v86h-170v56h138l-155 282h83l144 -272l141 272h81l-153 -282h135v-56h-167v-86h167v-57h-167v-163h-77v163z" />
    <glyph glyph-name="brokenbar" unicode="&#xa6;" horiz-adv-x="227" 
d="M76 -88v377h75v-377h-75zM76 406v341h75v-341h-75z" />
    <glyph glyph-name="section" unicode="&#xa7;" horiz-adv-x="543" 
d="M69 376l69 4q-5 -66 7 -108t36 -65.5t73 -50.5q4 -2 31.5 -17t34 -19t28.5 -18t29 -22t21.5 -23.5t19.5 -29t10 -33t5 -40.5q0 -19 -4.5 -39t-16.5 -42t-31.5 -39t-52 -28t-73.5 -11q-81 0 -147 38l26 58q61 -36 124 -36q51 0 76.5 26.5t25.5 69.5q0 21 -8.5 39.5
t-17 29.5t-34.5 28t-38 24t-52 28q-55 30 -85.5 59t-47 83t-8.5 134zM472 79l-66 -6q2 93 -28 144t-90 83q-87 47 -112 66q-67 54 -67 136q0 19 4.5 39t16.5 42t31.5 39t52 28t73.5 11q81 0 147 -38l-20 -58q-59 35 -120 35q-56 0 -84 -26.5t-28 -68.5q0 -19 8.5 -37t17 -29
t32.5 -28t33.5 -22.5t42.5 -23.5q11 -6 16 -9q52 -29 83 -60.5t47 -85.5t10 -131z" />
    <glyph glyph-name="dieresis" unicode="&#xa8;" horiz-adv-x="500" 
d="M293 652q0 23 14.5 37.5t37.5 14.5q22 0 36.5 -15t14.5 -37q0 -23 -15 -37.5t-37 -14.5q-23 0 -37 14.5t-14 37.5zM113 652q0 23 14.5 37.5t37.5 14.5q22 0 36.5 -15t14.5 -37q0 -23 -15 -37.5t-37 -14.5q-23 0 -37 14.5t-14 37.5z" />
    <glyph glyph-name="copyright" unicode="&#xa9;" horiz-adv-x="813" 
d="M753 332q0 -151 -99 -251.5t-252 -100.5q-157 0 -249.5 96t-92.5 250q0 148 96.5 249t245.5 101q153 0 252 -100t99 -244zM691 329q0 125 -82.5 209t-205.5 84q-124 0 -202.5 -84.5t-78.5 -211.5q0 -132 78.5 -212t202.5 -80t206 83.5t82 211.5zM409 182q57 0 102 39
l31 -39q-60 -52 -133 -52q-87 0 -132 53.5t-45 147.5q0 55 16.5 96t43.5 62t55 31t58 10q40 0 81 -20t64 -57l-42 -30q-50 55 -102 55q-53 0 -83.5 -36t-30.5 -110q0 -150 117 -150z" />
    <glyph glyph-name="ordfeminine" unicode="&#xaa;" horiz-adv-x="402" 
d="M344 587v-251l9 -73h-62l-6 39h-4q-39 -46 -96 -46q-67 0 -100.5 46.5t-33.5 116.5q0 89 45.5 139.5t128.5 50.5q59 0 119 -22zM277 362v185q-26 10 -61 10q-49 0 -74 -36.5t-25 -91.5q0 -56 20.5 -88.5t61.5 -32.5q33 0 55.5 18t22.5 36z" />
    <glyph glyph-name="guillemotleft" unicode="&#xab;" horiz-adv-x="492" 
d="M270 408l-136 -144l128 -165l-33 -30q-122 110 -160 163q-14 20 -14 33q0 18 25 41q54 52 159 133zM454 408l-136 -144l128 -165l-33 -30q-122 110 -160 163q-14 20 -14 33q0 18 25 41q54 52 159 133z" />
    <glyph glyph-name="logicalnot" unicode="&#xac;" 
d="M413 199v138h-360v67h429v-205h-69z" />
    <glyph glyph-name="uni00AD" unicode="&#xad;" horiz-adv-x="322" 
d="M49 263v66h222v-66h-222z" />
    <glyph glyph-name="registered" unicode="&#xae;" horiz-adv-x="463" 
d="M285 470l38 -83h-43l-32 71q-6 14 -16 14h-33v-85h-37v211h78q31 0 49 -14.5t18 -41.5q0 -42 -35 -57q8 -4 13 -15zM199 504h31q36 0 36 34q0 29 -42 29h-25v-63zM423 492q0 -83 -54.5 -135.5t-139.5 -52.5q-86 0 -137.5 52t-51.5 134q0 81 53 134t136 53q85 0 139.5 -53
t54.5 -132zM379 490q0 65 -42.5 107t-107.5 42t-104.5 -41.5t-39.5 -107.5t40.5 -107t103.5 -41q67 0 108.5 40.5t41.5 107.5z" />
    <glyph glyph-name="macron" unicode="&#xaf;" horiz-adv-x="500" 
d="M117 619v65h260v-65h-260z" />
    <glyph glyph-name="degree" unicode="&#xb0;" horiz-adv-x="298" 
d="M42 598q0 49 29 80t78 31t78 -30t29 -75q0 -50 -30 -81.5t-80 -31.5q-49 0 -76.5 30t-27.5 77zM94 598q0 -28 14.5 -44.5t40.5 -16.5t40.5 17t14.5 44q0 65 -55 65t-55 -65z" />
    <glyph glyph-name="plusminus" unicode="&#xb1;" 
d="M229 353v165h70v-165h171v-67h-171v-163h171v-67h-405v67h164v163h-164v67h164z" />
    <glyph glyph-name="twosuperior" unicode="&#xb2;" horiz-adv-x="377" 
d="M82 643l-31 44q73 50 144 50q56 0 84.5 -26.5t28.5 -66.5q0 -55 -52 -116l-112 -133h180v-54h-261v47l125 148q53 62 53 98q0 48 -58 48q-43 0 -101 -39z" />
    <glyph glyph-name="threesuperior" unicode="&#xb3;" horiz-adv-x="377" 
d="M92 656l-24 43q74 38 137 38q53 0 80 -26t27 -65q0 -52 -42 -90q48 -65 48 -111t-34 -77.5t-101 -31.5q-68 0 -120 26l19 49q50 -23 97 -23q76 0 76 57q0 29 -37 85q-40 -16 -80 -24l-14 45q31 8 56 17q24 8 35.5 14t22.5 19.5t11 33.5q0 48 -60 48q-39 0 -97 -27z" />
    <glyph glyph-name="acute" unicode="&#xb4;" horiz-adv-x="500" 
d="M155 590l110 181q62 -16 62 -45q0 -17 -22 -42q-28 -32 -119 -119z" />
    <glyph glyph-name="mu" unicode="&#xb5;" horiz-adv-x="589" 
d="M497 497v-419q0 -34 28 -34q16 0 48 16l15 -47q-39 -24 -83 -24q-74 0 -68 93q-48 -96 -148 -96q-87 0 -132 63v-265h-68v713h69v-298q0 -71 31 -113t96 -42q64 0 102.5 49t38.5 125v279h71z" />
    <glyph glyph-name="paragraph" unicode="&#xb6;" horiz-adv-x="494" 
d="M336 51v554h-75v-386q-86 4 -141.5 59.5t-55.5 156.5q0 121 62.5 175.5t166.5 54.5h119v-593q0 -125 -49 -185.5t-171 -89.5l-18 64q89 24 125.5 68t36.5 122z" />
    <glyph glyph-name="periodcentered" unicode="&#xb7;" horiz-adv-x="304" 
d="M94 308q0 25 16 41t41 16q27 0 43 -15t16 -41t-15.5 -43t-40.5 -17q-28 0 -44 16t-16 43z" />
    <glyph glyph-name="cedilla" unicode="&#xb8;" horiz-adv-x="500" 
d="M212 3h48l-20 -75q84 -5 84 -74q0 -42 -30.5 -64.5t-75.5 -22.5q-46 0 -82 18l13 42q39 -13 66 -13q51 0 51 38q0 22 -21.5 31t-67.5 9z" />
    <glyph glyph-name="onesuperior" unicode="&#xb9;" horiz-adv-x="377" 
d="M95 394h78v269l-89 -42l-22 44l118 66h63l-5 -59v-278h74v-53h-217v53z" />
    <glyph glyph-name="ordmasculine" unicode="&#xba;" horiz-adv-x="399" 
d="M198 309q42 0 64.5 34t22.5 90q0 126 -88 126q-42 0 -62.5 -33t-20.5 -79q0 -138 84 -138zM47 431q0 97 46.5 138.5t109.5 41.5q65 0 107 -40.5t42 -126.5q0 -91 -41 -139.5t-115 -48.5q-72 0 -110.5 47.5t-38.5 127.5z" />
    <glyph glyph-name="guillemotright" unicode="&#xbb;" horiz-adv-x="492" 
d="M174 264l-136 144l31 31q105 -81 159 -133q25 -23 25 -41q0 -13 -14 -33q-38 -53 -160 -163l-33 30zM358 264l-136 144l31 31q105 -81 159 -133q25 -23 25 -41q0 -13 -14 -33q-38 -53 -160 -163l-33 30z" />
    <glyph glyph-name="onequarter" unicode="&#xbc;" horiz-adv-x="800" 
d="M49 314h78v269l-89 -42l-22 44l118 66h63l-5 -59v-278h74v-53h-217v53zM287 -3l-58 27l292 627l60 -26zM657 252h40v-113h68v-53h-68v-86h-61v88h-170v47l121 263l51 -23l-109 -236h109v34z" />
    <glyph glyph-name="onehalf" unicode="&#xbd;" horiz-adv-x="800" 
d="M56 314h78v269l-89 -42l-22 44l118 66h63l-5 -59v-278h74v-53h-217v53zM274 -3l-58 27l292 627l60 -26zM517 302l-31 44q73 50 144 50q56 0 84.5 -26.5t28.5 -66.5q0 -55 -52 -116l-112 -133h180v-54h-261v47l125 148q53 62 53 98q0 48 -58 48q-43 0 -101 -39z" />
    <glyph glyph-name="threequarters" unicode="&#xbe;" horiz-adv-x="800" 
d="M70 576l-24 43q74 38 137 38q53 0 80 -26t27 -65q0 -52 -42 -90q48 -65 48 -111t-34 -77.5t-101 -31.5q-68 0 -120 26l19 49q50 -23 97 -23q76 0 76 57q0 29 -37 85q-40 -16 -80 -24l-14 45q31 8 56 17q24 8 35.5 14t22.5 19.5t11 33.5q0 48 -60 48q-39 0 -97 -27z
M284 -3l-58 27l292 627l60 -26zM655 252h40v-113h68v-53h-68v-86h-61v88h-170v47l121 263l51 -23l-109 -236h109v34z" />
    <glyph glyph-name="questiondown" unicode="&#xbf;" horiz-adv-x="362" 
d="M108 -49q0 -81 97 -81q41 0 98 21l14 -67q-65 -24 -122 -24q-85 0 -125 40.5t-40 105.5q0 62 26.5 98.5t80.5 76.5q25 19 35.5 28.5t18.5 26t8 39.5v108h66q6 -54 6 -103q0 -53 -17.5 -81.5t-62.5 -62.5q-30 -22 -42.5 -33t-26.5 -36t-14 -56zM284 455q0 -23 -16 -39
t-38 -16q-26 0 -42 15t-16 39t15.5 40.5t39.5 16.5q26 0 41.5 -16t15.5 -40z" />
    <glyph glyph-name="Agrave" unicode="&#xc0;" horiz-adv-x="607" 
d="M98 0h-78l234 665h94l239 -665h-83l-73 205h-262zM299 594l-111 -325h224zM219 896l152 -147l-24 -33l-145 87q-32 23 -32 42q0 23 49 51z" />
    <glyph glyph-name="Aacute" unicode="&#xc1;" horiz-adv-x="607" 
d="M98 0h-78l234 665h94l239 -665h-83l-73 205h-262zM299 594l-111 -325h224zM236 749l152 148q49 -27 49 -52q0 -19 -33 -42q-22 -15 -144 -87z" />
    <glyph glyph-name="Acircumflex" unicode="&#xc2;" horiz-adv-x="607" 
d="M98 0h-78l234 665h94l239 -665h-83l-73 205h-262zM299 594l-111 -325h224zM177 716l-31 24q62 82 107 123q23 22 44 22q24 0 44 -20q60 -60 109 -124l-31 -25l-122 88z" />
    <glyph glyph-name="Atilde" unicode="&#xc3;" horiz-adv-x="607" 
d="M98 0h-78l234 665h94l239 -665h-83l-73 205h-262zM299 594l-111 -325h224zM168 739l-7 57q34 27 80 27q26 0 67.5 -12.5t62.5 -12.5q29 0 60 17l7 -60q-33 -18 -66 -18q-22 0 -68.5 11t-64.5 11q-34 0 -71 -20z" />
    <glyph glyph-name="Adieresis" unicode="&#xc4;" horiz-adv-x="607" 
d="M98 0h-78l234 665h94l239 -665h-83l-73 205h-262zM299 594l-111 -325h224zM342 781q0 22 14.5 36.5t37.5 14.5q22 0 36.5 -14.5t14.5 -36.5q0 -23 -15 -37.5t-37 -14.5q-23 0 -37 14.5t-14 37.5zM154 781q0 22 14.5 36.5t37.5 14.5q22 0 36.5 -14.5t14.5 -36.5
q0 -23 -15 -37.5t-37 -14.5q-23 0 -37 14.5t-14 37.5z" />
    <glyph glyph-name="Aring" unicode="&#xc5;" horiz-adv-x="607" 
d="M218 735q0 38 23.5 62t62.5 24t62.5 -23t23.5 -58q0 -55 -41 -79l238 -661h-83l-73 205h-262l-71 -205h-78l233 663q-35 23 -35 72zM299 594l-111 -325h224zM266 735q0 -45 38 -45t38 45q0 46 -38 46t-38 -46z" />
    <glyph glyph-name="AE" unicode="&#xc6;" horiz-adv-x="805" 
d="M495 0l-74 209h-259l-72 -209h-78l234 665h522v-68h-397l79 -224h275v-68h-255l85 -237h219v-68h-279zM291 593l-109 -320h220z" />
    <glyph glyph-name="Ccedilla" unicode="&#xc7;" horiz-adv-x="588" 
d="M345 55q88 0 170 73l43 -52q-89 -85 -211 -88l-16 -60q84 -5 84 -74q0 -43 -31 -66t-75 -23q-46 0 -82 18l13 42q39 -13 66 -13q51 0 51 40q0 22 -21.5 31t-67.5 9l31 99q-116 12 -180.5 98t-64.5 243q0 92 26.5 162t70 108t93 56.5t103.5 18.5q138 0 216 -110l-56 -43
q-72 85 -163 85q-96 0 -152.5 -73t-56.5 -199q0 -134 52.5 -208t157.5 -74z" />
    <glyph glyph-name="Egrave" unicode="&#xc8;" horiz-adv-x="493" 
d="M82 0v665h372v-68h-293v-224h252v-68h-252v-237h300v-68h-379zM197 896l152 -147l-24 -33l-145 87q-32 23 -32 42q0 23 49 51z" />
    <glyph glyph-name="Eacute" unicode="&#xc9;" horiz-adv-x="493" 
d="M82 0v665h372v-68h-293v-224h252v-68h-252v-237h300v-68h-379zM186 749l152 148q49 -27 49 -52q0 -19 -33 -42q-22 -15 -144 -87z" />
    <glyph glyph-name="Ecircumflex" unicode="&#xca;" horiz-adv-x="493" 
d="M82 0v665h372v-68h-293v-224h252v-68h-252v-237h300v-68h-379zM144 716l-31 24q62 82 107 123q23 22 44 22q24 0 44 -20q60 -60 109 -124l-31 -25l-122 88z" />
    <glyph glyph-name="Edieresis" unicode="&#xcb;" horiz-adv-x="493" 
d="M82 0v665h372v-68h-293v-224h252v-68h-252v-237h300v-68h-379zM308 781q0 22 14.5 36.5t37.5 14.5q22 0 36.5 -14.5t14.5 -36.5q0 -23 -15 -37.5t-37 -14.5q-23 0 -37 14.5t-14 37.5zM120 781q0 22 14.5 36.5t37.5 14.5q22 0 36.5 -14.5t14.5 -36.5q0 -23 -15 -37.5
t-37 -14.5q-23 0 -37 14.5t-14 37.5z" />
    <glyph glyph-name="Igrave" unicode="&#xcc;" horiz-adv-x="245" 
d="M162 0h-79v665h79v-665zM38 896l152 -147l-24 -33l-145 87q-32 23 -32 42q0 23 49 51z" />
    <glyph glyph-name="Iacute" unicode="&#xcd;" horiz-adv-x="245" 
d="M162 0h-79v665h79v-665zM53 749l152 148q49 -27 49 -52q0 -19 -33 -42q-22 -15 -144 -87z" />
    <glyph glyph-name="Icircumflex" unicode="&#xce;" horiz-adv-x="245" 
d="M162 0h-79v665h79v-665zM3 716l-31 24q62 82 107 123q23 22 44 22q24 0 44 -20q60 -60 109 -124l-31 -25l-122 88z" />
    <glyph glyph-name="Idieresis" unicode="&#xcf;" horiz-adv-x="245" 
d="M162 0h-79v665h79v-665zM164 781q0 22 14.5 36.5t37.5 14.5q22 0 36.5 -14.5t14.5 -36.5q0 -23 -15 -37.5t-37 -14.5q-23 0 -37 14.5t-14 37.5zM-24 781q0 22 14.5 36.5t37.5 14.5q22 0 36.5 -14.5t14.5 -36.5q0 -23 -15 -37.5t-37 -14.5q-23 0 -37 14.5t-14 37.5z" />
    <glyph glyph-name="Eth" unicode="&#xd0;" horiz-adv-x="642" 
d="M7 302v66h75v297h203q142 0 222.5 -78.5t80.5 -229.5q0 -96 -24 -167t-66.5 -111.5t-94 -59.5t-112.5 -19h-209v302h-75zM161 601v-233h190v-66h-190v-238h132q101 0 158 71t57 203q0 143 -61 203t-168 60h-118z" />
    <glyph glyph-name="Ntilde" unicode="&#xd1;" horiz-adv-x="668" 
d="M508 665h78v-665h-86l-339 556h-1v-556h-78v665h92l333 -548h1v548zM201 739l-7 57q34 27 80 27q26 0 67.5 -12.5t62.5 -12.5q29 0 60 17l7 -60q-33 -18 -66 -18q-22 0 -68.5 11t-64.5 11q-34 0 -71 -20z" />
    <glyph glyph-name="Ograve" unicode="&#xd2;" horiz-adv-x="661" 
d="M607 331q0 -168 -74 -255.5t-205 -87.5q-130 0 -202 87.5t-72 255.5q0 92 25 161.5t66.5 108.5t90 57.5t102.5 18.5q119 0 194 -83.5t75 -262.5zM135 334q0 -279 201 -279q52 0 90.5 23t59.5 63t30.5 86.5t9.5 100.5q0 49 -9 94.5t-29 89.5t-59.5 70.5t-93.5 26.5
q-69 0 -116 -41.5t-65.5 -101t-18.5 -132.5zM269 896l152 -147l-24 -33l-145 87q-32 23 -32 42q0 23 49 51z" />
    <glyph glyph-name="Oacute" unicode="&#xd3;" horiz-adv-x="661" 
d="M607 331q0 -168 -74 -255.5t-205 -87.5q-130 0 -202 87.5t-72 255.5q0 92 25 161.5t66.5 108.5t90 57.5t102.5 18.5q119 0 194 -83.5t75 -262.5zM135 334q0 -279 201 -279q52 0 90.5 23t59.5 63t30.5 86.5t9.5 100.5q0 49 -9 94.5t-29 89.5t-59.5 70.5t-93.5 26.5
q-69 0 -116 -41.5t-65.5 -101t-18.5 -132.5zM250 749l152 148q49 -27 49 -52q0 -19 -33 -42q-22 -15 -144 -87z" />
    <glyph glyph-name="Ocircumflex" unicode="&#xd4;" horiz-adv-x="661" 
d="M607 331q0 -168 -74 -255.5t-205 -87.5q-130 0 -202 87.5t-72 255.5q0 92 25 161.5t66.5 108.5t90 57.5t102.5 18.5q119 0 194 -83.5t75 -262.5zM135 334q0 -279 201 -279q52 0 90.5 23t59.5 63t30.5 86.5t9.5 100.5q0 49 -9 94.5t-29 89.5t-59.5 70.5t-93.5 26.5
q-69 0 -116 -41.5t-65.5 -101t-18.5 -132.5zM214 716l-31 24q62 82 107 123q23 22 44 22q24 0 44 -20q60 -60 109 -124l-31 -25l-122 88z" />
    <glyph glyph-name="Otilde" unicode="&#xd5;" horiz-adv-x="661" 
d="M607 331q0 -168 -74 -255.5t-205 -87.5q-130 0 -202 87.5t-72 255.5q0 92 25 161.5t66.5 108.5t90 57.5t102.5 18.5q119 0 194 -83.5t75 -262.5zM135 334q0 -279 201 -279q52 0 90.5 23t59.5 63t30.5 86.5t9.5 100.5q0 49 -9 94.5t-29 89.5t-59.5 70.5t-93.5 26.5
q-69 0 -116 -41.5t-65.5 -101t-18.5 -132.5zM204 739l-7 57q34 27 80 27q26 0 67.5 -12.5t62.5 -12.5q29 0 60 17l7 -60q-33 -18 -66 -18q-22 0 -68.5 11t-64.5 11q-34 0 -71 -20z" />
    <glyph glyph-name="Odieresis" unicode="&#xd6;" horiz-adv-x="661" 
d="M607 331q0 -168 -74 -255.5t-205 -87.5q-130 0 -202 87.5t-72 255.5q0 92 25 161.5t66.5 108.5t90 57.5t102.5 18.5q119 0 194 -83.5t75 -262.5zM135 334q0 -279 201 -279q52 0 90.5 23t59.5 63t30.5 86.5t9.5 100.5q0 49 -9 94.5t-29 89.5t-59.5 70.5t-93.5 26.5
q-69 0 -116 -41.5t-65.5 -101t-18.5 -132.5zM378 781q0 22 14.5 36.5t37.5 14.5q22 0 36.5 -14.5t14.5 -36.5q0 -23 -15 -37.5t-37 -14.5q-23 0 -37 14.5t-14 37.5zM190 781q0 22 14.5 36.5t37.5 14.5q22 0 36.5 -14.5t14.5 -36.5q0 -23 -15 -37.5t-37 -14.5q-23 0 -37 14.5
t-14 37.5z" />
    <glyph glyph-name="multiply" unicode="&#xd7;" 
d="M219 318l-123 123l50 50l122 -123l123 122l47 -47l-122 -123l123 -122l-51 -50l-122 123l-123 -123l-47 47z" />
    <glyph glyph-name="Oslash" unicode="&#xd8;" horiz-adv-x="661" 
d="M162 -91l-59 29l52 107q-101 85 -101 286q0 92 25 161.5t66.5 108.5t90 57.5t102.5 18.5q64 0 114 -23l40 83l61 -28l-45 -92q99 -89 99 -286q0 -168 -74 -255.5t-205 -87.5q-67 0 -117 22zM135 334q0 -145 56 -215l228 468q-36 22 -84 22q-69 0 -116 -41.5t-65.5 -101
t-18.5 -132.5zM526 328q0 135 -56 212l-227 -465q38 -20 93 -20q52 0 90.5 23t59.5 63t30.5 86.5t9.5 100.5z" />
    <glyph glyph-name="Ugrave" unicode="&#xd9;" horiz-adv-x="629" 
d="M77 665h79v-458q0 -152 162 -152q72 0 113.5 37t41.5 110v463h79v-478q0 -94 -65 -146.5t-174 -52.5q-119 0 -177.5 51.5t-58.5 165.5v460zM244 896l152 -147l-24 -33l-145 87q-32 23 -32 42q0 23 49 51z" />
    <glyph glyph-name="Uacute" unicode="&#xda;" horiz-adv-x="629" 
d="M77 665h79v-458q0 -152 162 -152q72 0 113.5 37t41.5 110v463h79v-478q0 -94 -65 -146.5t-174 -52.5q-119 0 -177.5 51.5t-58.5 165.5v460zM236 749l152 148q49 -27 49 -52q0 -19 -33 -42q-22 -15 -144 -87z" />
    <glyph glyph-name="Ucircumflex" unicode="&#xdb;" horiz-adv-x="629" 
d="M77 665h79v-458q0 -152 162 -152q72 0 113.5 37t41.5 110v463h79v-478q0 -94 -65 -146.5t-174 -52.5q-119 0 -177.5 51.5t-58.5 165.5v460zM192 716l-31 24q62 82 107 123q23 22 44 22q24 0 44 -20q60 -60 109 -124l-31 -25l-122 88z" />
    <glyph glyph-name="Udieresis" unicode="&#xdc;" horiz-adv-x="629" 
d="M77 665h79v-458q0 -152 162 -152q72 0 113.5 37t41.5 110v463h79v-478q0 -94 -65 -146.5t-174 -52.5q-119 0 -177.5 51.5t-58.5 165.5v460zM355 781q0 22 14.5 36.5t37.5 14.5q22 0 36.5 -14.5t14.5 -36.5q0 -23 -15 -37.5t-37 -14.5q-23 0 -37 14.5t-14 37.5zM167 781
q0 22 14.5 36.5t37.5 14.5q22 0 36.5 -14.5t14.5 -36.5q0 -23 -15 -37.5t-37 -14.5q-23 0 -37 14.5t-14 37.5z" />
    <glyph glyph-name="Yacute" unicode="&#xdd;" horiz-adv-x="524" 
d="M434 665h84l-215 -412v-253h-79v253l-218 412h90l171 -331zM193 749l152 148q49 -27 49 -52q0 -19 -33 -42q-22 -15 -144 -87z" />
    <glyph glyph-name="Thorn" unicode="&#xde;" horiz-adv-x="568" 
d="M159 139v-139h-79v665h79v-106h137q106 0 165.5 -51t59.5 -147q0 -108 -67.5 -165t-179.5 -57h-115zM159 203h100q180 0 180 146q0 39 -10 66t-25.5 42.5t-44 23.5t-56.5 10.5t-71 2.5h-73v-291z" />
    <glyph glyph-name="germandbls" unicode="&#xdf;" horiz-adv-x="561" 
d="M363 -14q-39 0 -83 11t-69 29l28 57q55 -37 121 -37q42 0 67.5 21.5t25.5 64.5q0 32 -18 56.5t-44.5 40t-52.5 31.5t-44 40t-18 56q0 34 21.5 65.5t47 51.5t47 47t21.5 53q0 36 -33.5 57t-94.5 21q-133 0 -133 -127v-734h-78v727q0 195 220 195q100 0 147 -38t47 -96
q0 -27 -14 -52.5t-34.5 -45t-41 -37t-34.5 -35.5t-14 -35q0 -21 18.5 -39t45 -35t53 -36.5t45 -51.5t18.5 -72q0 -74 -48 -113.5t-119 -39.5z" />
    <glyph glyph-name="agrave" unicode="&#xe0;" 
d="M462 479v-392l8 -87h-70l-6 59l-3 1q-51 -74 -146 -74q-101 0 -149.5 64t-48.5 177q0 135 64 209.5t187 74.5q79 0 164 -32zM385 158v275q-38 17 -100 17q-161 0 -161 -226q0 -49 10 -86.5t41 -65.5t80 -28q60 0 95 34.5t35 79.5zM243 771l109 -181l-31 -25
q-78 70 -120 118q-22 25 -22 41q0 31 64 47z" />
    <glyph glyph-name="aacute" unicode="&#xe1;" 
d="M462 479v-392l8 -87h-70l-6 59l-3 1q-51 -74 -146 -74q-101 0 -149.5 64t-48.5 177q0 135 64 209.5t187 74.5q79 0 164 -32zM385 158v275q-38 17 -100 17q-161 0 -161 -226q0 -49 10 -86.5t41 -65.5t80 -28q60 0 95 34.5t35 79.5zM216 590l110 181q62 -16 62 -45
q0 -17 -22 -42q-28 -32 -119 -119z" />
    <glyph glyph-name="acircumflex" unicode="&#xe2;" 
d="M462 479v-392l8 -87h-70l-6 59l-3 1q-51 -74 -146 -74q-101 0 -149.5 64t-48.5 177q0 135 64 209.5t187 74.5q79 0 164 -32zM385 158v275q-38 17 -100 17q-161 0 -161 -226q0 -49 10 -86.5t41 -65.5t80 -28q60 0 95 34.5t35 79.5zM171 585l-31 24q55 81 97 134
q21 27 45 27q26 0 47 -26q56 -72 96 -135l-31 -25l-112 102z" />
    <glyph glyph-name="atilde" unicode="&#xe3;" 
d="M462 479v-392l8 -87h-70l-6 59l-3 1q-51 -74 -146 -74q-101 0 -149.5 64t-48.5 177q0 135 64 209.5t187 74.5q79 0 164 -32zM385 158v275q-38 17 -100 17q-161 0 -161 -226q0 -49 10 -86.5t41 -65.5t80 -28q60 0 95 34.5t35 79.5zM157 618l-7 57q34 27 80 27
q26 0 67.5 -12.5t62.5 -12.5q29 0 60 17l7 -60q-33 -18 -66 -18q-22 0 -68.5 11t-64.5 11q-37 0 -71 -20z" />
    <glyph glyph-name="adieresis" unicode="&#xe4;" 
d="M462 479v-392l8 -87h-70l-6 59l-3 1q-51 -74 -146 -74q-101 0 -149.5 64t-48.5 177q0 135 64 209.5t187 74.5q79 0 164 -32zM385 158v275q-38 17 -100 17q-161 0 -161 -226q0 -49 10 -86.5t41 -65.5t80 -28q60 0 95 34.5t35 79.5zM327 652q0 23 14.5 37.5t37.5 14.5
q22 0 36.5 -15t14.5 -37q0 -23 -15 -37.5t-37 -14.5q-23 0 -37 14.5t-14 37.5zM147 652q0 23 14.5 37.5t37.5 14.5q22 0 36.5 -15t14.5 -37q0 -23 -15 -37.5t-37 -14.5q-23 0 -37 14.5t-14 37.5z" />
    <glyph glyph-name="aring" unicode="&#xe5;" 
d="M462 479v-392l8 -87h-70l-6 59l-3 1q-51 -74 -146 -74q-101 0 -149.5 64t-48.5 177q0 135 64 209.5t187 74.5q79 0 164 -32zM385 158v275q-38 17 -100 17q-161 0 -161 -226q0 -49 10 -86.5t41 -65.5t80 -28q60 0 95 34.5t35 79.5zM199 660q0 38 23.5 62t62.5 24t62.5 -23
t23.5 -58q0 -40 -24 -65t-64 -25q-39 0 -61.5 24t-22.5 61zM247 660q0 -45 38 -45t38 45q0 46 -38 46t-38 -46z" />
    <glyph glyph-name="ae" unicode="&#xe6;" horiz-adv-x="736" 
d="M561 511q69 0 107.5 -33.5t38.5 -90.5q0 -46 -23.5 -80.5t-57 -51.5t-77.5 -27t-77 -11.5t-65 -0.5q2 -74 39 -121t109 -47q69 0 128 46l30 -53q-66 -55 -169 -55q-92 0 -143 53q-70 -54 -148 -54q-55 0 -95.5 19.5t-64 54t-35 78t-11.5 95.5q0 132 63 205.5t180 73.5
q74 0 145 -38q55 38 126 38zM277 451q-77 0 -115 -59.5t-38 -151.5q0 -85 32.5 -139.5t103.5 -54.5q62 0 107 38q-38 64 -38 157q0 108 56 183q-54 27 -108 27zM634 378q0 35 -21 55t-55 20q-73 0 -111 -56t-41 -126q26 -1 59.5 2t74 12.5t67.5 33.5t27 59z" />
    <glyph glyph-name="ccedilla" unicode="&#xe7;" horiz-adv-x="449" 
d="M275 50q65 0 123 46l33 -51q-64 -58 -158 -59l-15 -58q84 -5 84 -74q0 -42 -30.5 -64.5t-75.5 -22.5q-46 0 -82 18l13 42q39 -13 66 -13q51 0 51 38q0 22 -21.5 31t-67.5 9l30 97q-87 13 -132 79t-45 181q0 72 20.5 126t54 82t69.5 41t74 13q114 0 173 -88l-52 -41
q-49 65 -120 65q-64 0 -102.5 -49t-38.5 -146q0 -94 36 -148t113 -54z" />
    <glyph glyph-name="egrave" unicode="&#xe8;" horiz-adv-x="455" 
d="M280 511q-110 0 -171 -77t-61 -193q0 -118 55 -186.5t167 -68.5q95 0 163 57l-30 51q-62 -46 -128 -46q-73 0 -110 49t-40 119q4 0 12.5 -0.5t13.5 -0.5q44 0 85.5 6.5t87.5 23.5t74 53.5t28 88.5q0 56 -38.5 90t-107.5 34zM353 378q0 -32 -22 -54.5t-57.5 -32.5
t-66.5 -14.5t-62 -4.5q-4 0 -10.5 0.5t-9.5 0.5q3 70 40.5 125t110.5 55q34 0 55.5 -20t21.5 -55zM222 771l109 -181l-31 -25q-78 70 -120 118q-22 25 -22 41q0 31 64 47z" />
    <glyph glyph-name="eacute" unicode="&#xe9;" horiz-adv-x="455" 
d="M280 511q69 0 107.5 -34t38.5 -90q0 -52 -28 -88.5t-74 -53.5t-87.5 -23.5t-85.5 -6.5q-5 0 -13.5 0.5t-12.5 0.5q3 -70 40 -119t110 -49q66 0 128 46l30 -51q-68 -57 -163 -57q-112 0 -167 68.5t-55 186.5q0 116 61 193t171 77zM353 378q0 35 -21.5 55t-55.5 20
q-73 0 -110.5 -55t-40.5 -125q3 0 9.5 -0.5t10.5 -0.5q31 0 62 4.5t66.5 14.5t57.5 32.5t22 54.5zM187 590l110 181q62 -16 62 -45q0 -17 -22 -42q-28 -32 -119 -119z" />
    <glyph glyph-name="ecircumflex" unicode="&#xea;" horiz-adv-x="455" 
d="M280 511q-110 0 -171 -77t-61 -193q0 -118 55 -186.5t167 -68.5q95 0 163 57l-30 51q-62 -46 -128 -46q-73 0 -110 49t-40 119q4 0 12.5 -0.5t13.5 -0.5q44 0 85.5 6.5t87.5 23.5t74 53.5t28 88.5q0 56 -38.5 90t-107.5 34zM353 378q0 -32 -22 -54.5t-57.5 -32.5
t-66.5 -14.5t-62 -4.5q-4 0 -10.5 0.5t-9.5 0.5q3 70 40.5 125t110.5 55q34 0 55.5 -20t21.5 -55zM153 585l-31 24q55 81 97 134q21 27 45 27q26 0 47 -26q56 -72 96 -135l-31 -25l-112 102z" />
    <glyph glyph-name="edieresis" unicode="&#xeb;" horiz-adv-x="455" 
d="M280 511q-110 0 -171 -77t-61 -193q0 -118 55 -186.5t167 -68.5q95 0 163 57l-30 51q-62 -46 -128 -46q-73 0 -110 49t-40 119q4 0 12.5 -0.5t13.5 -0.5q44 0 85.5 6.5t87.5 23.5t74 53.5t28 88.5q0 56 -38.5 90t-107.5 34zM353 378q0 -32 -22 -54.5t-57.5 -32.5
t-66.5 -14.5t-62 -4.5q-4 0 -10.5 0.5t-9.5 0.5q3 70 40.5 125t110.5 55q34 0 55.5 -20t21.5 -55zM301 652q0 23 14.5 37.5t37.5 14.5q22 0 36.5 -15t14.5 -37q0 -23 -15 -37.5t-37 -14.5q-23 0 -37 14.5t-14 37.5zM121 652q0 23 14.5 37.5t37.5 14.5q22 0 36.5 -15
t14.5 -37q0 -23 -15 -37.5t-37 -14.5q-23 0 -37 14.5t-14 37.5z" />
    <glyph glyph-name="igrave" unicode="&#xec;" horiz-adv-x="225" 
d="M153 0h-78v497h78v-497zM80 771l109 -181l-31 -25q-78 70 -120 118q-22 25 -22 41q0 31 64 47z" />
    <glyph glyph-name="iacute" unicode="&#xed;" horiz-adv-x="225" 
d="M153 0h-78v497h78v-497zM41 590l110 181q62 -16 62 -45q0 -17 -22 -42q-28 -32 -119 -119z" />
    <glyph glyph-name="icircumflex" unicode="&#xee;" horiz-adv-x="225" 
d="M153 0h-78v497h78v-497zM2 585l-31 24q55 81 97 134q21 27 45 27q26 0 47 -26q56 -72 96 -135l-31 -25l-112 102z" />
    <glyph glyph-name="idieresis" unicode="&#xef;" horiz-adv-x="225" 
d="M153 0h-78v497h78v-497zM154 652q0 23 14.5 37.5t37.5 14.5q22 0 36.5 -15t14.5 -37q0 -23 -15 -37.5t-37 -14.5q-23 0 -37 14.5t-14 37.5zM-26 652q0 23 14.5 37.5t37.5 14.5q22 0 36.5 -15t14.5 -37q0 -23 -15 -37.5t-37 -14.5q-23 0 -37 14.5t-14 37.5z" />
    <glyph glyph-name="eth" unicode="&#xf0;" horiz-adv-x="507" 
d="M191 490l-31 45l93 64q-52 38 -126 53l15 60q100 -17 169 -74l105 72l31 -45l-96 -65q106 -120 106 -322q0 -60 -12 -111t-36 -92.5t-66.5 -65t-98.5 -23.5q-100 0 -152 61t-52 161q0 102 56 169t148 67q72 0 126 -36q-20 92 -75 153zM118 206q0 -74 34 -115.5t96 -41.5
q64 0 100.5 59.5t36.5 164.5q0 27 -3 56q-57 52 -131 52q-70 0 -101.5 -48t-31.5 -127z" />
    <glyph glyph-name="ntilde" unicode="&#xf1;" horiz-adv-x="536" 
d="M152 0h-78v422l-5 75h67l9 -72q58 86 161 86q78 0 118.5 -43.5t40.5 -128.5v-339h-78v315q0 64 -21 99t-79 35q-56 0 -95.5 -38t-39.5 -85v-326zM148 618l-7 57q34 27 80 27q26 0 67.5 -12.5t62.5 -12.5q29 0 60 17l7 -60q-33 -18 -66 -18q-22 0 -68.5 11t-64.5 11
q-37 0 -71 -20z" />
    <glyph glyph-name="ograve" unicode="&#xf2;" horiz-adv-x="520" 
d="M258 46q-134 0 -134 216q0 85 35 136.5t103 51.5q132 0 132 -204q0 -88 -34 -144t-102 -56zM46 252q0 -132 54 -199t151 -67q100 0 161 69t61 208q0 64 -15 112t-36.5 73t-52 40t-53.5 19t-48 4q-41 0 -77 -12t-70.5 -39.5t-54.5 -80.5t-20 -127zM226 771l109 -181
l-31 -25q-78 70 -120 118q-22 25 -22 41q0 31 64 47z" />
    <glyph glyph-name="oacute" unicode="&#xf3;" horiz-adv-x="520" 
d="M258 46q68 0 102 56t34 144q0 204 -132 204q-68 0 -103 -51.5t-35 -136.5q0 -216 134 -216zM46 252q0 74 20 127t54.5 80.5t70.5 39.5t77 12q25 0 48 -4t53.5 -19t52 -40t36.5 -73t15 -112q0 -139 -61 -208t-161 -69q-97 0 -151 67t-54 199zM196 590l110 181
q62 -16 62 -45q0 -17 -22 -42q-28 -32 -119 -119z" />
    <glyph glyph-name="ocircumflex" unicode="&#xf4;" horiz-adv-x="520" 
d="M258 46q-134 0 -134 216q0 85 35 136.5t103 51.5q132 0 132 -204q0 -88 -34 -144t-102 -56zM46 252q0 -132 54 -199t151 -67q100 0 161 69t61 208q0 64 -15 112t-36.5 73t-52 40t-53.5 19t-48 4q-41 0 -77 -12t-70.5 -39.5t-54.5 -80.5t-20 -127zM151 585l-31 24
q55 81 97 134q21 27 45 27q26 0 47 -26q56 -72 96 -135l-31 -25l-112 102z" />
    <glyph glyph-name="otilde" unicode="&#xf5;" horiz-adv-x="520" 
d="M258 46q68 0 102 56t34 144q0 204 -132 204q-68 0 -103 -51.5t-35 -136.5q0 -216 134 -216zM46 252q0 74 20 127t54.5 80.5t70.5 39.5t77 12q25 0 48 -4t53.5 -19t52 -40t36.5 -73t15 -112q0 -139 -61 -208t-161 -69q-97 0 -151 67t-54 199zM132 618l-7 57q34 27 80 27
q26 0 67.5 -12.5t62.5 -12.5q29 0 60 17l7 -60q-33 -18 -66 -18q-22 0 -68.5 11t-64.5 11q-37 0 -71 -20z" />
    <glyph glyph-name="odieresis" unicode="&#xf6;" horiz-adv-x="520" 
d="M258 46q-134 0 -134 216q0 85 35 136.5t103 51.5q132 0 132 -204q0 -88 -34 -144t-102 -56zM46 252q0 -132 54 -199t151 -67q100 0 161 69t61 208q0 64 -15 112t-36.5 73t-52 40t-53.5 19t-48 4q-41 0 -77 -12t-70.5 -39.5t-54.5 -80.5t-20 -127zM302 652q0 23 14.5 37.5
t37.5 14.5q22 0 36.5 -15t14.5 -37q0 -23 -15 -37.5t-37 -14.5q-23 0 -37 14.5t-14 37.5zM122 652q0 23 14.5 37.5t37.5 14.5q22 0 36.5 -15t14.5 -37q0 -23 -15 -37.5t-37 -14.5q-23 0 -37 14.5t-14 37.5z" />
    <glyph glyph-name="divide" unicode="&#xf7;" 
d="M213 139q0 24 15.5 40.5t39.5 16.5q26 0 42 -15.5t16 -40.5q0 -26 -15.5 -43t-40.5 -17q-27 0 -42 16t-15 43zM213 500q0 25 15.5 41.5t39.5 16.5q26 0 42 -15.5t16 -41.5t-15.5 -42.5t-40.5 -16.5q-27 0 -42 15.5t-15 42.5zM470 351v-65h-405v65h405z" />
    <glyph glyph-name="oslash" unicode="&#xf8;" horiz-adv-x="520" 
d="M121 -77l-52 28l44 86q-67 69 -67 215q0 74 20 127t54.5 80.5t70.5 39.5t77 12q48 0 83 -14l41 79l53 -27l-43 -82q71 -62 71 -204q0 -139 -61 -208t-161 -69q-49 0 -89 17zM258 46q68 0 102 56t34 144q0 96 -30 147l-171 -330q26 -17 65 -17zM262 450q-68 0 -103 -51.5
t-35 -136.5q0 -99 27 -152l169 327q-26 13 -58 13z" />
    <glyph glyph-name="ugrave" unicode="&#xf9;" horiz-adv-x="537" 
d="M386 497h77v-424l7 -73h-69l-8 68h-2q-53 -82 -157 -82q-161 0 -161 171v340h78v-318q0 -64 21 -98t82 -34q51 0 91.5 38t40.5 82v330zM221 771l109 -181l-31 -25q-78 70 -120 118q-22 25 -22 41q0 31 64 47z" />
    <glyph glyph-name="uacute" unicode="&#xfa;" horiz-adv-x="537" 
d="M386 497h77v-424l7 -73h-69l-8 68h-2q-53 -82 -157 -82q-161 0 -161 171v340h78v-318q0 -64 21 -98t82 -34q51 0 91.5 38t40.5 82v330zM203 590l110 181q62 -16 62 -45q0 -17 -22 -42q-28 -32 -119 -119z" />
    <glyph glyph-name="ucircumflex" unicode="&#xfb;" horiz-adv-x="537" 
d="M386 497h77v-424l7 -73h-69l-8 68h-2q-53 -82 -157 -82q-161 0 -161 171v340h78v-318q0 -64 21 -98t82 -34q51 0 91.5 38t40.5 82v330zM154 585l-31 24q55 81 97 134q21 27 45 27q26 0 47 -26q56 -72 96 -135l-31 -25l-112 102z" />
    <glyph glyph-name="udieresis" unicode="&#xfc;" horiz-adv-x="537" 
d="M386 497h77v-424l7 -73h-69l-8 68h-2q-53 -82 -157 -82q-161 0 -161 171v340h78v-318q0 -64 21 -98t82 -34q51 0 91.5 38t40.5 82v330zM307 652q0 23 14.5 37.5t37.5 14.5q22 0 36.5 -15t14.5 -37q0 -23 -15 -37.5t-37 -14.5q-23 0 -37 14.5t-14 37.5zM127 652
q0 23 14.5 37.5t37.5 14.5q22 0 36.5 -15t14.5 -37q0 -23 -15 -37.5t-37 -14.5q-23 0 -37 14.5t-14 37.5z" />
    <glyph glyph-name="yacute" unicode="&#xfd;" horiz-adv-x="534" 
d="M197 590l110 181q62 -16 62 -45q0 -17 -22 -42q-28 -32 -119 -119zM386 497h77v-526q0 -93 -59 -144t-165 -51q-74 0 -151 29l19 59q63 -28 134 -28q145 0 145 132v93h-2q-53 -75 -150 -75q-161 0 -161 171v340h78v-320q0 -64 21 -98t82 -34q51 0 91.5 38t40.5 82v332z
" />
    <glyph glyph-name="thorn" unicode="&#xfe;" horiz-adv-x="528" 
d="M150 22v-232h-78v905h78v-198q62 14 112 14q218 0 218 -259q0 -129 -53.5 -199t-148.5 -70q-71 0 -128 39zM402 242q0 45 -5.5 78.5t-20.5 64.5t-46.5 47.5t-77.5 16.5q-57 0 -102 -16v-341q21 -20 56.5 -34t66.5 -14q58 0 93.5 49t35.5 149z" />
    <glyph glyph-name="ydieresis" unicode="&#xff;" horiz-adv-x="534" 
d="M310 652q0 23 14.5 37.5t37.5 14.5q22 0 36.5 -15t14.5 -37q0 -23 -15 -37.5t-37 -14.5q-23 0 -37 14.5t-14 37.5zM130 652q0 23 14.5 37.5t37.5 14.5q22 0 36.5 -15t14.5 -37q0 -23 -15 -37.5t-37 -14.5q-23 0 -37 14.5t-14 37.5zM386 497h77v-526q0 -93 -59 -144
t-165 -51q-74 0 -151 29l19 59q63 -28 134 -28q145 0 145 132v93h-2q-53 -75 -150 -75q-161 0 -161 171v340h78v-320q0 -64 21 -98t82 -34q51 0 91.5 38t40.5 82v332z" />
    <glyph glyph-name="Amacron" unicode="&#x100;" horiz-adv-x="607" 
d="M98 0h-78l234 665h94l239 -665h-83l-73 205h-262zM299 594l-111 -325h224zM169 742v65h260v-65h-260z" />
    <glyph glyph-name="amacron" unicode="&#x101;" 
d="M462 479v-392l8 -87h-70l-6 59l-3 1q-51 -74 -146 -74q-101 0 -149.5 64t-48.5 177q0 135 64 209.5t187 74.5q79 0 164 -32zM385 158v275q-38 17 -100 17q-161 0 -161 -226q0 -49 10 -86.5t41 -65.5t80 -28q60 0 95 34.5t35 79.5zM147 619v65h260v-65h-260z" />
    <glyph glyph-name="Abreve" unicode="&#x102;" horiz-adv-x="607" 
d="M98 0h-78l234 665h94l239 -665h-83l-73 205h-262zM299 594l-111 -325h224zM400 856l57 -19q-38 -116 -162 -116q-123 0 -154 116l58 19q14 -40 38 -59t62 -19q39 0 62 17t39 61z" />
    <glyph glyph-name="abreve" unicode="&#x103;" 
d="M462 479v-392l8 -87h-70l-6 59l-3 1q-51 -74 -146 -74q-101 0 -149.5 64t-48.5 177q0 135 64 209.5t187 74.5q79 0 164 -32zM385 158v275q-38 17 -100 17q-161 0 -161 -226q0 -49 10 -86.5t41 -65.5t80 -28q60 0 95 34.5t35 79.5zM372 729l58 -11q-37 -134 -154 -134
q-120 0 -149 134l60 11q25 -87 92 -87q66 0 93 87z" />
    <glyph glyph-name="Aogonek" unicode="&#x104;" horiz-adv-x="607" 
d="M98 0h-78l234 665h94l239 -665q-37 -24 -62.5 -61.5t-25.5 -67.5q0 -47 42 -47q23 0 51 11l15 -49q-38 -22 -85 -22q-92 0 -92 88q0 67 74 148l-73 205h-262zM299 594l-111 -325h224z" />
    <glyph glyph-name="aogonek" unicode="&#x105;" 
d="M462 479v-392l8 -87q-30 -24 -51 -61t-21 -68q0 -47 42 -47q24 0 51 11l15 -49q-38 -22 -85 -22q-92 0 -92 88q0 75 71 148l-6 59l-3 1q-51 -74 -146 -74q-101 0 -149.5 64t-48.5 177q0 135 64 209.5t187 74.5q79 0 164 -32zM385 158v275q-38 17 -100 17
q-161 0 -161 -226q0 -49 10 -86.5t41 -65.5t80 -28q60 0 95 34.5t35 79.5z" />
    <glyph glyph-name="Cacute" unicode="&#x106;" horiz-adv-x="588" 
d="M345 55q88 0 170 73l43 -52q-93 -88 -217 -88q-135 0 -211 86.5t-76 257.5q0 92 26.5 162t70 108t93 56.5t103.5 18.5q138 0 216 -110l-56 -43q-72 85 -163 85q-96 0 -152.5 -73t-56.5 -199q0 -134 52.5 -208t157.5 -74zM253 749l152 148q49 -27 49 -52q0 -19 -33 -42
q-22 -15 -144 -87z" />
    <glyph glyph-name="cacute" unicode="&#x107;" horiz-adv-x="449" 
d="M275 50q65 0 123 46l33 -51q-65 -59 -162 -59q-108 0 -164.5 67.5t-56.5 195.5q0 72 20.5 126t54 82t69.5 41t74 13q114 0 173 -88l-52 -41q-49 65 -120 65q-64 0 -102.5 -49t-38.5 -146q0 -94 36 -148t113 -54zM193 590l110 181q62 -16 62 -45q0 -17 -22 -42
q-28 -32 -119 -119z" />
    <glyph glyph-name="Ccircumflex" unicode="&#x108;" horiz-adv-x="588" 
d="M345 55q88 0 170 73l43 -52q-93 -88 -217 -88q-135 0 -211 86.5t-76 257.5q0 92 26.5 162t70 108t93 56.5t103.5 18.5q138 0 216 -110l-56 -43q-72 85 -163 85q-96 0 -152.5 -73t-56.5 -199q0 -134 52.5 -208t157.5 -74zM220 716l-31 24q62 82 107 123q23 22 44 22
q24 0 44 -20q60 -60 109 -124l-31 -25l-122 88z" />
    <glyph glyph-name="ccircumflex" unicode="&#x109;" horiz-adv-x="449" 
d="M275 50q65 0 123 46l33 -51q-65 -59 -162 -59q-108 0 -164.5 67.5t-56.5 195.5q0 72 20.5 126t54 82t69.5 41t74 13q114 0 173 -88l-52 -41q-49 65 -120 65q-64 0 -102.5 -49t-38.5 -146q0 -94 36 -148t113 -54zM153 585l-31 24q55 81 97 134q21 27 45 27q26 0 47 -26
q56 -72 96 -135l-31 -25l-112 102z" />
    <glyph glyph-name="Cdotaccent" unicode="&#x10a;" horiz-adv-x="588" 
d="M345 55q88 0 170 73l43 -52q-93 -88 -217 -88q-135 0 -211 86.5t-76 257.5q0 92 26.5 162t70 108t93 56.5t103.5 18.5q138 0 216 -110l-56 -43q-72 85 -163 85q-96 0 -152.5 -73t-56.5 -199q0 -134 52.5 -208t157.5 -74zM281 786q0 22 15 37t37 15t37 -15t15 -37
q0 -23 -15 -38t-38 -15q-22 0 -36.5 15t-14.5 38z" />
    <glyph glyph-name="cdotaccent" unicode="&#x10b;" horiz-adv-x="449" 
d="M275 50q65 0 123 46l33 -51q-65 -59 -162 -59q-108 0 -164.5 67.5t-56.5 195.5q0 72 20.5 126t54 82t69.5 41t74 13q114 0 173 -88l-52 -41q-49 65 -120 65q-64 0 -102.5 -49t-38.5 -146q0 -94 36 -148t113 -54zM208 639q0 22 15 37t37 15t37 -15t15 -37q0 -23 -15 -38
t-38 -15q-22 0 -36.5 15t-14.5 38z" />
    <glyph glyph-name="Ccaron" unicode="&#x10c;" horiz-adv-x="588" 
d="M345 55q88 0 170 73l43 -52q-93 -88 -217 -88q-135 0 -211 86.5t-76 257.5q0 92 26.5 162t70 108t93 56.5t103.5 18.5q138 0 216 -110l-56 -43q-72 85 -163 85q-96 0 -152.5 -73t-56.5 -199q0 -134 52.5 -208t157.5 -74zM452 885l31 -24q-62 -82 -107 -123
q-23 -22 -44 -22q-24 0 -44 20q-60 60 -109 124l31 25l122 -88z" />
    <glyph glyph-name="ccaron" unicode="&#x10d;" horiz-adv-x="449" 
d="M275 50q65 0 123 46l33 -51q-65 -59 -162 -59q-108 0 -164.5 67.5t-56.5 195.5q0 72 20.5 126t54 82t69.5 41t74 13q114 0 173 -88l-52 -41q-49 65 -120 65q-64 0 -102.5 -49t-38.5 -146q0 -94 36 -148t113 -54zM369 769l31 -23q-54 -80 -97 -135q-22 -27 -46 -27t-46 26
q-50 65 -97 135l31 25l112 -102z" />
    <glyph glyph-name="Dcaron" unicode="&#x10e;" horiz-adv-x="642" 
d="M82 0v665h203q142 0 222.5 -78.5t80.5 -229.5q0 -96 -24 -167t-66.5 -111.5t-94 -59.5t-112.5 -19h-209zM161 601v-537h132q101 0 158 71t57 203q0 143 -61 203t-168 60h-118zM399 885l31 -24q-62 -82 -107 -123q-23 -22 -44 -22q-24 0 -44 20q-60 60 -109 124l31 25
l122 -88z" />
    <glyph glyph-name="dcaron" unicode="&#x10f;" horiz-adv-x="598" 
d="M282 511q51 0 103 -18v202h77v-605l8 -90h-69l-7 60l-4 1q-53 -75 -147 -75q-102 0 -148.5 69t-46.5 179q0 128 61.5 202.5t172.5 74.5zM385 153v274q-46 24 -106 24q-78 0 -116 -57t-38 -151q0 -197 130 -197q58 0 94 33t36 74zM543 689l1 -191l40 -7q30 93 38 159
q1 5 1 17q0 16 -8.5 22t-27.5 6q-18 0 -44 -6z" />
    <glyph glyph-name="Dcroat" unicode="&#x110;" horiz-adv-x="642" 
d="M7 302v66h75v297h203q142 0 222.5 -78.5t80.5 -229.5q0 -96 -24 -167t-66.5 -111.5t-94 -59.5t-112.5 -19h-209v302h-75zM161 601v-233h190v-66h-190v-238h132q101 0 158 71t57 203q0 143 -61 203t-168 60h-118z" />
    <glyph glyph-name="dcroat" unicode="&#x111;" 
d="M207 571v56h178v68h77v-68h63v-56h-63v-481l8 -90h-69l-7 60l-4 1q-53 -75 -147 -75q-102 0 -148.5 69t-46.5 179q0 127 61 197t173 70q51 0 103 -18v88h-178zM385 153v264q-46 24 -106 24q-79 0 -116.5 -53t-37.5 -145q0 -197 130 -197q58 0 94 33t36 74z" />
    <glyph glyph-name="Emacron" unicode="&#x112;" horiz-adv-x="493" 
d="M82 0v665h372v-68h-293v-224h252v-68h-252v-237h300v-68h-379zM133 742v65h260v-65h-260z" />
    <glyph glyph-name="emacron" unicode="&#x113;" horiz-adv-x="455" 
d="M280 511q-110 0 -171 -77t-61 -193q0 -118 55 -186.5t167 -68.5q95 0 163 57l-30 51q-62 -46 -128 -46q-73 0 -110 49t-40 119q4 0 12.5 -0.5t13.5 -0.5q44 0 85.5 6.5t87.5 23.5t74 53.5t28 88.5q0 56 -38.5 90t-107.5 34zM353 378q0 -32 -22 -54.5t-57.5 -32.5
t-66.5 -14.5t-62 -4.5q-4 0 -10.5 0.5t-9.5 0.5q3 70 40.5 125t110.5 55q34 0 55.5 -20t21.5 -55zM131 619v65h260v-65h-260z" />
    <glyph glyph-name="Ebreve" unicode="&#x114;" horiz-adv-x="493" 
d="M82 0v665h372v-68h-293v-224h252v-68h-252v-237h300v-68h-379zM365 856l57 -19q-38 -116 -162 -116q-123 0 -154 116l58 19q14 -40 38 -59t62 -19q39 0 62 17t39 61z" />
    <glyph glyph-name="ebreve" unicode="&#x115;" horiz-adv-x="455" 
d="M280 511q-110 0 -171 -77t-61 -193q0 -118 55 -186.5t167 -68.5q95 0 163 57l-30 51q-62 -46 -128 -46q-73 0 -110 49t-40 119q4 0 12.5 -0.5t13.5 -0.5q44 0 85.5 6.5t87.5 23.5t74 53.5t28 88.5q0 56 -38.5 90t-107.5 34zM353 378q0 -32 -22 -54.5t-57.5 -32.5
t-66.5 -14.5t-62 -4.5q-4 0 -10.5 0.5t-9.5 0.5q3 70 40.5 125t110.5 55q34 0 55.5 -20t21.5 -55zM353 729l58 -11q-37 -134 -154 -134q-120 0 -149 134l60 11q25 -87 92 -87q66 0 93 87z" />
    <glyph glyph-name="Edotaccent" unicode="&#x116;" horiz-adv-x="493" 
d="M82 0v665h372v-68h-293v-224h252v-68h-252v-237h300v-68h-379zM217 786q0 22 15 37t37 15t37 -15t15 -37q0 -23 -15 -38t-38 -15q-22 0 -36.5 15t-14.5 38z" />
    <glyph glyph-name="edotaccent" unicode="&#x117;" horiz-adv-x="455" 
d="M280 511q-110 0 -171 -77t-61 -193q0 -118 55 -186.5t167 -68.5q95 0 163 57l-30 51q-62 -46 -128 -46q-73 0 -110 49t-40 119q4 0 12.5 -0.5t13.5 -0.5q44 0 85.5 6.5t87.5 23.5t74 53.5t28 88.5q0 56 -38.5 90t-107.5 34zM353 378q0 -32 -22 -54.5t-57.5 -32.5
t-66.5 -14.5t-62 -4.5q-4 0 -10.5 0.5t-9.5 0.5q3 70 40.5 125t110.5 55q34 0 55.5 -20t21.5 -55zM211 639q0 22 15 37t37 15t37 -15t15 -37q0 -23 -15 -38t-38 -15q-22 0 -36.5 15t-14.5 38z" />
    <glyph glyph-name="Eogonek" unicode="&#x118;" horiz-adv-x="493" 
d="M82 0v665h372v-68h-293v-224h252v-68h-252v-237h300v-68q-56 -22 -84 -58t-28 -71q0 -47 42 -47q23 0 51 11l15 -49q-38 -22 -85 -22q-92 0 -92 88q0 81 85 148h-283z" />
    <glyph glyph-name="eogonek" unicode="&#x119;" horiz-adv-x="455" 
d="M280 511q69 0 107.5 -34t38.5 -90q0 -52 -28 -88.5t-74 -53.5t-87.5 -23.5t-85.5 -6.5q-5 0 -13.5 0.5t-12.5 0.5q3 -70 40 -119t110 -49q66 0 128 46l30 -51q-15 -13 -70 -49q-33 -22 -55.5 -56t-22.5 -67q0 -47 42 -47q23 0 51 11l15 -49q-38 -22 -85 -22q-92 0 -92 88
q0 68 60 134h-6q-112 0 -167 68.5t-55 186.5q0 116 61 193t171 77zM353 378q0 35 -21.5 55t-55.5 20q-73 0 -110.5 -55t-40.5 -125q3 0 9.5 -0.5t10.5 -0.5q31 0 62 4.5t66.5 14.5t57.5 32.5t22 54.5z" />
    <glyph glyph-name="Ecaron" unicode="&#x11a;" horiz-adv-x="493" 
d="M82 0v665h372v-68h-293v-224h252v-68h-252v-237h300v-68h-379zM385 885l31 -24q-62 -82 -107 -123q-23 -22 -44 -22q-24 0 -44 20q-60 60 -109 124l31 25l122 -88z" />
    <glyph glyph-name="ecaron" unicode="&#x11b;" horiz-adv-x="455" 
d="M280 511q-110 0 -171 -77t-61 -193q0 -118 55 -186.5t167 -68.5q95 0 163 57l-30 51q-62 -46 -128 -46q-73 0 -110 49t-40 119q4 0 12.5 -0.5t13.5 -0.5q44 0 85.5 6.5t87.5 23.5t74 53.5t28 88.5q0 56 -38.5 90t-107.5 34zM353 378q0 -32 -22 -54.5t-57.5 -32.5
t-66.5 -14.5t-62 -4.5q-4 0 -10.5 0.5t-9.5 0.5q3 70 40.5 125t110.5 55q34 0 55.5 -20t21.5 -55zM376 769l31 -23q-54 -80 -97 -135q-22 -27 -46 -27t-46 26q-50 65 -97 135l31 25l112 -102z" />
    <glyph glyph-name="Gcircumflex" unicode="&#x11c;" horiz-adv-x="621" 
d="M558 354v-305q-91 -61 -221 -61q-134 0 -208.5 86.5t-74.5 256.5q0 93 25 162.5t67 108t90 57t101 18.5q139 0 223 -108l-57 -45q-72 85 -167 85q-94 0 -147.5 -72.5t-53.5 -198.5q0 -285 209 -285q37 0 76.5 10.5t58.5 24.5v198h-151v68h230zM216 716l-31 24
q62 82 107 123q23 22 44 22q24 0 44 -20q60 -60 109 -124l-31 -25l-122 88z" />
    <glyph glyph-name="gcircumflex" unicode="&#x11d;" horiz-adv-x="536" 
d="M159 585l-31 24q55 81 97 134q21 27 45 27q26 0 47 -26q56 -72 96 -135l-31 -25l-112 102zM286 511q82 0 170 -35v-505q0 -93 -59 -144t-165 -51q-89 0 -169 37l22 58q65 -35 149 -35q144 0 144 132v80h-2q-55 -62 -143 -62q-91 0 -138 63.5t-47 186.5q0 130 63 202.5
t175 72.5zM379 148v284q-42 17 -88 17q-82 0 -124 -51.5t-42 -145.5q0 -42 3.5 -71.5t14.5 -64t38 -53t68 -18.5q58 0 94 32t36 71z" />
    <glyph glyph-name="Gbreve" unicode="&#x11e;" horiz-adv-x="621" 
d="M558 354v-305q-91 -61 -221 -61q-134 0 -208.5 86.5t-74.5 256.5q0 93 25 162.5t67 108t90 57t101 18.5q139 0 223 -108l-57 -45q-72 85 -167 85q-94 0 -147.5 -72.5t-53.5 -198.5q0 -285 209 -285q37 0 76.5 10.5t58.5 24.5v198h-151v68h230zM435 856l57 -19
q-38 -116 -162 -116q-123 0 -154 116l58 19q14 -40 38 -59t62 -19q39 0 62 17t39 61z" />
    <glyph glyph-name="gbreve" unicode="&#x11f;" horiz-adv-x="536" 
d="M372 729l58 -11q-37 -134 -154 -134q-120 0 -149 134l60 11q25 -87 92 -87q66 0 93 87zM286 511q82 0 170 -35v-505q0 -93 -59 -144t-165 -51q-89 0 -169 37l22 58q65 -35 149 -35q144 0 144 132v80h-2q-55 -62 -143 -62q-91 0 -138 63.5t-47 186.5q0 130 63 202.5
t175 72.5zM379 148v284q-42 17 -88 17q-82 0 -124 -51.5t-42 -145.5q0 -42 3.5 -71.5t14.5 -64t38 -53t68 -18.5q58 0 94 32t36 71z" />
    <glyph glyph-name="Gdotaccent" unicode="&#x120;" horiz-adv-x="621" 
d="M558 354v-305q-91 -61 -221 -61q-134 0 -208.5 86.5t-74.5 256.5q0 93 25 162.5t67 108t90 57t101 18.5q139 0 223 -108l-57 -45q-72 85 -167 85q-94 0 -147.5 -72.5t-53.5 -198.5q0 -285 209 -285q37 0 76.5 10.5t58.5 24.5v198h-151v68h230zM281 786q0 22 15 37t37 15
t37 -15t15 -37q0 -23 -15 -38t-38 -15q-22 0 -36.5 15t-14.5 38z" />
    <glyph glyph-name="gdotaccent" unicode="&#x121;" horiz-adv-x="536" 
d="M227 639q0 22 15 37t37 15t37 -15t15 -37q0 -23 -15 -38t-38 -15q-22 0 -36.5 15t-14.5 38zM286 511q82 0 170 -35v-505q0 -93 -59 -144t-165 -51q-89 0 -169 37l22 58q65 -35 149 -35q144 0 144 132v80h-2q-55 -62 -143 -62q-91 0 -138 63.5t-47 186.5q0 130 63 202.5
t175 72.5zM379 148v284q-42 17 -88 17q-82 0 -124 -51.5t-42 -145.5q0 -42 3.5 -71.5t14.5 -64t38 -53t68 -18.5q58 0 94 32t36 71z" />
    <glyph glyph-name="Gcommaaccent" unicode="&#x122;" horiz-adv-x="621" 
d="M558 354v-305q-91 -61 -221 -61q-134 0 -208.5 86.5t-74.5 256.5q0 93 25 162.5t67 108t90 57t101 18.5q139 0 223 -108l-57 -45q-72 85 -167 85q-94 0 -147.5 -72.5t-53.5 -198.5q0 -285 209 -285q37 0 76.5 10.5t58.5 24.5v198h-151v68h230zM304 -70l-58 -187l37 -18
q58 90 78 129q13 23 14 40q0 34 -71 36z" />
    <glyph glyph-name="gcommaaccent" unicode="&#x123;" horiz-adv-x="536" 
d="M357 763l-58 -187q-71 2 -71 36q1 17 14 40q20 39 78 129zM286 511q82 0 170 -35v-505q0 -93 -59 -144t-165 -51q-89 0 -169 37l22 58q65 -35 149 -35q144 0 144 132v80h-2q-55 -62 -143 -62q-91 0 -138 63.5t-47 186.5q0 130 63 202.5t175 72.5zM379 148v284
q-42 17 -88 17q-82 0 -124 -51.5t-42 -145.5q0 -42 3.5 -71.5t14.5 -64t38 -53t68 -18.5q58 0 94 32t36 71z" />
    <glyph glyph-name="Hcircumflex" unicode="&#x124;" horiz-adv-x="669" 
d="M508 665h79v-665h-79v312h-347v-312h-79v665h79v-284h347v284zM209 716l-31 24q62 82 107 123q23 22 44 22q24 0 44 -20q60 -60 109 -124l-31 -25l-122 88z" />
    <glyph glyph-name="hcircumflex" unicode="&#x125;" horiz-adv-x="534" 
d="M150 0h-77v695h77v-259q62 75 154 75q159 0 159 -172v-339h-78v318q0 62 -21 96.5t-81 34.5q-53 0 -93 -38.5t-40 -84.5v-326zM108 716l-31 24q62 82 107 123q23 22 44 22q24 0 44 -20q60 -60 109 -124l-31 -25l-122 88z" />
    <glyph glyph-name="Hbar" unicode="&#x126;" horiz-adv-x="667" 
d="M506 665h79v-118h70v-56h-70v-491h-79v312h-347v-312h-79v491h-70v56h70v118h79v-118h347v118zM159 381h347v110h-347v-110z" />
    <glyph glyph-name="hbar" unicode="&#x127;" horiz-adv-x="533" 
d="M8 571v56h63v68h78v-68h178v-56h-178v-142q60 74 153 74q159 0 159 -172v-331h-77v310q0 62 -21.5 97t-81.5 35q-53 0 -92.5 -38.5t-39.5 -85.5v-318h-78v571h-63z" />
    <glyph glyph-name="Itilde" unicode="&#x128;" horiz-adv-x="245" 
d="M162 0h-79v665h79v-665zM-7 739l-7 57q34 27 80 27q26 0 67.5 -12.5t62.5 -12.5q29 0 60 17l7 -60q-33 -18 -66 -18q-22 0 -68.5 11t-64.5 11q-34 0 -71 -20z" />
    <glyph glyph-name="itilde" unicode="&#x129;" horiz-adv-x="225" 
d="M153 0h-78v497h78v-497zM-17 618l-7 57q34 27 80 27q26 0 67.5 -12.5t62.5 -12.5q29 0 60 17l7 -60q-33 -18 -66 -18q-22 0 -68.5 11t-64.5 11q-37 0 -71 -20z" />
    <glyph glyph-name="Imacron" unicode="&#x12a;" horiz-adv-x="245" 
d="M162 0h-79v665h79v-665zM-7 742v65h260v-65h-260z" />
    <glyph glyph-name="imacron" unicode="&#x12b;" horiz-adv-x="225" 
d="M153 0h-78v497h78v-497zM-16 619v65h260v-65h-260z" />
    <glyph glyph-name="Ibreve" unicode="&#x12c;" horiz-adv-x="245" 
d="M162 0h-79v665h79v-665zM223 856l57 -19q-38 -116 -162 -116q-123 0 -154 116l58 19q14 -40 38 -59t62 -19q39 0 62 17t39 61z" />
    <glyph glyph-name="ibreve" unicode="&#x12d;" horiz-adv-x="225" 
d="M153 0h-78v497h78v-497zM208 729l58 -11q-37 -134 -154 -134q-120 0 -149 134l60 11q25 -87 92 -87q66 0 93 87z" />
    <glyph glyph-name="Iogonek" unicode="&#x12e;" horiz-adv-x="245" 
d="M162 0q-33 -24 -56.5 -61.5t-23.5 -67.5q0 -47 42 -47q24 0 51 11l15 -49q-38 -22 -85 -22q-92 0 -92 88q0 66 70 148v665h79v-665z" />
    <glyph glyph-name="iogonek" unicode="&#x12f;" horiz-adv-x="225" 
d="M153 0q-33 -24 -56.5 -61.5t-23.5 -67.5q0 -47 42 -47q23 0 51 11l15 -49q-38 -22 -85 -22q-92 0 -92 88q0 77 71 148v497h78v-497zM62 639q0 22 15 37t37 15t37 -15t15 -37q0 -23 -15 -38t-38 -15q-22 0 -36.5 15t-14.5 38z" />
    <glyph glyph-name="Idotaccent" unicode="&#x130;" horiz-adv-x="245" 
d="M162 0h-79v665h79v-665zM71 786q0 22 15 37t37 15t37 -15t15 -37q0 -23 -15 -38t-38 -15q-22 0 -36.5 15t-14.5 38z" />
    <glyph glyph-name="dotlessi" unicode="&#x131;" horiz-adv-x="225" 
d="M153 0h-78v497h78v-497z" />
    <glyph glyph-name="IJ" unicode="&#x132;" horiz-adv-x="663" 
d="M162 0h-79v665h79v-665zM256 45l40 56q59 -46 115 -46q92 0 92 102v508h79v-414q0 -75 -2 -111q-6 -152 -166 -152q-53 0 -95.5 17.5t-62.5 39.5z" />
    <glyph glyph-name="ij" unicode="&#x133;" horiz-adv-x="450" 
d="M153 0h-78v497h78v-497zM62 639q0 22 15 37t37 15t37 -15t15 -37q0 -23 -15 -38t-38 -15q-22 0 -36.5 15t-14.5 38zM300 -61v558h78v-540q0 -34 -1.5 -56t-9 -48t-21.5 -40.5t-40 -25t-63 -10.5q-72 0 -117 30l25 57q42 -24 83 -24q35 0 50.5 22t15.5 77zM289 639
q0 22 15 37t37 15t37 -15t15 -37q0 -23 -15 -38t-38 -15q-22 0 -36.5 15t-14.5 38z" />
    <glyph glyph-name="Jcircumflex" unicode="&#x134;" horiz-adv-x="418" 
d="M11 45l40 56q59 -46 115 -46q92 0 92 102v508h79v-414q0 -75 -2 -111q-6 -152 -166 -152q-53 0 -95.5 17.5t-62.5 39.5zM178 716l-31 24q62 82 107 123q23 22 44 22q24 0 44 -20q60 -60 109 -124l-31 -25l-122 88z" />
    <glyph glyph-name="jcircumflex" unicode="&#x135;" horiz-adv-x="225" 
d="M75 -61v558h78v-540q0 -34 -1.5 -56t-9 -48t-21.5 -40.5t-40 -25t-63 -10.5q-72 0 -117 30l25 57q42 -24 83 -24q35 0 50.5 22t15.5 77zM2 585l-31 24q55 81 97 134q21 27 45 27q26 0 47 -26q56 -72 96 -135l-31 -25l-112 102z" />
    <glyph glyph-name="Kcommaaccent" unicode="&#x136;" horiz-adv-x="566" 
d="M534 665l-191 -261l211 -404h-89l-177 339l-128 -169v-170h-78v665h78v-388l286 388h88zM267 -70l-58 -187l37 -18q58 90 78 129q13 23 14 40q0 34 -71 36z" />
    <glyph glyph-name="kcommaaccent" unicode="&#x137;" horiz-adv-x="480" 
d="M450 392q0 -50 -30 -103t-96 -85l124 -204h-91l-107 179q-48 -10 -98 -10v-169h-78v695h78v-324q22 57 69.5 98.5t110.5 41.5q51 0 84.5 -30.5t33.5 -88.5zM372 384q0 30 -15 46t-41 16q-54 0 -103 -70t-61 -150q102 -2 161 40.5t59 117.5zM215 -70l-58 -187l37 -18
q58 90 78 129q13 23 14 40q0 34 -71 36z" />
    <glyph glyph-name="kgreenlandic" unicode="&#x138;" horiz-adv-x="469" 
d="M364 -8l-127 214q-35 -13 -85 -19v-187h-78v497h78v-126q22 58 67.5 99t107.5 41q48 0 79.5 -27.5t31.5 -78.5t-33.5 -97.5t-93.5 -77.5l144 -238h-91zM360 396q0 50 -50 50t-95.5 -66.5t-62.5 -135.5q79 9 143.5 51.5t64.5 100.5z" />
    <glyph glyph-name="Lacute" unicode="&#x139;" horiz-adv-x="487" 
d="M84 0v665h78v-597h297v-68h-375zM60 749l152 148q49 -27 49 -52q0 -19 -33 -42q-22 -15 -144 -87z" />
    <glyph glyph-name="lacute" unicode="&#x13a;" horiz-adv-x="302" 
d="M75 695h77v-555q0 -51 13 -71.5t50 -20.5q33 0 67 17l18 -54q-38 -25 -102 -25q-34 0 -58 9t-36 21.5t-19 34t-8.5 38t-1.5 40.5v566zM50 754l152 148q49 -27 49 -52q0 -19 -33 -42q-22 -15 -144 -87z" />
    <glyph glyph-name="Lcommaaccent" unicode="&#x13b;" horiz-adv-x="487" 
d="M84 0v665h78v-597h297v-68h-375zM232 -70l-58 -187l37 -18q58 90 78 129q13 23 14 40q0 34 -71 36z" />
    <glyph glyph-name="lcommaaccent" unicode="&#x13c;" horiz-adv-x="302" 
d="M75 695h77v-555q0 -51 13 -71.5t50 -20.5q33 0 67 17l18 -54q-38 -25 -102 -25q-34 0 -58 9t-36 21.5t-19 34t-8.5 38t-1.5 40.5v566zM153 -70l-58 -187l37 -18q58 90 78 129q13 23 14 40q0 34 -71 36z" />
    <glyph glyph-name="Lcaron" unicode="&#x13d;" horiz-adv-x="487" 
d="M84 0v665h78v-597h297v-68h-375zM306 659l1 -191l40 -7q30 93 38 159q1 5 1 17q0 16 -8.5 22t-27.5 6q-18 0 -44 -6z" />
    <glyph glyph-name="lcaron" unicode="&#x13e;" horiz-adv-x="302" 
d="M75 695h77v-555q0 -51 13 -71.5t50 -20.5q33 0 67 17l18 -54q-38 -25 -102 -25q-34 0 -58 9t-36 21.5t-19 34t-8.5 38t-1.5 40.5v566zM223 500l-1 191q26 6 44 6q19 0 27.5 -6t8.5 -22q0 -12 -1 -17q-8 -66 -38 -159z" />
    <glyph glyph-name="Ldot" unicode="&#x13f;" horiz-adv-x="487" 
d="M84 0v665h78v-597h297v-68h-375zM298 357q0 22 15 37t37 15t37 -15t15 -37q0 -23 -15 -38t-38 -15q-22 0 -36.5 15t-14.5 38z" />
    <glyph glyph-name="ldot" unicode="&#x140;" horiz-adv-x="338" 
d="M75 695h77v-555q0 -51 13 -71.5t50 -20.5q33 0 67 17l18 -54q-38 -25 -102 -25q-34 0 -58 9t-36 21.5t-19 34t-8.5 38t-1.5 40.5v566zM238 355q0 22 15 37t37 15t37 -15t15 -37q0 -23 -15 -38t-38 -15q-22 0 -36.5 15t-14.5 38z" />
    <glyph glyph-name="Lslash" unicode="&#x141;" horiz-adv-x="487" 
d="M11 220l-27 56l100 54v335h78v-298l194 100l27 -56l-221 -114v-229h297v-68h-375v259z" />
    <glyph glyph-name="lslash" unicode="&#x142;" horiz-adv-x="337" 
d="M110 695h77v-285l104 82l33 -48l-137 -107v-197q0 -51 13 -71.5t50 -20.5q33 0 67 17l18 -54q-37 -25 -102 -25q-34 0 -58 9t-36 21.5t-19 34t-8.5 38t-1.5 40.5v154l-77 -61l-33 48l110 87v338z" />
    <glyph glyph-name="Nacute" unicode="&#x143;" horiz-adv-x="668" 
d="M508 665h78v-665h-86l-339 556h-1v-556h-78v665h92l333 -548h1v548zM254 749l152 148q49 -27 49 -52q0 -19 -33 -42q-22 -15 -144 -87z" />
    <glyph glyph-name="nacute" unicode="&#x144;" horiz-adv-x="536" 
d="M152 0h-78v422l-5 75h67l9 -72q58 86 161 86q78 0 118.5 -43.5t40.5 -128.5v-339h-78v315q0 64 -21 99t-79 35q-56 0 -95.5 -38t-39.5 -85v-326zM204 590l110 181q62 -16 62 -45q0 -17 -22 -42q-28 -32 -119 -119z" />
    <glyph glyph-name="Ncommaaccent" unicode="&#x145;" horiz-adv-x="668" 
d="M508 665h78v-665h-86l-339 556h-1v-556h-78v665h92l333 -548h1v548zM309 -70l-58 -187l37 -18q58 90 78 129q13 23 14 40q0 34 -71 36z" />
    <glyph glyph-name="ncommaaccent" unicode="&#x146;" horiz-adv-x="536" 
d="M152 0h-78v422l-5 75h67l9 -72q58 86 161 86q78 0 118.5 -43.5t40.5 -128.5v-339h-78v315q0 64 -21 99t-79 35q-56 0 -95.5 -38t-39.5 -85v-326zM246 -70l-58 -187l37 -18q58 90 78 129q13 23 14 40q0 34 -71 36z" />
    <glyph glyph-name="Ncaron" unicode="&#x147;" horiz-adv-x="668" 
d="M508 665h78v-665h-86l-339 556h-1v-556h-78v665h92l333 -548h1v548zM451 885l31 -24q-62 -82 -107 -123q-23 -22 -44 -22q-24 0 -44 20q-60 60 -109 124l31 25l122 -88z" />
    <glyph glyph-name="ncaron" unicode="&#x148;" horiz-adv-x="536" 
d="M152 0h-78v422l-5 75h67l9 -72q58 86 161 86q78 0 118.5 -43.5t40.5 -128.5v-339h-78v315q0 64 -21 99t-79 35q-56 0 -95.5 -38t-39.5 -85v-326zM386 769l31 -23q-54 -80 -97 -135q-22 -27 -46 -27t-46 26q-50 65 -97 135l31 25l112 -102z" />
    <glyph glyph-name="napostrophe" unicode="&#x149;" horiz-adv-x="536" 
d="M152 0h-78v422l-5 75h67l9 -72q58 86 161 86q78 0 118.5 -43.5t40.5 -128.5v-339h-78v315q0 64 -21 99t-79 35q-56 0 -95.5 -38t-39.5 -85v-326zM31 570l35 192q20 2 33 2q21 -1 31 -6t10 -20t-8 -39q-22 -62 -65 -141z" />
    <glyph glyph-name="Eng" unicode="&#x14a;" horiz-adv-x="662" 
d="M504 665h78v-713q0 -80 -35 -122.5t-123 -42.5q-47 0 -90 17.5t-63 38.5l39 52q52 -43 113 -43q82 0 82 101v34l-348 569h-1v-556h-78v665h92l333 -548h1v548z" />
    <glyph glyph-name="eng" unicode="&#x14b;" horiz-adv-x="529" 
d="M145 0h-78v422l-6 75h67l10 -72q28 41 71 63.5t90 22.5q158 0 158 -172v-388q0 -34 -1.5 -55.5t-9 -46.5t-21.5 -39t-39 -23.5t-61 -9.5q-74 0 -119 30l23 57q43 -24 87 -24q34 0 49 20.5t15 74.5v380q0 65 -21.5 100t-81.5 35q-52 0 -92 -39t-40 -85v-326z" />
    <glyph glyph-name="Omacron" unicode="&#x14c;" horiz-adv-x="661" 
d="M607 331q0 -168 -74 -255.5t-205 -87.5q-130 0 -202 87.5t-72 255.5q0 92 25 161.5t66.5 108.5t90 57.5t102.5 18.5q119 0 194 -83.5t75 -262.5zM135 334q0 -279 201 -279q52 0 90.5 23t59.5 63t30.5 86.5t9.5 100.5q0 49 -9 94.5t-29 89.5t-59.5 70.5t-93.5 26.5
q-69 0 -116 -41.5t-65.5 -101t-18.5 -132.5zM203 742v65h260v-65h-260z" />
    <glyph glyph-name="omacron" unicode="&#x14d;" horiz-adv-x="520" 
d="M258 46q-134 0 -134 216q0 85 35 136.5t103 51.5q132 0 132 -204q0 -88 -34 -144t-102 -56zM46 252q0 -132 54 -199t151 -67q100 0 161 69t61 208q0 64 -15 112t-36.5 73t-52 40t-53.5 19t-48 4q-41 0 -77 -12t-70.5 -39.5t-54.5 -80.5t-20 -127zM133 619v65h260v-65
h-260z" />
    <glyph glyph-name="Obreve" unicode="&#x14e;" horiz-adv-x="661" 
d="M607 331q0 -168 -74 -255.5t-205 -87.5q-130 0 -202 87.5t-72 255.5q0 92 25 161.5t66.5 108.5t90 57.5t102.5 18.5q119 0 194 -83.5t75 -262.5zM135 334q0 -279 201 -279q52 0 90.5 23t59.5 63t30.5 86.5t9.5 100.5q0 49 -9 94.5t-29 89.5t-59.5 70.5t-93.5 26.5
q-69 0 -116 -41.5t-65.5 -101t-18.5 -132.5zM435 856l57 -19q-38 -116 -162 -116q-123 0 -154 116l58 19q14 -40 38 -59t62 -19q39 0 62 17t39 61z" />
    <glyph glyph-name="obreve" unicode="&#x14f;" horiz-adv-x="520" 
d="M258 46q-134 0 -134 216q0 85 35 136.5t103 51.5q132 0 132 -204q0 -88 -34 -144t-102 -56zM46 252q0 -132 54 -199t151 -67q100 0 161 69t61 208q0 64 -15 112t-36.5 73t-52 40t-53.5 19t-48 4q-41 0 -77 -12t-70.5 -39.5t-54.5 -80.5t-20 -127zM356 729l58 -11
q-37 -134 -154 -134q-120 0 -149 134l60 11q25 -87 92 -87q66 0 93 87z" />
    <glyph glyph-name="Ohungarumlaut" unicode="&#x150;" horiz-adv-x="661" 
d="M607 331q0 -168 -74 -255.5t-205 -87.5q-130 0 -202 87.5t-72 255.5q0 92 25 161.5t66.5 108.5t90 57.5t102.5 18.5q119 0 194 -83.5t75 -262.5zM135 334q0 -279 201 -279q52 0 90.5 23t59.5 63t30.5 86.5t9.5 100.5q0 49 -9 94.5t-29 89.5t-59.5 70.5t-93.5 26.5
q-69 0 -116 -41.5t-65.5 -101t-18.5 -132.5zM187 739l157 144q47 -30 47 -53q0 -18 -34 -41q-22 -15 -147 -83zM374 739l156 144q47 -30 47 -53q0 -20 -34 -41q-48 -29 -146 -83z" />
    <glyph glyph-name="ohungarumlaut" unicode="&#x151;" horiz-adv-x="520" 
d="M258 46q68 0 102 56t34 144q0 204 -132 204q-68 0 -103 -51.5t-35 -136.5q0 -216 134 -216zM46 252q0 74 20 127t54.5 80.5t70.5 39.5t77 12q25 0 48 -4t53.5 -19t52 -40t36.5 -73t15 -112q0 -139 -61 -208t-161 -69q-97 0 -151 67t-54 199zM137 590l110 181
q62 -15 62 -45q0 -17 -22 -42q-34 -38 -118 -119zM288 590l109 181q62 -15 62 -45q0 -17 -22 -42q-34 -38 -118 -119z" />
    <glyph glyph-name="OE" unicode="&#x152;" horiz-adv-x="857" 
d="M354 677q45 0 96 -12h369v-68h-294v-224h252v-68h-252v-237h301v-68h-377q-58 -13 -105 -13q-137 0 -213.5 88t-76.5 256q0 92 26 161.5t70.5 108.5t95.5 57.5t108 18.5zM135 334q0 -54 10 -100.5t33.5 -88.5t68 -66.5t107.5 -24.5q54 0 92 16v520q-43 19 -92 19
q-75 0 -126 -41.5t-72 -101.5t-21 -132z" />
    <glyph glyph-name="oe" unicode="&#x153;" horiz-adv-x="799" 
d="M624 511q69 0 107 -33.5t38 -90.5q0 -46 -23.5 -80.5t-57 -51.5t-77.5 -27t-77 -11.5t-65 -0.5q3 -70 39.5 -119t110.5 -49q68 0 127 46l30 -53q-65 -55 -162 -55q-136 0 -186 111q-25 -54 -72 -82.5t-106 -28.5q-96 0 -149 66.5t-53 198.5q0 74 20 127.5t53.5 81
t69.5 39.5t76 12q127 0 171 -114q26 54 74.5 84t111.5 30zM260 46q68 0 102 55.5t34 143.5q0 205 -132 205q-68 0 -103 -52t-35 -137q0 -215 134 -215zM696 378q0 35 -21 55t-55 20q-73 0 -111 -56t-41 -126q26 -1 59.5 2t74 12.5t67.5 33.5t27 59z" />
    <glyph glyph-name="Racute" unicode="&#x154;" horiz-adv-x="585" 
d="M161 273v-273h-79v665h211q226 0 226 -179q0 -77 -37 -121.5t-89 -61.5q25 -7 37 -20.5t27 -47.5l108 -235h-84l-98 209q-15 31 -32 47.5t-45 16.5h-145zM161 337h130q68 0 107.5 37.5t39.5 105.5q0 77 -43 99t-147 22h-87v-264zM204 749l152 148q49 -27 49 -52
q0 -19 -33 -42q-22 -15 -144 -87z" />
    <glyph glyph-name="racute" unicode="&#x155;" horiz-adv-x="346" 
d="M152 317v-317h-77v429l-6 68h67l9 -72q37 86 125 86q49 0 79 -19l-24 -69q-36 19 -65 19q-46 0 -76 -36.5t-32 -88.5zM146 590l110 181q62 -16 62 -45q0 -17 -22 -42q-28 -32 -119 -119z" />
    <glyph glyph-name="Rcommaaccent" unicode="&#x156;" horiz-adv-x="585" 
d="M161 273v-273h-79v665h211q226 0 226 -179q0 -77 -37 -121.5t-89 -61.5q25 -7 37 -20.5t27 -47.5l108 -235h-84l-98 209q-15 31 -32 47.5t-45 16.5h-145zM161 337h130q68 0 107.5 37.5t39.5 105.5q0 77 -43 99t-147 22h-87v-264zM263 -70l-58 -187l37 -18q58 90 78 129
q13 23 14 40q0 34 -71 36z" />
    <glyph glyph-name="rcommaaccent" unicode="&#x157;" horiz-adv-x="346" 
d="M152 317v-317h-77v429l-6 68h67l9 -72q37 86 125 86q49 0 79 -19l-24 -69q-36 19 -65 19q-46 0 -76 -36.5t-32 -88.5zM103 -70l-58 -187l37 -18q58 90 78 129q13 23 14 40q0 34 -71 36z" />
    <glyph glyph-name="Rcaron" unicode="&#x158;" horiz-adv-x="585" 
d="M161 273v-273h-79v665h211q226 0 226 -179q0 -77 -37 -121.5t-89 -61.5q25 -7 37 -20.5t27 -47.5l108 -235h-84l-98 209q-15 31 -32 47.5t-45 16.5h-145zM161 337h130q68 0 107.5 37.5t39.5 105.5q0 77 -43 99t-147 22h-87v-264zM385 885l31 -24q-62 -82 -107 -123
q-23 -22 -44 -22q-24 0 -44 20q-60 60 -109 124l31 25l122 -88z" />
    <glyph glyph-name="rcaron" unicode="&#x159;" horiz-adv-x="346" 
d="M152 317v-317h-77v429l-6 68h67l9 -72q37 86 125 86q49 0 79 -19l-24 -69q-36 19 -65 19q-46 0 -76 -36.5t-32 -88.5zM307 769l31 -23q-54 -80 -97 -135q-22 -27 -46 -27t-46 26q-50 65 -97 135l31 25l112 -102z" />
    <glyph glyph-name="Sacute" unicode="&#x15a;" horiz-adv-x="532" 
d="M44 49l33 65q84 -57 181 -57q140 0 140 123q0 54 -38 81t-112 47q-43 12 -71.5 23.5t-58.5 32t-45 53t-15 76.5q0 83 58.5 133.5t152.5 50.5q64 0 121 -25.5t95 -63.5l-44 -53q-86 74 -173 74q-51 0 -89.5 -25.5t-38.5 -82.5q0 -53 37 -78.5t117 -49.5q34 -11 55.5 -19
t49 -24t43 -34t27 -47.5t11.5 -65.5q0 -93 -59 -144t-165 -51q-65 0 -126 20.5t-86 40.5zM183 749l152 148q49 -27 49 -52q0 -19 -33 -42q-22 -15 -144 -87z" />
    <glyph glyph-name="sacute" unicode="&#x15b;" horiz-adv-x="405" 
d="M30 34l30 56q64 -44 136 -44q44 0 71.5 21.5t27.5 63.5q0 40 -26 59t-77 31q-35 8 -58 16.5t-46.5 24.5t-35 41t-11.5 61q0 71 48.5 109t118.5 38q99 0 166 -67l-45 -46q-57 54 -124 54q-37 0 -64 -19.5t-27 -57.5q0 -21 7.5 -36t25.5 -25.5t31 -15t42 -13.5
q37 -11 56 -19t45 -24.5t38 -42t12 -61.5q0 -72 -48 -112t-126 -40q-55 0 -101 15.5t-66 32.5zM146 590l110 181q62 -16 62 -45q0 -17 -22 -42q-28 -32 -119 -119z" />
    <glyph glyph-name="Scircumflex" unicode="&#x15c;" horiz-adv-x="532" 
d="M44 49l33 65q84 -57 181 -57q140 0 140 123q0 54 -38 81t-112 47q-43 12 -71.5 23.5t-58.5 32t-45 53t-15 76.5q0 83 58.5 133.5t152.5 50.5q64 0 121 -25.5t95 -63.5l-44 -53q-86 74 -173 74q-51 0 -89.5 -25.5t-38.5 -82.5q0 -53 37 -78.5t117 -49.5q34 -11 55.5 -19
t49 -24t43 -34t27 -47.5t11.5 -65.5q0 -93 -59 -144t-165 -51q-65 0 -126 20.5t-86 40.5zM154 716l-31 24q62 82 107 123q23 22 44 22q24 0 44 -20q60 -60 109 -124l-31 -25l-122 88z" />
    <glyph glyph-name="scircumflex" unicode="&#x15d;" horiz-adv-x="405" 
d="M30 34l30 56q64 -44 136 -44q44 0 71.5 21.5t27.5 63.5q0 40 -26 59t-77 31q-35 8 -58 16.5t-46.5 24.5t-35 41t-11.5 61q0 71 48.5 109t118.5 38q99 0 166 -67l-45 -46q-57 54 -124 54q-37 0 -64 -19.5t-27 -57.5q0 -21 7.5 -36t25.5 -25.5t31 -15t42 -13.5
q37 -11 56 -19t45 -24.5t38 -42t12 -61.5q0 -72 -48 -112t-126 -40q-55 0 -101 15.5t-66 32.5zM102 585l-31 24q55 81 97 134q21 27 45 27q26 0 47 -26q56 -72 96 -135l-31 -25l-112 102z" />
    <glyph glyph-name="Scedilla" unicode="&#x15e;" horiz-adv-x="532" 
d="M44 49l33 65q84 -57 181 -57q140 0 140 123q0 54 -38 81t-112 47q-43 12 -71.5 23.5t-58.5 32t-45 53t-15 76.5q0 83 58.5 133.5t152.5 50.5q64 0 121 -25.5t95 -63.5l-44 -53q-86 74 -173 74q-51 0 -89.5 -25.5t-38.5 -82.5q0 -53 37 -78.5t117 -49.5q34 -11 55.5 -19
t49 -24t43 -34t27 -47.5t11.5 -65.5q0 -86 -50.5 -136t-142.5 -58l-16 -61q84 -5 84 -74q0 -43 -31 -66t-75 -23q-46 0 -82 18l13 42q39 -13 66 -13q51 0 51 40q0 22 -21.5 31t-67.5 9l30 97q-61 3 -116.5 22t-77.5 38z" />
    <glyph glyph-name="scedilla" unicode="&#x15f;" horiz-adv-x="405" 
d="M30 34l30 56q64 -44 136 -44q44 0 71.5 21.5t27.5 63.5q0 40 -26 59t-77 31q-35 8 -58 16.5t-46.5 24.5t-35 41t-11.5 61q0 71 48.5 109t118.5 38q99 0 166 -67l-45 -46q-57 54 -124 54q-37 0 -64 -19.5t-27 -57.5q0 -21 7.5 -36t25.5 -25.5t31 -15t42 -13.5
q37 -11 56 -19t45 -24.5t38 -42t12 -61.5q0 -63 -37.5 -102t-100.5 -47l-16 -61q84 -5 84 -74q0 -42 -30.5 -64.5t-75.5 -22.5q-46 0 -82 18l13 42q39 -13 66 -13q51 0 51 38q0 22 -21.5 31t-67.5 9l29 94q-50 2 -92.5 17t-60.5 31z" />
    <glyph glyph-name="Scaron" unicode="&#x160;" horiz-adv-x="532" 
d="M44 49l33 65q84 -57 181 -57q140 0 140 123q0 54 -38 81t-112 47q-43 12 -71.5 23.5t-58.5 32t-45 53t-15 76.5q0 83 58.5 133.5t152.5 50.5q64 0 121 -25.5t95 -63.5l-44 -53q-86 74 -173 74q-51 0 -89.5 -25.5t-38.5 -82.5q0 -53 37 -78.5t117 -49.5q34 -11 55.5 -19
t49 -24t43 -34t27 -47.5t11.5 -65.5q0 -93 -59 -144t-165 -51q-65 0 -126 20.5t-86 40.5zM393 885l31 -24q-62 -82 -107 -123q-23 -22 -44 -22q-24 0 -44 20q-60 60 -109 124l31 25l122 -88z" />
    <glyph glyph-name="scaron" unicode="&#x161;" horiz-adv-x="405" 
d="M30 34l30 56q64 -44 136 -44q44 0 71.5 21.5t27.5 63.5q0 40 -26 59t-77 31q-35 8 -58 16.5t-46.5 24.5t-35 41t-11.5 61q0 71 48.5 109t118.5 38q99 0 166 -67l-45 -46q-57 54 -124 54q-37 0 -64 -19.5t-27 -57.5q0 -21 7.5 -36t25.5 -25.5t31 -15t42 -13.5
q37 -11 56 -19t45 -24.5t38 -42t12 -61.5q0 -72 -48 -112t-126 -40q-55 0 -101 15.5t-66 32.5zM321 769l31 -23q-54 -80 -97 -135q-22 -27 -46 -27t-46 26q-50 65 -97 135l31 25l112 -102z" />
    <glyph glyph-name="uni0162" unicode="&#x162;" horiz-adv-x="503" 
d="M19 665h479v-68h-202v-597h-19l-19 -72q84 -5 84 -74q0 -42 -30.5 -64.5t-75.5 -22.5q-46 0 -82 18l13 42q39 -13 66 -13q51 0 51 38q0 22 -21.5 31t-67.5 9l34 108h-12v597h-198v68z" />
    <glyph glyph-name="uni0163" unicode="&#x163;" horiz-adv-x="321" 
d="M74 695h78v-198h142v-67h-142v-296q0 -48 18 -67.5t55 -19.5q35 0 76 24l23 -52q-42 -29 -101 -32l-15 -59q84 -5 84 -74q0 -42 -30.5 -64.5t-75.5 -22.5q-46 0 -82 18l13 42q39 -13 66 -13q51 0 51 38q0 22 -21.5 31t-67.5 9l30 96q-35 5 -57 18.5t-30.5 37t-11 42
t-2.5 50.5v559z" />
    <glyph glyph-name="Tcaron" unicode="&#x164;" horiz-adv-x="517" 
d="M19 665h479v-68h-202v-597h-79v597h-198v68zM376 885l31 -24q-62 -82 -107 -123q-23 -22 -44 -22q-24 0 -44 20q-60 60 -109 124l31 25l122 -88z" />
    <glyph glyph-name="tcaron" unicode="&#x165;" horiz-adv-x="333" 
d="M74 695h78v-198h142v-67h-142v-296q0 -48 18 -67.5t55 -19.5q35 0 76 24l23 -52q-48 -33 -113 -33q-38 0 -65 9.5t-41 22t-21 35t-8.5 39t-1.5 44.5v559zM255 571l-1 191q26 6 44 6q19 0 27.5 -6t8.5 -22q0 -12 -1 -17q-8 -66 -38 -159z" />
    <glyph glyph-name="Tbar" unicode="&#x166;" horiz-adv-x="495" 
d="M18 665h479v-68h-202v-229h135v-56h-135v-312h-78v312h-136v56h136v229h-199v68z" />
    <glyph glyph-name="tbar" unicode="&#x167;" horiz-adv-x="333" 
d="M74 695h78v-198h142v-67h-142v-120h142v-67h-142v-109q0 -48 18 -67.5t55 -19.5q35 0 76 24l23 -52q-48 -33 -113 -33q-38 0 -65 9.5t-41 22t-21 35t-8.5 39t-1.5 44.5v559z" />
    <glyph glyph-name="Utilde" unicode="&#x168;" horiz-adv-x="629" 
d="M77 665h79v-458q0 -152 162 -152q72 0 113.5 37t41.5 110v463h79v-478q0 -94 -65 -146.5t-174 -52.5q-119 0 -177.5 51.5t-58.5 165.5v460zM185 739l-7 57q34 27 80 27q26 0 67.5 -12.5t62.5 -12.5q29 0 60 17l7 -60q-33 -18 -66 -18q-22 0 -68.5 11t-64.5 11
q-34 0 -71 -20z" />
    <glyph glyph-name="utilde" unicode="&#x169;" horiz-adv-x="537" 
d="M386 497h77v-424l7 -73h-69l-8 68h-2q-53 -82 -157 -82q-161 0 -161 171v340h78v-318q0 -64 21 -98t82 -34q51 0 91.5 38t40.5 82v330zM140 618l-7 57q34 27 80 27q26 0 67.5 -12.5t62.5 -12.5q29 0 60 17l7 -60q-33 -18 -66 -18q-22 0 -68.5 11t-64.5 11q-37 0 -71 -20z
" />
    <glyph glyph-name="Umacron" unicode="&#x16a;" horiz-adv-x="629" 
d="M77 665h79v-458q0 -152 162 -152q72 0 113.5 37t41.5 110v463h79v-478q0 -94 -65 -146.5t-174 -52.5q-119 0 -177.5 51.5t-58.5 165.5v460zM187 742v65h260v-65h-260z" />
    <glyph glyph-name="umacron" unicode="&#x16b;" horiz-adv-x="537" 
d="M386 497h77v-424l7 -73h-69l-8 68h-2q-53 -82 -157 -82q-161 0 -161 171v340h78v-318q0 -64 21 -98t82 -34q51 0 91.5 38t40.5 82v330zM141 619v65h260v-65h-260z" />
    <glyph glyph-name="Ubreve" unicode="&#x16c;" horiz-adv-x="629" 
d="M77 665h79v-458q0 -152 162 -152q72 0 113.5 37t41.5 110v463h79v-478q0 -94 -65 -146.5t-174 -52.5q-119 0 -177.5 51.5t-58.5 165.5v460zM418 856l57 -19q-38 -116 -162 -116q-123 0 -154 116l58 19q14 -40 38 -59t62 -19q39 0 62 17t39 61z" />
    <glyph glyph-name="ubreve" unicode="&#x16d;" horiz-adv-x="537" 
d="M386 497h77v-424l7 -73h-69l-8 68h-2q-53 -82 -157 -82q-161 0 -161 171v340h78v-318q0 -64 21 -98t82 -34q51 0 91.5 38t40.5 82v330zM359 729l58 -11q-37 -134 -154 -134q-120 0 -149 134l60 11q25 -87 92 -87q66 0 93 87z" />
    <glyph glyph-name="Uring" unicode="&#x16e;" horiz-adv-x="629" 
d="M77 665h79v-458q0 -152 162 -152q72 0 113.5 37t41.5 110v463h79v-478q0 -94 -65 -146.5t-174 -52.5q-119 0 -177.5 51.5t-58.5 165.5v460zM230 784q0 38 23.5 62t62.5 24t62.5 -23t23.5 -58q0 -40 -24 -65t-64 -25q-39 0 -61.5 24t-22.5 61zM278 784q0 -45 38 -45t38 45
q0 46 -38 46t-38 -46z" />
    <glyph glyph-name="uring" unicode="&#x16f;" horiz-adv-x="537" 
d="M386 497h77v-424l7 -73h-69l-8 68h-2q-53 -82 -157 -82q-161 0 -161 171v340h78v-318q0 -64 21 -98t82 -34q51 0 91.5 38t40.5 82v330zM190 660q0 38 23.5 62t62.5 24t62.5 -23t23.5 -58q0 -40 -24 -65t-64 -25q-39 0 -61.5 24t-22.5 61zM238 660q0 -45 38 -45t38 45
q0 46 -38 46t-38 -46z" />
    <glyph glyph-name="Uhungarumlaut" unicode="&#x170;" horiz-adv-x="629" 
d="M77 665h79v-458q0 -152 162 -152q72 0 113.5 37t41.5 110v463h79v-478q0 -94 -65 -146.5t-174 -52.5q-119 0 -177.5 51.5t-58.5 165.5v460zM157 739l157 144q47 -30 47 -53q0 -18 -34 -41q-22 -15 -147 -83zM344 739l156 144q47 -30 47 -53q0 -20 -34 -41
q-48 -29 -146 -83z" />
    <glyph glyph-name="uhungarumlaut" unicode="&#x171;" horiz-adv-x="537" 
d="M386 497h77v-424l7 -73h-69l-8 68h-2q-53 -82 -157 -82q-161 0 -161 171v340h78v-318q0 -64 21 -98t82 -34q51 0 91.5 38t40.5 82v330zM135 590l110 181q62 -15 62 -45q0 -17 -22 -42q-34 -38 -118 -119zM286 590l109 181q62 -15 62 -45q0 -17 -22 -42q-34 -38 -118 -119
z" />
    <glyph glyph-name="Uogonek" unicode="&#x172;" horiz-adv-x="629" 
d="M77 665h79v-458q0 -152 162 -152q72 0 113.5 37t41.5 110v463h79v-478q0 -67 -34 -111t-99 -78q-33 -17 -55.5 -56t-22.5 -71q0 -47 42 -47q24 0 51 11l15 -49q-38 -22 -85 -22q-92 0 -92 88q0 69 62 137q-7 -1 -21 -1q-119 0 -177.5 51.5t-58.5 165.5v460z" />
    <glyph glyph-name="uogonek" unicode="&#x173;" horiz-adv-x="537" 
d="M386 497h77v-424l8 -72q-30 -24 -51 -61.5t-21 -68.5q0 -47 42 -47q23 0 51 11l15 -49q-38 -22 -85 -22q-92 0 -92 88q0 75 71 148l-8 68h-2q-53 -82 -157 -82q-161 0 -161 171v340h78v-318q0 -64 21 -98t82 -34q51 0 91.5 38t40.5 82v330z" />
    <glyph glyph-name="Wcircumflex" unicode="&#x174;" horiz-adv-x="819" 
d="M536 0l-127 499h-1l-124 -499h-100l-151 665h79l128 -569l126 514h88l128 -514h1l124 569h79l-151 -665h-99zM287 716l-31 24q62 82 107 123q23 22 44 22q24 0 44 -20q60 -60 109 -124l-31 -25l-122 88z" />
    <glyph glyph-name="wcircumflex" unicode="&#x175;" horiz-adv-x="790" 
d="M627 497h76q36 -122 36 -209q0 -302 -209 -302q-108 0 -133 96q-59 -96 -167 -96q-81 0 -119 41t-38 127v343h78v-302q0 -29 1 -46t6 -39t14 -33.5t26.5 -20t43.5 -8.5q51 0 87 37t36 86v326h78v-305q0 -34 2.5 -55t10.5 -44t27 -34t49 -11q131 0 131 236q0 82 -36 213z
M295 585l-31 24q55 81 97 134q21 27 45 27q26 0 47 -26q56 -72 96 -135l-31 -25l-112 102z" />
    <glyph glyph-name="Ycircumflex" unicode="&#x176;" horiz-adv-x="524" 
d="M518 665h-84l-167 -331l-171 331h-90l218 -412v-253h79v253zM140 716l-31 24q62 82 107 123q23 22 44 22q24 0 44 -20q60 -60 109 -124l-31 -25l-122 88z" />
    <glyph glyph-name="ycircumflex" unicode="&#x177;" horiz-adv-x="534" 
d="M157 585l-31 24q55 81 97 134q21 27 45 27q26 0 47 -26q56 -72 96 -135l-31 -25l-112 102zM386 497h77v-526q0 -93 -59 -144t-165 -51q-74 0 -151 29l19 59q63 -28 134 -28q145 0 145 132v93h-2q-53 -75 -150 -75q-161 0 -161 171v340h78v-320q0 -64 21 -98t82 -34
q51 0 91.5 38t40.5 82v332z" />
    <glyph glyph-name="Ydieresis" unicode="&#x178;" horiz-adv-x="524" 
d="M518 665h-84l-167 -331l-171 331h-90l218 -412v-253h79v253zM308 781q0 22 14.5 36.5t37.5 14.5q22 0 36.5 -14.5t14.5 -36.5q0 -23 -15 -37.5t-37 -14.5q-23 0 -37 14.5t-14 37.5zM120 781q0 22 14.5 36.5t37.5 14.5q22 0 36.5 -14.5t14.5 -36.5q0 -23 -15 -37.5
t-37 -14.5q-23 0 -37 14.5t-14 37.5z" />
    <glyph glyph-name="Zacute" unicode="&#x179;" horiz-adv-x="488" 
d="M450 600l-331 -536h342v-64h-429v64l330 537h-324v64h412v-65zM185 754l152 148q49 -27 49 -52q0 -19 -33 -42q-22 -15 -144 -87z" />
    <glyph glyph-name="GID566" unicode="&#x17a;" horiz-adv-x="422" 
d="M410 0h-384v52l280 383h-259v62h355v-47l-284 -388h292v-62zM175 590l110 181q62 -16 62 -45q0 -17 -22 -42q-28 -32 -119 -119z" />
    <glyph glyph-name="Zdotaccent" unicode="&#x17b;" horiz-adv-x="488" 
d="M450 600l-331 -536h342v-64h-429v64l330 537h-324v64h412v-65zM201 786q0 22 15 37t37 15t37 -15t15 -37q0 -23 -15 -38t-38 -15q-22 0 -36.5 15t-14.5 38z" />
    <glyph glyph-name="zdotaccent" unicode="&#x17c;" horiz-adv-x="422" 
d="M410 0h-384v52l280 383h-259v62h355v-47l-284 -388h292v-62zM172 639q0 22 15 37t37 15t37 -15t15 -37q0 -23 -15 -38t-38 -15q-22 0 -36.5 15t-14.5 38z" />
    <glyph glyph-name="Zcaron" unicode="&#x17d;" horiz-adv-x="488" 
d="M450 600l-331 -536h342v-64h-429v64l330 537h-324v64h412v-65zM374 885l31 -24q-62 -82 -107 -123q-23 -22 -44 -22q-24 0 -44 20q-60 60 -109 124l31 25l122 -88z" />
    <glyph glyph-name="zcaron" unicode="&#x17e;" horiz-adv-x="422" 
d="M410 0h-384v52l280 383h-259v62h355v-47l-284 -388h292v-62zM335 769l31 -23q-54 -80 -97 -135q-22 -27 -46 -27t-46 26q-50 65 -97 135l31 25l112 -102z" />
    <glyph glyph-name="longs" unicode="&#x17f;" horiz-adv-x="303" 
d="M145 546v-756h-78v754q0 168 161 168q29 0 65 -9t57 -20l-22 -56q-48 24 -98 24q-47 0 -66 -26.5t-19 -78.5z" />
    <glyph glyph-name="florin" unicode="&#x192;" horiz-adv-x="513" 
d="M87 326l10 63h102l14 82q16 96 52.5 141t127.5 45q65 0 126 -29l-26 -56q-53 24 -99 24q-45 0 -66.5 -22.5t-30.5 -70.5l-21 -114h156l-11 -63h-156l-59 -340q-9 -51 -19.5 -83.5t-30.5 -60t-52.5 -40t-80.5 -12.5q-64 0 -124 29l26 55q49 -23 99 -23q81 0 98 93l66 382
h-101z" />
    <glyph glyph-name="Scommaaccent" unicode="&#x218;" horiz-adv-x="532" 
d="M44 49l33 65q84 -57 181 -57q140 0 140 123q0 54 -38 81t-112 47q-43 12 -71.5 23.5t-58.5 32t-45 53t-15 76.5q0 83 58.5 133.5t152.5 50.5q64 0 121 -25.5t95 -63.5l-44 -53q-86 74 -173 74q-51 0 -89.5 -25.5t-38.5 -82.5q0 -53 37 -78.5t117 -49.5q34 -11 55.5 -19
t49 -24t43 -34t27 -47.5t11.5 -65.5q0 -93 -59 -144t-165 -51q-65 0 -126 20.5t-86 40.5zM236 -70l-58 -187l37 -18q58 90 78 129q13 23 14 40q0 34 -71 36z" />
    <glyph glyph-name="scommaaccent" unicode="&#x219;" horiz-adv-x="405" 
d="M30 34l30 56q64 -44 136 -44q44 0 71.5 21.5t27.5 63.5q0 40 -26 59t-77 31q-35 8 -58 16.5t-46.5 24.5t-35 41t-11.5 61q0 71 48.5 109t118.5 38q99 0 166 -67l-45 -46q-57 54 -124 54q-37 0 -64 -19.5t-27 -57.5q0 -21 7.5 -36t25.5 -25.5t31 -15t42 -13.5
q37 -11 56 -19t45 -24.5t38 -42t12 -61.5q0 -72 -48 -112t-126 -40q-55 0 -101 15.5t-66 32.5zM189 -70l-58 -187l37 -18q58 90 78 129q13 23 14 40q0 34 -71 36z" />
    <glyph glyph-name="uni021A" unicode="&#x21a;" horiz-adv-x="503" 
d="M19 665h479v-68h-202v-597h-79v597h-198v68zM217 -70l-58 -187l37 -18q58 90 78 129q13 23 14 40q0 34 -71 36z" />
    <glyph glyph-name="uni021B" unicode="&#x21b;" horiz-adv-x="321" 
d="M74 695h78v-198h142v-67h-142v-296q0 -48 18 -67.5t55 -19.5q35 0 76 24l23 -52q-48 -33 -113 -33q-38 0 -65 9.5t-41 22t-21 35t-8.5 39t-1.5 44.5v559zM157 -70l-58 -187l37 -18q58 90 78 129q13 23 14 40q0 34 -71 36z" />
    <glyph glyph-name="dotlessj" unicode="&#x237;" horiz-adv-x="225" 
d="M75 -61v558h78v-540q0 -34 -1.5 -56t-9 -48t-21.5 -40.5t-40 -25t-63 -10.5q-72 0 -117 30l25 57q42 -24 83 -24q35 0 50.5 22t15.5 77z" />
    <glyph glyph-name="apostrophe" unicode="&#x2bc;" horiz-adv-x="252" 
d="M87 577l35 192q20 2 33 2q21 -1 31 -6t10 -20t-8 -39q-22 -62 -65 -141z" />
    <glyph glyph-name="circumflex" unicode="&#x2c6;" horiz-adv-x="500" 
d="M137 585l-31 24q55 81 97 134q21 27 45 27q26 0 47 -26q56 -72 96 -135l-31 -25l-112 102z" />
    <glyph glyph-name="caron" unicode="&#x2c7;" horiz-adv-x="500" 
d="M356 769l31 -23q-54 -80 -97 -135q-22 -27 -46 -27t-46 26q-50 65 -97 135l31 25l112 -102z" />
    <glyph glyph-name="uni02C9" unicode="&#x2c9;" horiz-adv-x="500" 
d="M117 619v65h260v-65h-260z" />
    <glyph glyph-name="breve" unicode="&#x2d8;" horiz-adv-x="500" 
d="M347 729l58 -11q-37 -134 -154 -134q-120 0 -149 134l60 11q25 -87 92 -87q66 0 93 87z" />
    <glyph glyph-name="dotaccent" unicode="&#x2d9;" horiz-adv-x="500" 
d="M201 639q0 22 15 37t37 15t37 -15t15 -37q0 -23 -15 -38t-38 -15q-22 0 -36.5 15t-14.5 38z" />
    <glyph glyph-name="ring" unicode="&#x2da;" horiz-adv-x="500" 
d="M164 660q0 38 23.5 62t62.5 24t62.5 -23t23.5 -58q0 -40 -24 -65t-64 -25q-39 0 -61.5 24t-22.5 61zM212 660q0 -45 38 -45t38 45q0 46 -38 46t-38 -46z" />
    <glyph glyph-name="ogonek" unicode="&#x2db;" horiz-adv-x="500" 
d="M238 2l65 -1q-30 -24 -51 -61.5t-21 -68.5q0 -47 42 -47q23 0 51 11l15 -49q-38 -22 -85 -22q-92 0 -92 88q0 78 76 150z" />
    <glyph glyph-name="tilde" unicode="&#x2dc;" horiz-adv-x="500" 
d="M116 618l-7 57q34 27 80 27q26 0 67.5 -12.5t62.5 -12.5q29 0 60 17l7 -60q-33 -18 -66 -18q-22 0 -68.5 11t-64.5 11q-37 0 -71 -20z" />
    <glyph glyph-name="hungarumlaut" unicode="&#x2dd;" horiz-adv-x="500" 
d="M111 590l110 181q62 -15 62 -45q0 -17 -22 -42q-34 -38 -118 -119zM262 590l109 181q62 -15 62 -45q0 -17 -22 -42q-34 -38 -118 -119z" />
    <glyph glyph-name="uni0394" unicode="&#x394;" horiz-adv-x="664" 
d="M638 0h-613l267 657h82zM540 59l-208 529l-208 -529h416z" />
    <glyph glyph-name="uni03A9" unicode="&#x3a9;" horiz-adv-x="795" 
d="M83 335q0 146 90.5 234t221.5 88q139 0 223.5 -81.5t84.5 -224.5q0 -185 -140 -287h168v-64h-264v57q26 16 49.5 37t51 56t43.5 85.5t16 110.5q0 124 -65.5 184t-164.5 60q-102 0 -169.5 -66t-67.5 -188q0 -99 50.5 -170.5t118.5 -110.5v-55h-265v64h159
q-64 44 -102 113.5t-38 157.5z" />
    <glyph glyph-name="uni03BC" unicode="&#x3bc;" horiz-adv-x="589" 
d="M497 497v-419q0 -34 28 -34q16 0 48 16l15 -47q-39 -24 -83 -24q-74 0 -68 93q-48 -96 -148 -96q-87 0 -132 63v-265h-68v713h69v-298q0 -71 31 -113t96 -42q64 0 102.5 49t38.5 125v279h71z" />
    <glyph glyph-name="pi" unicode="&#x3c0;" horiz-adv-x="623" 
d="M583 438h-82v-343q0 -31 6 -43t27 -12q26 0 48 9l12 -47q-32 -16 -77 -16q-87 0 -87 89v363h-229v-438h-70v438h-83v59h535v-59z" />
    <glyph glyph-name="Wgrave" unicode="&#x1e80;" horiz-adv-x="819" 
d="M536 0l-127 499h-1l-124 -499h-100l-151 665h79l128 -569l126 514h88l128 -514h1l124 569h79l-151 -665h-99zM338 896l152 -147l-24 -33l-145 87q-32 23 -32 42q0 23 49 51z" />
    <glyph glyph-name="wgrave" unicode="&#x1e81;" horiz-adv-x="790" 
d="M627 497h76q36 -122 36 -209q0 -302 -209 -302q-108 0 -133 96q-59 -96 -167 -96q-81 0 -119 41t-38 127v343h78v-302q0 -29 1 -46t6 -39t14 -33.5t26.5 -20t43.5 -8.5q51 0 87 37t36 86v326h78v-305q0 -34 2.5 -55t10.5 -44t27 -34t49 -11q131 0 131 236q0 82 -36 213z
M362 771l109 -181l-31 -25q-78 70 -120 118q-22 25 -22 41q0 31 64 47z" />
    <glyph glyph-name="Wacute" unicode="&#x1e82;" horiz-adv-x="819" 
d="M536 0l-127 499h-1l-124 -499h-100l-151 665h79l128 -569l126 514h88l128 -514h1l124 569h79l-151 -665h-99zM330 749l152 148q49 -27 49 -52q0 -19 -33 -42q-22 -15 -144 -87z" />
    <glyph glyph-name="wacute" unicode="&#x1e83;" horiz-adv-x="790" 
d="M627 497h76q36 -122 36 -209q0 -302 -209 -302q-108 0 -133 96q-59 -96 -167 -96q-81 0 -119 41t-38 127v343h78v-302q0 -29 1 -46t6 -39t14 -33.5t26.5 -20t43.5 -8.5q51 0 87 37t36 86v326h78v-305q0 -34 2.5 -55t10.5 -44t27 -34t49 -11q131 0 131 236q0 82 -36 213z
M332 590l110 181q62 -16 62 -45q0 -17 -22 -42q-28 -32 -119 -119z" />
    <glyph glyph-name="Wdieresis" unicode="&#x1e84;" horiz-adv-x="819" 
d="M536 0l-127 499h-1l-124 -499h-100l-151 665h79l128 -569l126 514h88l128 -514h1l124 569h79l-151 -665h-99zM452 781q0 22 14.5 36.5t37.5 14.5q22 0 36.5 -14.5t14.5 -36.5q0 -23 -15 -37.5t-37 -14.5q-23 0 -37 14.5t-14 37.5zM264 781q0 22 14.5 36.5t37.5 14.5
q22 0 36.5 -14.5t14.5 -36.5q0 -23 -15 -37.5t-37 -14.5q-23 0 -37 14.5t-14 37.5z" />
    <glyph glyph-name="wdieresis" unicode="&#x1e85;" horiz-adv-x="790" 
d="M627 497h76q36 -122 36 -209q0 -302 -209 -302q-108 0 -133 96q-59 -96 -167 -96q-81 0 -119 41t-38 127v343h78v-302q0 -29 1 -46t6 -39t14 -33.5t26.5 -20t43.5 -8.5q51 0 87 37t36 86v326h78v-305q0 -34 2.5 -55t10.5 -44t27 -34t49 -11q131 0 131 236q0 82 -36 213z
M444 652q0 23 14.5 37.5t37.5 14.5q22 0 36.5 -15t14.5 -37q0 -23 -15 -37.5t-37 -14.5q-23 0 -37 14.5t-14 37.5zM264 652q0 23 14.5 37.5t37.5 14.5q22 0 36.5 -15t14.5 -37q0 -23 -15 -37.5t-37 -14.5q-23 0 -37 14.5t-14 37.5z" />
    <glyph glyph-name="Ygrave" unicode="&#x1ef2;" horiz-adv-x="524" 
d="M518 665h-84l-167 -331l-171 331h-90l218 -412v-253h79v253zM190 896l152 -147l-24 -33l-145 87q-32 23 -32 42q0 23 49 51z" />
    <glyph glyph-name="ygrave" unicode="&#x1ef3;" horiz-adv-x="534" 
d="M218 771l109 -181l-31 -25q-78 70 -120 118q-22 25 -22 41q0 31 64 47zM386 497h77v-526q0 -93 -59 -144t-165 -51q-74 0 -151 29l19 59q63 -28 134 -28q145 0 145 132v93h-2q-53 -75 -150 -75q-161 0 -161 171v340h78v-320q0 -64 21 -98t82 -34q51 0 91.5 38t40.5 82
v332z" />
    <glyph glyph-name="endash" unicode="&#x2013;" horiz-adv-x="500" 
d="M0 263v62h500v-62h-500z" />
    <glyph glyph-name="emdash" unicode="&#x2014;" horiz-adv-x="1000" 
d="M0 263v62h1000v-62h-1000z" />
    <glyph glyph-name="quoteleft" unicode="&#x2018;" horiz-adv-x="194" 
d="M118 492q-42 -2 -64 11q-14 8 -14 29t16 58t31 63t44 75l48 -16z" />
    <glyph glyph-name="quoteright" unicode="&#x2019;" horiz-adv-x="188" 
d="M88 722q14 2 27 2q53 0 53 -40q0 -42 -90 -197l-47 14z" />
    <glyph glyph-name="quotesinglbase" unicode="&#x201a;" horiz-adv-x="200" 
d="M175 74l-97 -206l-45 15q16 100 32 164q8 29 17.5 42t26.5 13q30 0 66 -28z" />
    <glyph glyph-name="quotedblleft" unicode="&#x201c;" horiz-adv-x="351" 
d="M118 492q-42 -2 -64 11q-14 8 -14 29t16 58t31 63t44 75l48 -16zM274 492q-42 -2 -64 11q-14 8 -14 29t16 58t31 63t44 75l48 -16z" />
    <glyph glyph-name="quotedblright" unicode="&#x201d;" horiz-adv-x="344" 
d="M88 722q14 2 27 2q53 0 53 -40q0 -42 -90 -197l-47 14zM244 722q14 2 27 2q53 0 53 -40q0 -42 -90 -197l-47 14z" />
    <glyph glyph-name="quotedblbase" unicode="&#x201e;" horiz-adv-x="356" 
d="M175 74l-97 -206l-45 15q16 100 32 164q8 29 17.5 42t26.5 13q30 0 66 -28zM331 74l-97 -206l-45 15q16 100 32 164q8 29 17.5 42t26.5 13q30 0 66 -28z" />
    <glyph glyph-name="dagger" unicode="&#x2020;" horiz-adv-x="414" 
d="M207 434q-35 -42 -35 -120v-363q0 -25 0.5 -37t9 -37.5t25.5 -46.5q35 44 35 116v368q0 25 -1 39t-9.5 36.5t-24.5 44.5zM208 504q-36 36 -36 96q0 59 35 59t35 -59q0 -55 -34 -96zM237 466q39 34 96 34q59 0 59 -35q0 -34 -59 -34q-58 0 -96 35zM177 467
q-36 -36 -96 -36q-59 0 -59 35q0 34 59 34q57 0 96 -33z" />
    <glyph glyph-name="daggerdbl" unicode="&#x2021;" horiz-adv-x="416" 
d="M206 434q-34 -41 -34 -120v-153q0 -81 35 -121q35 43 35 116v161q0 73 -36 117zM207 504q-35 37 -35 96t35 59t35 -59q0 -19 -9 -47.5t-26 -48.5zM237 466q39 34 96 34q59 0 59 -35q0 -34 -59 -34q-58 0 -96 35zM239 4q38 34 96 34q59 0 59 -36q0 -34 -59 -34
q-57 0 -96 36zM177 467q-36 -36 -96 -36q-59 0 -59 35q0 34 59 34q57 0 96 -33zM179 4q-46 -36 -97 -36q-58 0 -58 35t58 35q56 0 97 -34zM209 -34q-36 -36 -36 -97q0 -58 34 -58q36 0 36 58t-34 97z" />
    <glyph glyph-name="bullet" unicode="&#x2022;" horiz-adv-x="500" 
d="M145 306q0 50 29.5 81t75.5 31t75.5 -31t29.5 -81t-29.5 -81t-75.5 -31t-75.5 31t-29.5 81z" />
    <glyph glyph-name="ellipsis" unicode="&#x2026;" horiz-adv-x="767" 
d="M70 45q0 25 16 41.5t41 16.5q27 0 43 -15.5t16 -41.5t-15.5 -42.5t-40.5 -16.5q-28 0 -44 15.5t-16 42.5zM330 45q0 25 16 41.5t41 16.5q27 0 43 -15.5t16 -41.5t-15.5 -42.5t-40.5 -16.5q-28 0 -44 15.5t-16 42.5zM581 45q0 25 16 41.5t41 16.5q27 0 43 -15.5t16 -41.5
t-15.5 -42.5t-40.5 -16.5q-28 0 -44 15.5t-16 42.5z" />
    <glyph glyph-name="perthousand" unicode="&#x2030;" horiz-adv-x="895" 
d="M736 302q60 0 94.5 -39t34.5 -115q0 -75 -36 -117t-100 -42q-62 0 -95.5 40t-33.5 115q0 73 37 115.5t99 42.5zM732 36q31 0 52.5 27.5t21.5 83.5q0 54 -20 80.5t-52 26.5q-34 0 -54.5 -28.5t-20.5 -83.5q0 -106 73 -106zM426 302q60 0 95 -39t35 -115q0 -75 -36.5 -117
t-100.5 -42q-62 0 -95.5 40t-33.5 115q0 73 37 115.5t99 42.5zM422 36q32 0 53.5 27.5t21.5 83.5q0 54 -20.5 80.5t-52.5 26.5q-34 0 -54.5 -28.5t-20.5 -83.5q0 -106 73 -106zM168 657q60 0 95 -39t35 -115q0 -75 -36.5 -117t-100.5 -42q-62 0 -95.5 40t-33.5 115
q0 73 37 115.5t99 42.5zM164 391q32 0 53.5 27.5t21.5 83.5q0 54 -20.5 80.5t-52.5 26.5q-34 0 -54.5 -28.5t-20.5 -83.5q0 -106 73 -106zM101 123l-37 48l440 369l39 -48z" />
    <glyph glyph-name="guilsinglleft" unicode="&#x2039;" horiz-adv-x="308" 
d="M270 408l-136 -144l128 -165l-33 -30q-122 110 -160 163q-14 20 -14 33q0 18 25 41q54 52 159 133z" />
    <glyph glyph-name="guilsinglright" unicode="&#x203a;" horiz-adv-x="308" 
d="M174 264l-136 144l31 31q105 -81 159 -133q25 -23 25 -41q0 -13 -14 -33q-38 -53 -160 -163l-33 30z" />
    <glyph glyph-name="fraction" unicode="&#x2044;" horiz-adv-x="152" 
d="M-42 -3l-58 27l292 627l60 -26z" />
    <glyph glyph-name="zerosuperior" unicode="&#x2070;" horiz-adv-x="377" 
d="M192 737q150 0 150 -198q0 -203 -155 -203q-77 0 -114.5 47.5t-37.5 152.5q0 101 41 151t116 50zM189 390q43 0 65.5 32.5t22.5 115.5q0 82 -22 114t-66 32q-45 0 -67.5 -34.5t-22.5 -118.5q0 -79 22.5 -110t67.5 -31z" />
    <glyph glyph-name="foursuperior" unicode="&#x2074;" horiz-adv-x="377" 
d="M230 593h40v-113h68v-53h-68v-86h-61v88h-170v47l121 263l51 -23l-109 -236h109v34z" />
    <glyph glyph-name="fivesuperior" unicode="&#x2075;" horiz-adv-x="377" 
d="M89 535l28 197h201v-53h-156l-14 -98q86 -2 130 -28.5t44 -91.5q0 -52 -33 -88.5t-111 -36.5q-37 0 -74 11t-49 21l22 49q49 -28 101 -28q79 0 79 70q0 21 -10.5 35.5t-25 22t-40 12t-43.5 5.5t-49 1z" />
    <glyph glyph-name="sixsuperior" unicode="&#x2076;" horiz-adv-x="377" 
d="M249 749l15 -49q-69 -7 -105.5 -46.5t-41.5 -89.5q43 28 93 28q58 0 87 -32.5t29 -89.5q0 -58 -34.5 -96t-100.5 -38q-70 0 -105 47t-35 130q0 90 47 155t151 81zM264 464q0 77 -69 77q-45 0 -81 -28q0 -125 77 -125q31 0 52 18.5t21 57.5z" />
    <glyph glyph-name="sevensuperior" unicode="&#x2077;" horiz-adv-x="377" 
d="M57 680v52h269v-46q-138 -120 -138 -324v-21h-64v26q0 190 123 313h-190z" />
    <glyph glyph-name="eightsuperior" unicode="&#x2078;" horiz-adv-x="377" 
d="M50 434q0 44 26.5 73t60.5 43q-71 32 -71 93q0 39 34 66.5t90 27.5q63 0 93 -25.5t30 -60.5q0 -55 -66 -100q81 -40 81 -105q0 -46 -34 -78t-106 -32t-105 29t-33 69zM264 444q0 49 -76 78q-31 -11 -52.5 -33.5t-21.5 -47.5q0 -23 19 -39t58 -16q34 0 53.5 17.5
t19.5 40.5zM188 689q-30 0 -45 -13.5t-15 -31.5q0 -39 66 -69q23 13 39.5 33t16.5 40q0 17 -15 29t-47 12z" />
    <glyph glyph-name="ninesuperior" unicode="&#x2079;" horiz-adv-x="377" 
d="M126 324l-15 49q71 11 107 49t40 86q-45 -26 -91 -26q-57 0 -87.5 33.5t-30.5 89.5q0 58 36 95t102 37q68 0 102.5 -46.5t34.5 -130.5q0 -91 -46 -155.5t-152 -80.5zM111 606q0 -73 72 -73q48 0 78 27q0 125 -77 125q-32 0 -52.5 -19t-20.5 -60z" />
    <glyph glyph-name="zeroinferior" unicode="&#x2080;" horiz-adv-x="377" 
d="M192 316q150 0 150 -198q0 -203 -155 -203q-77 0 -114.5 47.5t-37.5 152.5q0 101 41 151t116 50zM189 -31q43 0 65.5 32.5t22.5 115.5q0 82 -22 114t-66 32q-45 0 -67.5 -34.5t-22.5 -118.5q0 -79 22.5 -110t67.5 -31z" />
    <glyph glyph-name="oneinferior" unicode="&#x2081;" horiz-adv-x="377" 
d="M95 -27h78v269l-89 -42l-22 44l118 66h63l-5 -59v-278h74v-53h-217v53z" />
    <glyph glyph-name="twoinferior" unicode="&#x2082;" horiz-adv-x="377" 
d="M82 222l-31 44q73 50 144 50q56 0 84.5 -26.5t28.5 -66.5q0 -55 -52 -116l-112 -133h180v-54h-261v47l125 148q53 62 53 98q0 48 -58 48q-43 0 -101 -39z" />
    <glyph glyph-name="threeinferior" unicode="&#x2083;" horiz-adv-x="377" 
d="M92 235l-24 43q74 38 137 38q53 0 80 -26t27 -65q0 -52 -42 -90q48 -65 48 -111t-34 -77.5t-101 -31.5q-68 0 -120 26l19 49q50 -23 97 -23q76 0 76 57q0 29 -37 85q-40 -16 -80 -24l-14 45q31 8 56 17q24 8 35.5 14t22.5 19.5t11 33.5q0 48 -60 48q-39 0 -97 -27z" />
    <glyph glyph-name="fourinferior" unicode="&#x2084;" horiz-adv-x="377" 
d="M230 172h40v-113h68v-53h-68v-86h-61v88h-170v47l121 263l51 -23l-109 -236h109v34z" />
    <glyph glyph-name="fiveinferior" unicode="&#x2085;" horiz-adv-x="377" 
d="M89 114l28 197h201v-53h-156l-14 -98q86 -2 130 -28.5t44 -91.5q0 -52 -33 -88.5t-111 -36.5q-37 0 -74 11t-49 21l22 49q49 -28 101 -28q79 0 79 70q0 21 -10.5 35.5t-25 22t-40 12t-43.5 5.5t-49 1z" />
    <glyph glyph-name="sixinferior" unicode="&#x2086;" horiz-adv-x="377" 
d="M249 328l15 -49q-69 -7 -105.5 -46.5t-41.5 -89.5q43 28 93 28q58 0 87 -32.5t29 -89.5q0 -58 -34.5 -96t-100.5 -38q-70 0 -105 47t-35 130q0 90 47 155t151 81zM264 43q0 77 -69 77q-45 0 -81 -28q0 -125 77 -125q31 0 52 18.5t21 57.5z" />
    <glyph glyph-name="seveninferior" unicode="&#x2087;" horiz-adv-x="377" 
d="M57 259v52h269v-46q-138 -120 -138 -324v-21h-64v26q0 190 123 313h-190z" />
    <glyph glyph-name="eightinferior" unicode="&#x2088;" horiz-adv-x="377" 
d="M50 13q0 44 26.5 73t60.5 43q-71 32 -71 93q0 39 34 66.5t90 27.5q63 0 93 -25.5t30 -60.5q0 -55 -66 -100q81 -40 81 -105q0 -46 -34 -78t-106 -32t-105 29t-33 69zM264 23q0 49 -76 78q-31 -11 -52.5 -33.5t-21.5 -47.5q0 -23 19 -39t58 -16q34 0 53.5 17.5t19.5 40.5z
M188 268q-30 0 -45 -13.5t-15 -31.5q0 -39 66 -69q23 13 39.5 33t16.5 40q0 17 -15 29t-47 12z" />
    <glyph glyph-name="nineinferior" unicode="&#x2089;" horiz-adv-x="377" 
d="M126 -97l-15 49q71 11 107 49t40 86q-45 -26 -91 -26q-57 0 -87.5 33.5t-30.5 89.5q0 58 36 95t102 37q68 0 102.5 -46.5t34.5 -130.5q0 -91 -46 -155.5t-152 -80.5zM111 185q0 -73 72 -73q48 0 78 27q0 125 -77 125q-32 0 -52.5 -19t-20.5 -60z" />
    <glyph glyph-name="Euro" unicode="&#x20ac;" horiz-adv-x="545" 
d="M460 238v60h-431v-60h115q-51 -43 -51 -107q0 -63 50 -104t161 -41q135 0 223 81l-41 56q-77 -69 -174 -69q-131 0 -131 88q0 46 28.5 71t80.5 25h170zM460 403v-60h-431v60h110q-46 42 -46 97q0 63 52 110t153 47q135 0 234 -103l-50 -50q-87 85 -184 85
q-59 0 -88 -26.5t-29 -66.5q0 -48 29 -70.5t73 -22.5h177z" />
    <glyph glyph-name="trademark" unicode="&#x2122;" horiz-adv-x="680" 
d="M12 665h257v-53h-100v-283h-61v283h-96v53zM561 665h61l22 -336h-55l-13 242l-83 -222h-47l-79 219l-15 -239h-54l23 336h64l86 -248z" />
    <glyph glyph-name="Omega" unicode="&#x2126;" horiz-adv-x="795" 
d="M83 335q0 146 90.5 234t221.5 88q139 0 223.5 -81.5t84.5 -224.5q0 -185 -140 -287h168v-64h-264v57q26 16 49.5 37t51 56t43.5 85.5t16 110.5q0 124 -65.5 184t-164.5 60q-102 0 -169.5 -66t-67.5 -188q0 -99 50.5 -170.5t118.5 -110.5v-55h-265v64h159
q-64 44 -102 113.5t-38 157.5z" />
    <glyph glyph-name="onethird" unicode="&#x2153;" horiz-adv-x="800" 
d="M50 314h78v269l-89 -42l-22 44l118 66h63l-5 -59v-278h74v-53h-217v53zM276 -3l-58 27l292 627l60 -26zM528 315l-24 43q74 38 137 38q53 0 80 -26t27 -65q0 -52 -42 -90q48 -65 48 -111t-34 -77.5t-101 -31.5q-68 0 -120 26l19 49q50 -23 97 -23q76 0 76 57q0 29 -37 85
q-40 -16 -80 -24l-14 45q31 8 56 17q24 8 35.5 14t22.5 19.5t11 33.5q0 48 -60 48q-39 0 -97 -27z" />
    <glyph glyph-name="twothirds" unicode="&#x2154;" horiz-adv-x="800" 
d="M52 563l-31 44q73 50 144 50q56 0 84.5 -26.5t28.5 -66.5q0 -55 -52 -116l-112 -133h180v-54h-261v47l125 148q53 62 53 98q0 48 -58 48q-43 0 -101 -39zM290 -3l-58 27l292 627l60 -26zM535 315l-24 43q74 38 137 38q53 0 80 -26t27 -65q0 -52 -42 -90q48 -65 48 -111
t-34 -77.5t-101 -31.5q-68 0 -120 26l19 49q50 -23 97 -23q76 0 76 57q0 29 -37 85q-40 -16 -80 -24l-14 45q31 8 56 17q24 8 35.5 14t22.5 19.5t11 33.5q0 48 -60 48q-39 0 -97 -27z" />
    <glyph glyph-name="oneeighth" unicode="&#x215b;" horiz-adv-x="800" 
d="M47 314h78v269l-89 -42l-22 44l118 66h63l-5 -59v-278h74v-53h-217v53zM268 -3l-58 27l292 627l60 -26zM485 93q0 44 26.5 73t60.5 43q-71 32 -71 93q0 39 34 66.5t90 27.5q63 0 93 -25.5t30 -60.5q0 -55 -66 -100q81 -40 81 -105q0 -46 -34 -78t-106 -32t-105 29t-33 69
zM699 103q0 49 -76 78q-31 -11 -52.5 -33.5t-21.5 -47.5q0 -23 19 -39t58 -16q34 0 53.5 17.5t19.5 40.5zM623 348q-30 0 -45 -13.5t-15 -31.5q0 -39 66 -69q23 13 39.5 33t16.5 40q0 17 -15 29t-47 12z" />
    <glyph glyph-name="threeeighths" unicode="&#x215c;" horiz-adv-x="800" 
d="M59 576l-24 43q74 38 137 38q53 0 80 -26t27 -65q0 -52 -42 -90q48 -65 48 -111t-34 -77.5t-101 -31.5q-68 0 -120 26l19 49q50 -23 97 -23q76 0 76 57q0 29 -37 85q-40 -16 -80 -24l-14 45q31 8 56 17q24 8 35.5 14t22.5 19.5t11 33.5q0 48 -60 48q-39 0 -97 -27z
M281 -3l-58 27l292 627l60 -26zM495 93q0 44 26.5 73t60.5 43q-71 32 -71 93q0 39 34 66.5t90 27.5q63 0 93 -25.5t30 -60.5q0 -55 -66 -100q81 -40 81 -105q0 -46 -34 -78t-106 -32t-105 29t-33 69zM709 103q0 49 -76 78q-31 -11 -52.5 -33.5t-21.5 -47.5q0 -23 19 -39
t58 -16q34 0 53.5 17.5t19.5 40.5zM633 348q-30 0 -45 -13.5t-15 -31.5q0 -39 66 -69q23 13 39.5 33t16.5 40q0 17 -15 29t-47 12z" />
    <glyph glyph-name="fiveeighths" unicode="&#x215d;" horiz-adv-x="800" 
d="M56 455l28 197h201v-53h-156l-14 -98q86 -2 130 -28.5t44 -91.5q0 -52 -33 -88.5t-111 -36.5q-37 0 -74 11t-49 21l22 49q49 -28 101 -28q79 0 79 70q0 21 -10.5 35.5t-25 22t-40 12t-43.5 5.5t-49 1zM276 -3l-58 27l292 627l60 -26zM494 93q0 44 26.5 73t60.5 43
q-71 32 -71 93q0 39 34 66.5t90 27.5q63 0 93 -25.5t30 -60.5q0 -55 -66 -100q81 -40 81 -105q0 -46 -34 -78t-106 -32t-105 29t-33 69zM708 103q0 49 -76 78q-31 -11 -52.5 -33.5t-21.5 -47.5q0 -23 19 -39t58 -16q34 0 53.5 17.5t19.5 40.5zM632 348q-30 0 -45 -13.5
t-15 -31.5q0 -39 66 -69q23 13 39.5 33t16.5 40q0 17 -15 29t-47 12z" />
    <glyph glyph-name="seveneighths" unicode="&#x215e;" horiz-adv-x="800" 
d="M35 600v52h269v-46q-138 -120 -138 -324v-21h-64v26q0 190 123 313h-190zM234 -3l-58 27l292 627l60 -26zM466 93q0 44 26.5 73t60.5 43q-71 32 -71 93q0 39 34 66.5t90 27.5q63 0 93 -25.5t30 -60.5q0 -55 -66 -100q81 -40 81 -105q0 -46 -34 -78t-106 -32t-105 29
t-33 69zM680 103q0 49 -76 78q-31 -11 -52.5 -33.5t-21.5 -47.5q0 -23 19 -39t58 -16q34 0 53.5 17.5t19.5 40.5zM604 348q-30 0 -45 -13.5t-15 -31.5q0 -39 66 -69q23 13 39.5 33t16.5 40q0 17 -15 29t-47 12z" />
    <glyph glyph-name="partialdiff" unicode="&#x2202;" horiz-adv-x="548" 
d="M157 610l14 57q164 -32 235.5 -133t71.5 -262q0 -80 -19 -141.5t-68 -103t-124 -41.5q-104 0 -154.5 62.5t-50.5 157.5q0 94 53 151.5t140 57.5q86 0 152 -52q-9 102 -77.5 164.5t-172.5 82.5zM405 293q-24 26 -63.5 45.5t-80.5 19.5q-60 0 -93 -40.5t-33 -112.5
q0 -76 35.5 -119t99.5 -43q136 0 136 218q0 21 -1 32z" />
    <glyph glyph-name="Delta" unicode="&#x2206;" horiz-adv-x="664" 
d="M638 0h-613l267 657h82zM540 59l-208 529l-208 -529h416z" />
    <glyph glyph-name="product" unicode="&#x220f;" horiz-adv-x="730" 
d="M646 -132h-76v725h-410v-725h-76v789h562v-789z" />
    <glyph glyph-name="summation" unicode="&#x2211;" horiz-adv-x="566" 
d="M548 -132h-510v64l280 332l-271 328v65h479v-65h-385l268 -329l-282 -331h421v-64z" />
    <glyph glyph-name="minus" unicode="&#x2212;" 
d="M470 351v-65h-405v65h405z" />
    <glyph glyph-name="uni2215" unicode="&#x2215;" horiz-adv-x="476" 
d="M114 -113l-69 23l291 810l70 -24z" />
    <glyph glyph-name="uni2219" unicode="&#x2219;" horiz-adv-x="315" 
d="M94 308q0 25 16 41t41 16q27 0 43 -15t16 -41t-15.5 -43t-40.5 -17q-28 0 -44 16t-16 43z" />
    <glyph glyph-name="radical" unicode="&#x221a;" horiz-adv-x="651" 
d="M649 731l-262 -745h-75l-155 442l-101 -54l-23 52l171 90l147 -433l224 648h74z" />
    <glyph glyph-name="infinity" unicode="&#x221e;" horiz-adv-x="764" 
d="M717 337q0 -73 -42.5 -115.5t-106.5 -42.5q-97 0 -184 103q-84 -105 -182 -105q-71 0 -113 40t-42 108q0 66 45 110.5t115 44.5q55 0 96 -27.5t82 -85.5q50 58 92 86t97 28q68 0 105.5 -41t37.5 -103zM653 330q0 43 -22.5 69t-65.5 26q-39 0 -71 -25t-72 -74
q71 -94 144 -94q40 0 63.5 29t23.5 69zM345 324q-64 101 -137 101q-47 0 -73 -28t-26 -70q0 -43 25.5 -69.5t71.5 -26.5q74 0 139 93z" />
    <glyph glyph-name="integral" unicode="&#x222b;" horiz-adv-x="390" 
d="M341 618q-33 13 -67 13q-29 0 -43.5 -14.5t-14.5 -55.5q0 -16 3 -64l27 -439q5 -63 5 -86q0 -60 -25.5 -94t-89.5 -34q-52 0 -91 16l13 59q40 -12 65 -12q31 0 44 12.5t13 48.5q0 14 -3 62l-28 443q-4 54 -4 85q0 61 25 95.5t89 34.5q47 0 92 -15z" />
    <glyph glyph-name="approxequal" unicode="&#x2248;" horiz-adv-x="569" 
d="M379 172q-45 0 -105.5 33.5t-86.5 33.5q-42 0 -83 -61l-46 36q54 89 126 89q39 0 100.5 -34t90.5 -34q25 0 44.5 13.5t41.5 44.5l46 -39q-56 -82 -128 -82zM375 342q-45 0 -105.5 33.5t-86.5 33.5q-42 0 -83 -61l-46 36q53 88 126 88q39 0 100.5 -33.5t90.5 -33.5
q25 0 44.5 13.5t41.5 44.5l46 -39q-56 -82 -128 -82z" />
    <glyph glyph-name="notequal" unicode="&#x2260;" 
d="M470 257v-65h-208l-36 -130h-71l36 130h-126v65h144l31 108h-175v65h193l35 124h69l-34 -124h142v-65h-161l-30 -108h191z" />
    <glyph glyph-name="lessequal" unicode="&#x2264;" 
d="M459 96v-65h-381v65h381zM457 477l-296 -137l299 -139l-29 -61l-353 167v62l353 169z" />
    <glyph glyph-name="greaterequal" unicode="&#x2265;" 
d="M79 31v65h381v-65h-381zM377 340l-296 137l26 61l353 -169v-62l-353 -167l-29 61z" />
    <glyph glyph-name="lozenge" unicode="&#x25ca;" horiz-adv-x="580" 
d="M520 332l-193 -332h-74l-193 330l193 327h74zM449 331l-160 271l-157 -270l161 -280z" />
    <glyph glyph-name="onefifth" unicode="&#xf500;" horiz-adv-x="800" 
d="M59 314h78v269l-89 -42l-22 44l118 66h63l-5 -59v-278h74v-53h-217v53zM281 -3l-58 27l292 627l60 -26zM521 194l28 197h201v-53h-156l-14 -98q86 -2 130 -28.5t44 -91.5q0 -52 -33 -88.5t-111 -36.5q-37 0 -74 11t-49 21l22 49q49 -28 101 -28q79 0 79 70
q0 21 -10.5 35.5t-25 22t-40 12t-43.5 5.5t-49 1z" />
    <glyph glyph-name="twofifths" unicode="&#xf501;" horiz-adv-x="800" 
d="M58 563l-31 44q73 50 144 50q56 0 84.5 -26.5t28.5 -66.5q0 -55 -52 -116l-112 -133h180v-54h-261v47l125 148q53 62 53 98q0 48 -58 48q-43 0 -101 -39zM287 -3l-58 27l292 627l60 -26zM523 194l28 197h201v-53h-156l-14 -98q86 -2 130 -28.5t44 -91.5q0 -52 -33 -88.5
t-111 -36.5q-37 0 -74 11t-49 21l22 49q49 -28 101 -28q79 0 79 70q0 21 -10.5 35.5t-25 22t-40 12t-43.5 5.5t-49 1z" />
    <glyph glyph-name="threefifths" unicode="&#xf502;" horiz-adv-x="800" 
d="M66 576l-24 43q74 38 137 38q53 0 80 -26t27 -65q0 -52 -42 -90q48 -65 48 -111t-34 -77.5t-101 -31.5q-68 0 -120 26l19 49q50 -23 97 -23q76 0 76 57q0 29 -37 85q-40 -16 -80 -24l-14 45q31 8 56 17q24 8 35.5 14t22.5 19.5t11 33.5q0 48 -60 48q-39 0 -97 -27z
M283 -3l-58 27l292 627l60 -26zM521 194l28 197h201v-53h-156l-14 -98q86 -2 130 -28.5t44 -91.5q0 -52 -33 -88.5t-111 -36.5q-37 0 -74 11t-49 21l22 49q49 -28 101 -28q79 0 79 70q0 21 -10.5 35.5t-25 22t-40 12t-43.5 5.5t-49 1z" />
    <glyph glyph-name="fourfifths" unicode="&#xf503;" horiz-adv-x="800" 
d="M208 513h40v-113h68v-53h-68v-86h-61v88h-170v47l121 263l51 -23l-109 -236h109v34zM293 -3l-58 27l292 627l60 -26zM531 194l28 197h201v-53h-156l-14 -98q86 -2 130 -28.5t44 -91.5q0 -52 -33 -88.5t-111 -36.5q-37 0 -74 11t-49 21l22 49q49 -28 101 -28q79 0 79 70
q0 21 -10.5 35.5t-25 22t-40 12t-43.5 5.5t-49 1z" />
    <glyph glyph-name="onesixth" unicode="&#xf504;" horiz-adv-x="800" 
d="M51 314h78v269l-89 -42l-22 44l118 66h63l-5 -59v-278h74v-53h-217v53zM274 -3l-58 27l292 627l60 -26zM688 408l15 -49q-69 -7 -105.5 -46.5t-41.5 -89.5q43 28 93 28q58 0 87 -32.5t29 -89.5q0 -58 -34.5 -96t-100.5 -38q-70 0 -105 47t-35 130q0 90 47 155t151 81z
M703 123q0 77 -69 77q-45 0 -81 -28q0 -125 77 -125q31 0 52 18.5t21 57.5z" />
    <glyph glyph-name="fivesixths" unicode="&#xf505;" horiz-adv-x="800" 
d="M280 -3l-58 27l292 627l60 -26zM57 455l28 197h201v-53h-156l-14 -98q86 -2 130 -28.5t44 -91.5q0 -52 -33 -88.5t-111 -36.5q-37 0 -74 11t-49 21l22 49q49 -28 101 -28q79 0 79 70q0 21 -10.5 35.5t-25 22t-40 12t-43.5 5.5t-49 1zM683 408l15 -49q-69 -7 -105.5 -46.5
t-41.5 -89.5q43 28 93 28q58 0 87 -32.5t29 -89.5q0 -58 -34.5 -96t-100.5 -38q-70 0 -105 47t-35 130q0 90 47 155t151 81zM698 123q0 77 -69 77q-45 0 -81 -28q0 -125 77 -125q31 0 52 18.5t21 57.5z" />
    <glyph glyph-name="oneseventh" unicode="&#xf506;" horiz-adv-x="800" 
d="M63 314h78v269l-89 -42l-22 44l118 66h63l-5 -59v-278h74v-53h-217v53zM275 -3l-58 27l292 627l60 -26zM502 339v52h269v-46q-138 -120 -138 -324v-21h-64v26q0 190 123 313h-190z" />
    <glyph glyph-name="twosevenths" unicode="&#xf507;" horiz-adv-x="800" 
d="M50 563l-31 44q73 50 144 50q56 0 84.5 -26.5t28.5 -66.5q0 -55 -52 -116l-112 -133h180v-54h-261v47l125 148q53 62 53 98q0 48 -58 48q-43 0 -101 -39zM286 -3l-58 27l292 627l60 -26zM511 339v52h269v-46q-138 -120 -138 -324v-21h-64v26q0 190 123 313h-190z" />
    <glyph glyph-name="threesevenths" unicode="&#xf508;" horiz-adv-x="800" 
d="M59 576l-24 43q74 38 137 38q53 0 80 -26t27 -65q0 -52 -42 -90q48 -65 48 -111t-34 -77.5t-101 -31.5q-68 0 -120 26l19 49q50 -23 97 -23q76 0 76 57q0 29 -37 85q-40 -16 -80 -24l-14 45q31 8 56 17q24 8 35.5 14t22.5 19.5t11 33.5q0 48 -60 48q-39 0 -97 -27z
M275 -3l-58 27l292 627l60 -26zM507 339v52h269v-46q-138 -120 -138 -324v-21h-64v26q0 190 123 313h-190z" />
    <glyph glyph-name="foursevenths" unicode="&#xf509;" horiz-adv-x="800" 
d="M209 513h40v-113h68v-53h-68v-86h-61v88h-170v47l121 263l51 -23l-109 -236h109v34zM285 -3l-58 27l292 627l60 -26zM517 339v52h269v-46q-138 -120 -138 -324v-21h-64v26q0 190 123 313h-190z" />
    <glyph glyph-name="fivesevenths" unicode="&#xf50a;" horiz-adv-x="800" 
d="M65 455l28 197h201v-53h-156l-14 -98q86 -2 130 -28.5t44 -91.5q0 -52 -33 -88.5t-111 -36.5q-37 0 -74 11t-49 21l22 49q49 -28 101 -28q79 0 79 70q0 21 -10.5 35.5t-25 22t-40 12t-43.5 5.5t-49 1zM279 -3l-58 27l292 627l60 -26zM513 339v52h269v-46
q-138 -120 -138 -324v-21h-64v26q0 190 123 313h-190z" />
    <glyph glyph-name="sixsevenths" unicode="&#xf50b;" horiz-adv-x="800" 
d="M231 669l15 -49q-69 -7 -105.5 -46.5t-41.5 -89.5q43 28 93 28q58 0 87 -32.5t29 -89.5q0 -58 -34.5 -96t-100.5 -38q-70 0 -105 47t-35 130q0 90 47 155t151 81zM246 384q0 77 -69 77q-45 0 -81 -28q0 -125 77 -125q31 0 52 18.5t21 57.5zM283 -3l-58 27l292 627l60 -26
zM519 339v52h269v-46q-138 -120 -138 -324v-21h-64v26q0 190 123 313h-190z" />
    <glyph glyph-name="oneninth" unicode="&#xf50c;" horiz-adv-x="800" 
d="M53 314h78v269l-89 -42l-22 44l118 66h63l-5 -59v-278h74v-53h-217v53zM270 -3l-58 27l292 627l60 -26zM564 -17l-15 49q71 11 107 49t40 86q-45 -26 -91 -26q-57 0 -87.5 33.5t-30.5 89.5q0 58 36 95t102 37q68 0 102.5 -46.5t34.5 -130.5q0 -91 -46 -155.5t-152 -80.5z
M549 265q0 -73 72 -73q48 0 78 27q0 125 -77 125q-32 0 -52.5 -19t-20.5 -60z" />
    <glyph glyph-name="twoninths" unicode="&#xf50d;" horiz-adv-x="800" 
d="M43 563l-31 44q73 50 144 50q56 0 84.5 -26.5t28.5 -66.5q0 -55 -52 -116l-112 -133h180v-54h-261v47l125 148q53 62 53 98q0 48 -58 48q-43 0 -101 -39zM281 -3l-58 27l292 627l60 -26zM577 -17l-15 49q71 11 107 49t40 86q-45 -26 -91 -26q-57 0 -87.5 33.5t-30.5 89.5
q0 58 36 95t102 37q68 0 102.5 -46.5t34.5 -130.5q0 -91 -46 -155.5t-152 -80.5zM562 265q0 -73 72 -73q48 0 78 27q0 125 -77 125q-32 0 -52.5 -19t-20.5 -60z" />
    <glyph glyph-name="fourninths" unicode="&#xf50e;" horiz-adv-x="800" 
d="M203 513h40v-113h68v-53h-68v-86h-61v88h-170v47l121 263l51 -23l-109 -236h109v34zM283 -3l-58 27l292 627l60 -26zM579 -17l-15 49q71 11 107 49t40 86q-45 -26 -91 -26q-57 0 -87.5 33.5t-30.5 89.5q0 58 36 95t102 37q68 0 102.5 -46.5t34.5 -130.5q0 -91 -46 -155.5
t-152 -80.5zM564 265q0 -73 72 -73q48 0 78 27q0 125 -77 125q-32 0 -52.5 -19t-20.5 -60z" />
    <glyph glyph-name="fiveninths" unicode="&#xf50f;" horiz-adv-x="800" 
d="M56 455l28 197h201v-53h-156l-14 -98q86 -2 130 -28.5t44 -91.5q0 -52 -33 -88.5t-111 -36.5q-37 0 -74 11t-49 21l22 49q49 -28 101 -28q79 0 79 70q0 21 -10.5 35.5t-25 22t-40 12t-43.5 5.5t-49 1zM277 -3l-58 27l292 627l60 -26zM573 -17l-15 49q71 11 107 49t40 86
q-45 -26 -91 -26q-57 0 -87.5 33.5t-30.5 89.5q0 58 36 95t102 37q68 0 102.5 -46.5t34.5 -130.5q0 -91 -46 -155.5t-152 -80.5zM558 265q0 -73 72 -73q48 0 78 27q0 125 -77 125q-32 0 -52.5 -19t-20.5 -60z" />
    <glyph glyph-name="sevenninths" unicode="&#xf510;" horiz-adv-x="800" 
d="M42 600v52h269v-46q-138 -120 -138 -324v-21h-64v26q0 190 123 313h-190zM246 -3l-58 27l292 627l60 -26zM551 -17l-15 49q71 11 107 49t40 86q-45 -26 -91 -26q-57 0 -87.5 33.5t-30.5 89.5q0 58 36 95t102 37q68 0 102.5 -46.5t34.5 -130.5q0 -91 -46 -155.5
t-152 -80.5zM536 265q0 -73 72 -73q48 0 78 27q0 125 -77 125q-32 0 -52.5 -19t-20.5 -60z" />
    <glyph glyph-name="eightninths" unicode="&#xf511;" horiz-adv-x="800" 
d="M25 354q0 44 26.5 73t60.5 43q-71 32 -71 93q0 39 34 66.5t90 27.5q63 0 93 -25.5t30 -60.5q0 -55 -66 -100q81 -40 81 -105q0 -46 -34 -78t-106 -32t-105 29t-33 69zM239 364q0 49 -76 78q-31 -11 -52.5 -33.5t-21.5 -47.5q0 -23 19 -39t58 -16q34 0 53.5 17.5
t19.5 40.5zM163 609q-30 0 -45 -13.5t-15 -31.5q0 -39 66 -69q23 13 39.5 33t16.5 40q0 17 -15 29t-47 12zM283 -3l-58 27l292 627l60 -26zM571 -17l-15 49q71 11 107 49t40 86q-45 -26 -91 -26q-57 0 -87.5 33.5t-30.5 89.5q0 58 36 95t102 37q68 0 102.5 -46.5
t34.5 -130.5q0 -91 -46 -155.5t-152 -80.5zM556 265q0 -73 72 -73q48 0 78 27q0 125 -77 125q-32 0 -52.5 -19t-20.5 -60z" />
    <glyph glyph-name="zero.tosf" unicode="&#xf81e;" 
d="M270 511q106 0 164.5 -61.5t58.5 -188.5q0 -132 -61 -204t-169 -72q-107 0 -164.5 70.5t-57.5 189.5q0 131 62.5 198.5t166.5 67.5zM265 47q67 0 108 53t41 159q0 96 -39.5 143t-107.5 47q-70 0 -109 -51t-39 -155q0 -91 39.5 -143.5t106.5 -52.5z" />
    <glyph glyph-name="one.tosf" unicode="&#xf81f;" 
d="M144 63h125v348l-152 -80l-29 50l189 116h77l-6 -71v-363h124v-63h-328v63z" />
    <glyph glyph-name="two.tosf" unicode="&#xf820;" 
d="M82 364l-44 49q100 98 217 98q87 0 132 -42.5t45 -112.5q0 -56 -27.5 -97.5t-84.5 -84.5l-150 -112h287v-62h-407v51l188 144q65 49 89 80t24 74q0 45 -25.5 70.5t-74.5 25.5q-82 0 -169 -81z" />
    <glyph glyph-name="three.tosf" unicode="&#xf821;" 
d="M347 215q96 -88 96 -174q0 -54 -27 -93.5t-78 -64t-109.5 -38.5t-136.5 -22l-15 61q58 7 102 15.5t89.5 25.5t70.5 45.5t25 67.5q0 71 -81 140q-70 -31 -112 -40l-21 59q104 28 150.5 62t46.5 96q0 42 -26 65.5t-75 23.5q-76 0 -159 -67l-37 52q94 82 207 82
q84 0 126.5 -41.5t42.5 -103.5q0 -94 -79 -151z" />
    <glyph glyph-name="four.tosf" unicode="&#xf822;" 
d="M355 294h48v-230h96v-64h-96v-153h-79v154h-285v54l200 445l64 -31l-184 -405h207v77z" />
    <glyph glyph-name="five.tosf" unicode="&#xf823;" 
d="M104 192l40 305h300v-64h-237l-24 -180q45 -2 81.5 -7t72.5 -18.5t60.5 -33.5t39.5 -53t15 -76q0 -110 -99 -171t-260 -72l-11 61q289 28 289 179q0 141 -267 130z" />
    <glyph glyph-name="six.tosf" unicode="&#xf824;" 
d="M376 668l15 -61q-108 -17 -170 -86.5t-70 -166.5q76 51 159 51q82 0 128.5 -52.5t46.5 -140.5q0 -95 -55 -159.5t-155 -64.5q-108 0 -157.5 79t-49.5 207q0 338 308 394zM407 210q0 61 -30.5 98.5t-85.5 37.5q-36 0 -79.5 -17t-65.5 -38q-3 -66 8 -118t42.5 -87t80.5 -35
q59 0 94.5 43t35.5 116z" />
    <glyph glyph-name="seven.tosf" unicode="&#xf825;" 
d="M60 431v66h406v-60l-294 -591h-80l288 585h-320z" />
    <glyph glyph-name="eight.tosf" unicode="&#xf826;" 
d="M64 154q0 68 40.5 115t92.5 75q-31 18 -52 34.5t-40 48.5t-19 71q0 67 51.5 113t131.5 46q88 0 132.5 -42.5t44.5 -101.5q0 -90 -105 -168q128 -67 128 -172q0 -77 -51 -130.5t-154 -53.5t-151.5 49t-48.5 116zM388 169q0 86 -127 142q-120 -55 -120 -151q0 -45 33 -77
t93 -32q58 0 89.5 32t31.5 86zM266 597q-45 0 -74 -28.5t-29 -67.5q0 -75 114 -128q38 24 66 59t28 75q0 39 -28 64.5t-77 25.5z" />
    <glyph glyph-name="nine.tosf" unicode="&#xf827;" 
d="M166 -154l-15 60q113 22 174.5 82.5t69.5 154.5q-70 -49 -158 -49q-85 0 -132.5 52t-47.5 141q0 95 55 159.5t155 64.5q56 0 97.5 -22.5t64.5 -63t34 -90t11 -110.5q0 -157 -71.5 -254t-236.5 -125zM135 289q0 -62 29.5 -98.5t84.5 -36.5q86 0 147 53q3 67 -8.5 119
t-42.5 87t-80 35q-59 0 -94.5 -43.5t-35.5 -115.5z" />
    <glyph glyph-name="GID564" unicode="&#xfb00;" horiz-adv-x="600" 
d="M152 435v-435h-78v544q0 35 6.5 61.5t23.5 52.5t54 40t91 14q79 0 157 -36q41 36 116 36q30 0 66 -9t56 -20l-21 -56q-50 24 -98 24q-47 0 -66.5 -26.5t-19.5 -78.5v-49h157v-62h-157v-435h-77v435h-210zM152 546v-49h210v47q0 45 12 76q-64 31 -122 31q-55 0 -77.5 -25
t-22.5 -80z" />
    <glyph glyph-name="hyphen.case" horiz-adv-x="322" 
d="M30 300v66h262v-66h-262z" />
    <glyph glyph-name="zacute" horiz-adv-x="422" 
d="M410 0h-384v52l280 383h-259v62h355v-47l-284 -388h292v-62zM175 590l110 181q62 -16 62 -45q0 -17 -22 -42q-28 -32 -119 -119z" />
    <glyph glyph-name="zero.num" horiz-adv-x="377" 
d="M192 657q150 0 150 -198q0 -203 -155 -203q-77 0 -114.5 47.5t-37.5 152.5q0 101 41 151t116 50zM189 310q43 0 65.5 32.5t22.5 115.5q0 82 -22 114t-66 32q-45 0 -67.5 -34.5t-22.5 -118.5q0 -79 22.5 -110t67.5 -31z" />
    <glyph glyph-name="one.num" horiz-adv-x="377" 
d="M95 314h78v269l-89 -42l-22 44l118 66h63l-5 -59v-278h74v-53h-217v53z" />
    <glyph glyph-name="two.num" horiz-adv-x="377" 
d="M82 563l-31 44q73 50 144 50q56 0 84.5 -26.5t28.5 -66.5q0 -55 -52 -116l-112 -133h180v-54h-261v47l125 148q53 62 53 98q0 48 -58 48q-43 0 -101 -39z" />
    <glyph glyph-name="three.num" horiz-adv-x="377" 
d="M92 576l-24 43q74 38 137 38q53 0 80 -26t27 -65q0 -52 -42 -90q48 -65 48 -111t-34 -77.5t-101 -31.5q-68 0 -120 26l19 49q50 -23 97 -23q76 0 76 57q0 29 -37 85q-40 -16 -80 -24l-14 45q31 8 56 17q24 8 35.5 14t22.5 19.5t11 33.5q0 48 -60 48q-39 0 -97 -27z" />
    <glyph glyph-name="four.num" horiz-adv-x="377" 
d="M230 513h40v-113h68v-53h-68v-86h-61v88h-170v47l121 263l51 -23l-109 -236h109v34z" />
    <glyph glyph-name="five.num" horiz-adv-x="377" 
d="M89 455l28 197h201v-53h-156l-14 -98q86 -2 130 -28.5t44 -91.5q0 -52 -33 -88.5t-111 -36.5q-37 0 -74 11t-49 21l22 49q49 -28 101 -28q79 0 79 70q0 21 -10.5 35.5t-25 22t-40 12t-43.5 5.5t-49 1z" />
    <glyph glyph-name="six.num" horiz-adv-x="377" 
d="M249 669l15 -49q-69 -7 -105.5 -46.5t-41.5 -89.5q43 28 93 28q58 0 87 -32.5t29 -89.5q0 -58 -34.5 -96t-100.5 -38q-70 0 -105 47t-35 130q0 90 47 155t151 81zM264 384q0 77 -69 77q-45 0 -81 -28q0 -125 77 -125q31 0 52 18.5t21 57.5z" />
    <glyph glyph-name="seven.num" horiz-adv-x="377" 
d="M57 600v52h269v-46q-138 -120 -138 -324v-21h-64v26q0 190 123 313h-190z" />
    <glyph glyph-name="eight.num" horiz-adv-x="377" 
d="M50 354q0 44 26.5 73t60.5 43q-71 32 -71 93q0 39 34 66.5t90 27.5q63 0 93 -25.5t30 -60.5q0 -55 -66 -100q81 -40 81 -105q0 -46 -34 -78t-106 -32t-105 29t-33 69zM264 364q0 49 -76 78q-31 -11 -52.5 -33.5t-21.5 -47.5q0 -23 19 -39t58 -16q34 0 53.5 17.5
t19.5 40.5zM188 609q-30 0 -45 -13.5t-15 -31.5q0 -39 66 -69q23 13 39.5 33t16.5 40q0 17 -15 29t-47 12z" />
    <glyph glyph-name="nine.num" horiz-adv-x="377" 
d="M126 244l-15 49q71 11 107 49t40 86q-45 -26 -91 -26q-57 0 -87.5 33.5t-30.5 89.5q0 58 36 95t102 37q68 0 102.5 -46.5t34.5 -130.5q0 -91 -46 -155.5t-152 -80.5zM111 526q0 -73 72 -73q48 0 78 27q0 125 -77 125q-32 0 -52.5 -19t-20.5 -60z" />
    <glyph glyph-name="zero.denom" horiz-adv-x="377" 
d="M192 396q150 0 150 -198q0 -203 -155 -203q-77 0 -114.5 47.5t-37.5 152.5q0 101 41 151t116 50zM189 49q43 0 65.5 32.5t22.5 115.5q0 82 -22 114t-66 32q-45 0 -67.5 -34.5t-22.5 -118.5q0 -79 22.5 -110t67.5 -31z" />
    <glyph glyph-name="one.denom" horiz-adv-x="377" 
d="M95 53h78v269l-89 -42l-22 44l118 66h63l-5 -59v-278h74v-53h-217v53z" />
    <glyph glyph-name="two.denom" horiz-adv-x="377" 
d="M82 302l-31 44q73 50 144 50q56 0 84.5 -26.5t28.5 -66.5q0 -55 -52 -116l-112 -133h180v-54h-261v47l125 148q53 62 53 98q0 48 -58 48q-43 0 -101 -39z" />
    <glyph glyph-name="three.denom" horiz-adv-x="377" 
d="M92 315l-24 43q74 38 137 38q53 0 80 -26t27 -65q0 -52 -42 -90q48 -65 48 -111t-34 -77.5t-101 -31.5q-68 0 -120 26l19 49q50 -23 97 -23q76 0 76 57q0 29 -37 85q-40 -16 -80 -24l-14 45q31 8 56 17q24 8 35.5 14t22.5 19.5t11 33.5q0 48 -60 48q-39 0 -97 -27z" />
    <glyph glyph-name="four.denom" horiz-adv-x="377" 
d="M230 252h40v-113h68v-53h-68v-86h-61v88h-170v47l121 263l51 -23l-109 -236h109v34z" />
    <glyph glyph-name="five.denom" horiz-adv-x="377" 
d="M89 194l28 197h201v-53h-156l-14 -98q86 -2 130 -28.5t44 -91.5q0 -52 -33 -88.5t-111 -36.5q-37 0 -74 11t-49 21l22 49q49 -28 101 -28q79 0 79 70q0 21 -10.5 35.5t-25 22t-40 12t-43.5 5.5t-49 1z" />
    <glyph glyph-name="six.denom" horiz-adv-x="377" 
d="M249 408l15 -49q-69 -7 -105.5 -46.5t-41.5 -89.5q43 28 93 28q58 0 87 -32.5t29 -89.5q0 -58 -34.5 -96t-100.5 -38q-70 0 -105 47t-35 130q0 90 47 155t151 81zM264 123q0 77 -69 77q-45 0 -81 -28q0 -125 77 -125q31 0 52 18.5t21 57.5z" />
    <glyph glyph-name="seven.denom" horiz-adv-x="377" 
d="M57 339v52h269v-46q-138 -120 -138 -324v-21h-64v26q0 190 123 313h-190z" />
    <glyph glyph-name="eight.denom" horiz-adv-x="377" 
d="M50 93q0 44 26.5 73t60.5 43q-71 32 -71 93q0 39 34 66.5t90 27.5q63 0 93 -25.5t30 -60.5q0 -55 -66 -100q81 -40 81 -105q0 -46 -34 -78t-106 -32t-105 29t-33 69zM264 103q0 49 -76 78q-31 -11 -52.5 -33.5t-21.5 -47.5q0 -23 19 -39t58 -16q34 0 53.5 17.5t19.5 40.5
zM188 348q-30 0 -45 -13.5t-15 -31.5q0 -39 66 -69q23 13 39.5 33t16.5 40q0 17 -15 29t-47 12z" />
    <glyph glyph-name="nine.denom" horiz-adv-x="377" 
d="M126 -17l-15 49q71 11 107 49t40 86q-45 -26 -91 -26q-57 0 -87.5 33.5t-30.5 89.5q0 58 36 95t102 37q68 0 102.5 -46.5t34.5 -130.5q0 -91 -46 -155.5t-152 -80.5zM111 265q0 -73 72 -73q48 0 78 27q0 125 -77 125q-32 0 -52.5 -19t-20.5 -60z" />
    <glyph glyph-name="commaaccent" horiz-adv-x="500" 
d="M149 -257l58 187q71 -2 71 -36q-1 -17 -14 -40q-20 -39 -78 -129z" />
    <glyph glyph-name="revcommaaccent" horiz-adv-x="500" 
d="M319 769l-57 -188q-17 1 -26.5 3t-21.5 5.5t-18 11t-6 18.5q0 14 13 40q11 22 79 127z" />
    <glyph glyph-name="tilde.cap" horiz-adv-x="500" 
d="M116 739l-7 57q34 27 80 27q26 0 67.5 -12.5t62.5 -12.5q29 0 60 17l7 -60q-33 -18 -66 -18q-22 0 -68.5 11t-64.5 11q-34 0 -71 -20z" />
    <glyph glyph-name="ring.cap" horiz-adv-x="500" 
d="M164 767q0 38 23.5 62t62.5 24t62.5 -23t23.5 -58q0 -40 -24 -65t-64 -25q-39 0 -61.5 24t-22.5 61zM212 767q0 -45 38 -45t38 45q0 46 -38 46t-38 -46z" />
    <glyph glyph-name="circumflex.cap" horiz-adv-x="500" 
d="M128 716l-31 24q62 82 107 123q23 22 44 22q24 0 44 -20q60 -60 109 -124l-31 -25l-122 88z" />
    <glyph glyph-name="acute.cap" horiz-adv-x="500" 
d="M159 749l152 148q49 -27 49 -52q0 -19 -33 -42q-22 -15 -144 -87z" />
    <glyph glyph-name="grave.cap" horiz-adv-x="500" 
d="M208 896l152 -147l-24 -33l-145 87q-32 23 -32 42q0 23 49 51z" />
    <glyph glyph-name="dieresis.cap" horiz-adv-x="500" 
d="M293 781q0 22 14.5 36.5t37.5 14.5q22 0 36.5 -14.5t14.5 -36.5q0 -23 -15 -37.5t-37 -14.5q-23 0 -37 14.5t-14 37.5zM105 781q0 22 14.5 36.5t37.5 14.5q22 0 36.5 -14.5t14.5 -36.5q0 -23 -15 -37.5t-37 -14.5q-23 0 -37 14.5t-14 37.5z" />
    <glyph glyph-name="caron.cap" horiz-adv-x="500" 
d="M370 885l31 -24q-62 -82 -107 -123q-23 -22 -44 -22q-24 0 -44 20q-60 60 -109 124l31 25l122 -88z" />
    <glyph glyph-name="macron.cap" horiz-adv-x="500" 
d="M117 742v65h260v-65h-260z" />
    <glyph glyph-name="dotaccent.cap" horiz-adv-x="500" 
d="M201 786q0 22 15 37t37 15t37 -15t15 -37q0 -23 -15 -38t-38 -15q-22 0 -36.5 15t-14.5 38z" />
    <glyph glyph-name="cedilla.cap" horiz-adv-x="500" 
d="M212 3h48l-20 -75q84 -5 84 -74q0 -43 -31 -66t-75 -23q-46 0 -82 18l13 42q39 -13 66 -13q51 0 51 40q0 22 -21.5 31t-67.5 9z" />
    <glyph glyph-name="hungarumlaut.cap" horiz-adv-x="500" 
d="M72 739l157 144q47 -30 47 -53q0 -18 -34 -41q-22 -15 -147 -83zM259 739l156 144q47 -30 47 -53q0 -20 -34 -41q-48 -29 -146 -83z" />
    <glyph glyph-name="commaaccent.cap" horiz-adv-x="500" 
d="M149 -257l58 187q71 -2 71 -36q-1 -17 -14 -40q-20 -39 -78 -129z" />
    <glyph glyph-name="breve.cap" horiz-adv-x="500" 
d="M355 856l57 -19q-38 -116 -162 -116q-123 0 -154 116l58 19q14 -40 38 -59t62 -19q39 0 62 17t39 61z" />
    <glyph glyph-name="caron.alt" horiz-adv-x="252" 
d="M94 498l-1 191q26 6 44 6q19 0 27.5 -6t8.5 -22q0 -12 -1 -17q-8 -66 -38 -159z" />
    <glyph glyph-name="ogonek.cap" horiz-adv-x="500" 
d="M238 2l65 -1q-30 -24 -51 -61.5t-21 -68.5q0 -47 42 -47q23 0 51 11l15 -49q-38 -22 -85 -22q-92 0 -92 88q0 78 76 150z" />
    <glyph glyph-name="zero.tf" 
d="M273 657q217 0 217 -329q0 -174 -56 -256t-169 -82q-111 0 -165.5 80t-54.5 253q0 167 60 250.5t168 83.5zM268 54q33 0 57.5 12.5t44.5 42.5t30.5 84.5t10.5 132.5q0 148 -36.5 207t-105.5 59q-71 0 -107.5 -63.5t-36.5 -215.5q0 -142 36.5 -200.5t106.5 -58.5z" />
    <glyph glyph-name="one.tf" 
d="M134 63h126v497l-155 -82l-29 50l189 116h77l-5 -70v-511h121v-63h-324v63z" />
    <glyph glyph-name="two.tf" 
d="M106 516l-45 50q41 41 95.5 66t112.5 25q83 0 128.5 -45.5t45.5 -121.5q0 -89 -84 -188l-205 -237h326v-65h-424v57l226 266q47 56 63.5 86.5t16.5 74.5q0 50 -29.5 77.5t-76.5 27.5q-71 0 -150 -73z" />
    <glyph glyph-name="three.tf" 
d="M95 512l-43 48q41 42 100.5 69.5t123.5 27.5q85 0 127 -42.5t42 -107.5q0 -94 -80 -151q91 -78 91 -176q0 -80 -54.5 -135.5t-159.5 -55.5q-53 0 -107 14.5t-78 32.5l26 63q77 -44 160 -44q61 0 97 33t36 84q0 80 -73 143q-33 -16 -113 -37l-21 60q104 26 150 59.5
t46 97.5q0 46 -25.5 70.5t-75.5 24.5q-81 0 -169 -78z" />
    <glyph glyph-name="four.tf" 
d="M360 442h47v-212h96v-63h-96v-167h-79v167h-284v62l203 427l63 -32l-188 -394h209v71z" />
    <glyph glyph-name="five.tf" 
d="M99 323l41 321h313v-65h-249l-27 -196q55 -2 102 -13.5t88.5 -33.5t65.5 -62t24 -93q0 -78 -52.5 -135t-163.5 -57q-56 0 -112.5 17t-79.5 35l27 61q84 -48 164 -48q71 0 104.5 35t33.5 89q0 145 -279 145z" />
    <glyph glyph-name="six.tf" 
d="M372 668l15 -61q-108 -17 -170 -86.5t-70 -166.5q76 51 159 51q82 0 128.5 -52.5t46.5 -140.5q0 -95 -55 -159.5t-155 -64.5q-108 0 -157.5 79t-49.5 207q0 338 308 394zM403 210q0 61 -30.5 98.5t-85.5 37.5q-36 0 -79.5 -17t-65.5 -38q-3 -66 8 -118t42.5 -87t80.5 -35
q59 0 94.5 43t35.5 116z" />
    <glyph glyph-name="seven.tf" 
d="M75 579v65h407v-60q-70 -61 -118 -132t-71 -145t-32 -137t-9 -135v-35h-81v43q0 321 213 536h-309z" />
    <glyph glyph-name="eight.tf" 
d="M64 154q0 68 40.5 115t92.5 75q-31 18 -52 34.5t-40 48.5t-19 71q0 67 51.5 113t131.5 46q88 0 132.5 -42.5t44.5 -101.5q0 -90 -105 -168q128 -67 128 -172q0 -77 -51 -130.5t-154 -53.5t-151.5 49t-48.5 116zM388 169q0 86 -127 142q-120 -55 -120 -151q0 -45 33 -77
t93 -32q58 0 89.5 32t31.5 86zM266 597q-45 0 -74 -28.5t-29 -67.5q0 -75 114 -128q38 24 66 59t28 75q0 39 -28 64.5t-77 25.5z" />
    <glyph glyph-name="nine.tf" 
d="M166 -8l-15 60q113 22 174.5 82.5t69.5 154.5q-70 -49 -158 -49q-85 0 -132.5 52t-47.5 141q0 95 55 159.5t155 64.5q56 0 97.5 -22.5t64.5 -63t34 -90t11 -110.5q0 -157 -71.5 -254t-236.5 -125zM135 435q0 -62 29.5 -98.5t84.5 -36.5q86 0 147 53q3 67 -8.5 119
t-42.5 87t-80 35q-59 0 -94.5 -43.5t-35.5 -115.5z" />
    <glyph glyph-name="dollar.tf" 
d="M44 69l33 65q74 -50 160 -56v232q-33 10 -53 17t-47 21.5t-42 31t-26 43t-11 60.5q0 74 48 119t131 53v92h61v-92q111 -11 187 -87l-44 -53q-70 61 -143 72v-217q42 -13 67.5 -23.5t55.5 -30.5t44.5 -50.5t14.5 -72.5q0 -83 -47 -129t-135 -54v-118h-61v116
q-61 3 -116 22.5t-77 38.5zM400 183q0 43 -26.5 67.5t-75.5 41.5v-213q102 15 102 104zM140 491q0 -40 25 -63t72 -39v198q-97 -10 -97 -96z" />
    <glyph glyph-name="Euro.tf" 
d="M458 238v60h-431v-60h115q-51 -43 -51 -107q0 -63 50 -104t161 -41q135 0 223 81l-41 56q-77 -69 -174 -69q-131 0 -131 88q0 46 28.5 71t80.5 25h170zM458 403v-60h-431v60h110q-46 42 -46 97q0 63 52 110t153 47q135 0 234 -103l-50 -50q-87 85 -184 85
q-59 0 -88 -26.5t-29 -66.5q0 -48 29 -70.5t73 -22.5h177z" />
    <glyph glyph-name="cent.tf" 
d="M334 -60h-65v112q-89 12 -135.5 79t-46.5 183q0 122 53 184.5t129 74.5v112h65v-111q94 -11 144 -86l-52 -41q-40 53 -92 62v-394q54 6 103 45l33 -53q-51 -47 -136 -56v-111zM165 317q0 -167 104 -197v387q-48 -12 -76 -60t-28 -130z" />
    <glyph glyph-name="sterling.tf" 
d="M34 156v60h113l56 258q22 104 70 143.5t120 39.5q76 0 143 -50l-37 -51q-55 38 -108 38q-52 0 -76 -30.5t-40 -100.5l-54 -247h180v-59h-191l-24 -106q-17 -81 -80 -133l2 -3q35 11 67 11q31 0 89.5 -12.5t99.5 -12.5q50 0 105 12l-8 -63q-54 -11 -99 -11q-50 0 -119 14
t-110 14q-64 0 -122 -25v63q40 21 62.5 52t34.5 82l27 117h-101z" />
    <glyph glyph-name="yen.tf" 
d="M234 163h-170v57h170v86h-170v56h138l-155 282h83l144 -272l141 272h81l-153 -282h135v-56h-167v-86h167v-57h-167v-163h-77v163z" />
    <glyph glyph-name="florin.tf" horiz-adv-x="484" 
d="M66 326l10 63h102l14 82q16 96 52.5 141t127.5 45q65 0 126 -29l-26 -56q-53 24 -99 24q-45 0 -66.5 -22.5t-30.5 -70.5l-21 -114h156l-11 -63h-156l-59 -340q-9 -51 -19.5 -83.5t-30.5 -60t-52.5 -40t-80.5 -12.5q-64 0 -124 29l26 55q49 -23 99 -23q81 0 98 93l66 382
h-101z" />
    <glyph glyph-name="zero.osf" horiz-adv-x="508" 
d="M257 511q106 0 164.5 -61.5t58.5 -188.5q0 -132 -61 -204t-169 -72q-107 0 -164.5 70.5t-57.5 189.5q0 131 62.5 198.5t166.5 67.5zM252 47q67 0 108 53t41 159q0 96 -39.5 143t-107.5 47q-70 0 -109 -51t-39 -155q0 -91 39.5 -143.5t106.5 -52.5z" />
    <glyph glyph-name="one.osf" horiz-adv-x="439" 
d="M95 63h125v348l-152 -80l-29 50l189 116h77l-6 -71v-363h124v-63h-328v63z" />
    <glyph glyph-name="two.osf" horiz-adv-x="480" 
d="M68 364l-44 49q100 98 217 98q87 0 132 -42.5t45 -112.5q0 -56 -27.5 -97.5t-84.5 -84.5l-150 -112h287v-62h-407v51l188 144q65 49 89 80t24 74q0 45 -25.5 70.5t-74.5 25.5q-82 0 -169 -81z" />
    <glyph glyph-name="three.osf" horiz-adv-x="467" 
d="M327 215q96 -88 96 -174q0 -54 -27 -93.5t-78 -64t-109.5 -38.5t-136.5 -22l-15 61q58 7 102 15.5t89.5 25.5t70.5 45.5t25 67.5q0 71 -81 140q-70 -31 -112 -40l-21 59q104 28 150.5 62t46.5 96q0 42 -26 65.5t-75 23.5q-76 0 -159 -67l-37 52q94 82 207 82
q84 0 126.5 -41.5t42.5 -103.5q0 -94 -79 -151z" />
    <glyph glyph-name="four.osf" horiz-adv-x="491" 
d="M350 294h48v-230h96v-64h-96v-153h-79v154h-285v54l200 445l64 -31l-184 -405h207v77z" />
    <glyph glyph-name="five.osf" horiz-adv-x="456" 
d="M69 192l40 305h300v-64h-237l-24 -180q45 -2 81.5 -7t72.5 -18.5t60.5 -33.5t39.5 -53t15 -76q0 -110 -99 -171t-260 -72l-11 61q289 28 289 179q0 141 -267 130z" />
    <glyph glyph-name="six.osf" horiz-adv-x="516" 
d="M358 668l15 -61q-108 -17 -170 -86.5t-70 -166.5q76 51 159 51q82 0 128.5 -52.5t46.5 -140.5q0 -95 -55 -159.5t-155 -64.5q-108 0 -157.5 79t-49.5 207q0 338 308 394zM389 210q0 61 -30.5 98.5t-85.5 37.5q-36 0 -79.5 -17t-65.5 -38q-3 -66 8 -118t42.5 -87t80.5 -35
q59 0 94.5 43t35.5 116z" />
    <glyph glyph-name="seven.osf" horiz-adv-x="449" 
d="M18 431v66h406v-60l-294 -591h-80l288 585h-320z" />
    <glyph glyph-name="eight.osf" horiz-adv-x="521" 
d="M58 154q0 68 40.5 115t92.5 75q-31 18 -52 34.5t-40 48.5t-19 71q0 67 51.5 113t131.5 46q88 0 132.5 -42.5t44.5 -101.5q0 -90 -105 -168q128 -67 128 -172q0 -77 -51 -130.5t-154 -53.5t-151.5 49t-48.5 116zM382 169q0 86 -127 142q-120 -55 -120 -151q0 -45 33 -77
t93 -32q58 0 89.5 32t31.5 86zM260 597q-45 0 -74 -28.5t-29 -67.5q0 -75 114 -128q38 24 66 59t28 75q0 39 -28 64.5t-77 25.5z" />
    <glyph glyph-name="nine.osf" horiz-adv-x="514" 
d="M158 -154l-15 60q113 22 174.5 82.5t69.5 154.5q-70 -49 -158 -49q-85 0 -132.5 52t-47.5 141q0 95 55 159.5t155 64.5q56 0 97.5 -22.5t64.5 -63t34 -90t11 -110.5q0 -157 -71.5 -254t-236.5 -125zM127 289q0 -62 29.5 -98.5t84.5 -36.5q86 0 147 53q3 67 -8.5 119
t-42.5 87t-80 35q-59 0 -94.5 -43.5t-35.5 -115.5z" />
    <glyph glyph-name="dollar.osf" 
d="M44 69l33 65q74 -50 160 -56v232q-33 10 -53 17t-47 21.5t-42 31t-26 43t-11 60.5q0 74 48 119t131 53v92h61v-92q111 -11 187 -87l-44 -53q-70 61 -143 72v-217q42 -13 67.5 -23.5t55.5 -30.5t44.5 -50.5t14.5 -72.5q0 -83 -47 -129t-135 -54v-118h-61v116
q-61 3 -116 22.5t-77 38.5zM400 183q0 43 -26.5 67.5t-75.5 41.5v-213q102 15 102 104zM140 491q0 -40 25 -63t72 -39v198q-97 -10 -97 -96z" />
    <glyph glyph-name="Euro.osf" horiz-adv-x="543" 
d="M458 238v60h-431v-60h115q-51 -43 -51 -107q0 -63 50 -104t161 -41q135 0 223 81l-41 56q-77 -69 -174 -69q-131 0 -131 88q0 46 28.5 71t80.5 25h170zM458 403v-60h-431v60h110q-46 42 -46 97q0 63 52 110t153 47q135 0 234 -103l-50 -50q-87 85 -184 85
q-59 0 -88 -26.5t-29 -66.5q0 -48 29 -70.5t73 -22.5h177z" />
    <glyph glyph-name="cent.osf" 
d="M338 -130h-65v112q-89 12 -135.5 79t-46.5 183q0 122 53 184.5t129 74.5v112h65v-111q94 -11 144 -86l-52 -41q-40 53 -92 62v-394q54 6 103 45l33 -53q-51 -47 -136 -56v-111zM169 247q0 -167 104 -197v387q-48 -12 -76 -60t-28 -130z" />
    <glyph glyph-name="sterling.osf" horiz-adv-x="544" 
d="M67 156v60h113l56 258q22 104 70 143.5t120 39.5q76 0 143 -50l-37 -51q-55 38 -108 38q-52 0 -76 -30.5t-40 -100.5l-54 -247h180v-59h-191l-24 -106q-17 -81 -80 -133l2 -3q35 11 67 11q31 0 89.5 -12.5t99.5 -12.5q50 0 105 12l-8 -63q-54 -11 -99 -11
q-49 0 -118.5 14t-110.5 14q-64 0 -122 -25v63q40 21 62.5 52t34.5 82l27 117h-101z" />
    <glyph glyph-name="yen.osf" horiz-adv-x="517" 
d="M224 163h-170v57h170v86h-170v56h138l-155 282h83l144 -272l141 272h81l-153 -282h135v-56h-167v-86h167v-57h-167v-163h-77v163z" />
    <glyph glyph-name="florin.osf" horiz-adv-x="515" 
d="M104 326l10 63h102l14 82q16 96 52.5 141t127.5 45q65 0 126 -29l-26 -56q-53 24 -99 24q-45 0 -66.5 -22.5t-30.5 -70.5l-21 -114h156l-11 -63h-156l-59 -340q-9 -51 -19.5 -83.5t-30.5 -60t-52.5 -40t-80.5 -12.5q-64 0 -124 29l26 55q49 -23 99 -23q81 0 98 93l66 382
h-101z" />
    <glyph glyph-name="dollar.tosf" 
d="M34 69l33 65q74 -50 160 -56v232q-33 10 -53 17t-47 21.5t-42 31t-26 43t-11 60.5q0 74 48 119t131 53v92h61v-92q111 -11 187 -87l-44 -53q-70 61 -143 72v-217q42 -13 67.5 -23.5t55.5 -30.5t44.5 -50.5t14.5 -72.5q0 -83 -47 -129t-135 -54v-118h-61v116
q-61 3 -116 22.5t-77 38.5zM390 183q0 43 -26.5 67.5t-75.5 41.5v-213q102 15 102 104zM130 491q0 -40 25 -63t72 -39v198q-97 -10 -97 -96z" />
    <glyph glyph-name="Euro.tosf" 
d="M458 238v60h-431v-60h115q-51 -43 -51 -107q0 -63 50 -104t161 -41q135 0 223 81l-41 56q-77 -69 -174 -69q-131 0 -131 88q0 46 28.5 71t80.5 25h170zM458 403v-60h-431v60h110q-46 42 -46 97q0 63 52 110t153 47q135 0 234 -103l-50 -50q-87 85 -184 85
q-59 0 -88 -26.5t-29 -66.5q0 -48 29 -70.5t73 -22.5h177z" />
    <glyph glyph-name="cent.tosf" 
d="M334 -130h-65v112q-89 12 -135.5 79t-46.5 183q0 122 53 184.5t129 74.5v112h65v-111q94 -11 144 -86l-52 -41q-40 53 -92 62v-394q54 6 103 45l33 -53q-51 -47 -136 -56v-111zM165 247q0 -167 104 -197v387q-48 -12 -76 -60t-28 -130z" />
    <glyph glyph-name="sterling.tosf" 
d="M61 156v60h113l56 258q22 104 70 143.5t120 39.5q76 0 143 -50l-37 -51q-55 38 -108 38q-52 0 -76 -30.5t-40 -100.5l-54 -247h180v-59h-191l-24 -106q-17 -81 -80 -133l2 -3q35 11 67 11q31 0 89.5 -12.5t99.5 -12.5q50 0 105 12l-8 -63q-54 -11 -99 -11q-49 0 -119 14
t-110 14q-64 0 -122 -25v63q40 21 62.5 52t34.5 82l27 117h-101z" />
    <glyph glyph-name="yen.tosf" 
d="M235 163h-170v57h170v86h-170v56h138l-155 282h83l144 -272l141 272h81l-153 -282h135v-56h-167v-86h167v-57h-167v-163h-77v163z" />
    <glyph glyph-name="florin.tosf" 
d="M107 326l10 63h102l14 82q16 96 52.5 141t127.5 45q65 0 126 -29l-26 -56q-53 24 -99 24q-45 0 -66.5 -22.5t-30.5 -70.5l-21 -114h156l-11 -63h-156l-59 -340q-9 -51 -19.5 -83.5t-30.5 -60t-52.5 -40t-80.5 -12.5q-64 0 -124 29l26 55q49 -23 99 -23q81 0 98 93l66 382
h-101z" />
    <glyph glyph-name="a.alt" 
d="M462 479v-392l8 -87h-70l-6 59l-3 1q-51 -74 -146 -74q-101 0 -149.5 64t-48.5 177q0 135 64 209.5t187 74.5q79 0 164 -32zM385 158v275q-38 17 -100 17q-161 0 -161 -226q0 -49 10 -86.5t41 -65.5t80 -28q60 0 95 34.5t35 79.5z" />
    <glyph glyph-name="e.alt" horiz-adv-x="455" 
d="M280 511q69 0 107.5 -34t38.5 -90q0 -52 -28 -88.5t-74 -53.5t-87.5 -23.5t-85.5 -6.5q-5 0 -13.5 0.5t-12.5 0.5q3 -70 40 -119t110 -49q66 0 128 46l30 -51q-68 -57 -163 -57q-112 0 -167 68.5t-55 186.5q0 116 61 193t171 77zM353 378q0 35 -21.5 55t-55.5 20
q-73 0 -110.5 -55t-40.5 -125q3 0 9.5 -0.5t10.5 -0.5q31 0 62 4.5t66.5 14.5t57.5 32.5t22 54.5z" />
    <glyph glyph-name="g.alt" horiz-adv-x="536" 
d="M286 511q82 0 170 -35v-505q0 -93 -59 -144t-165 -51q-89 0 -169 37l22 58q65 -35 149 -35q144 0 144 132v80h-2q-55 -62 -143 -62q-91 0 -138 63.5t-47 186.5q0 130 63 202.5t175 72.5zM379 148v284q-42 17 -88 17q-82 0 -124 -51.5t-42 -145.5q0 -42 3.5 -71.5
t14.5 -64t38 -53t68 -18.5q58 0 94 32t36 71z" />
    <glyph glyph-name="k.alt" horiz-adv-x="480" 
d="M450 392q0 -50 -30 -103t-96 -85l124 -204h-91l-107 179q-48 -10 -98 -10v-169h-78v695h78v-324q22 57 69.5 98.5t110.5 41.5q51 0 84.5 -30.5t33.5 -88.5zM372 384q0 30 -15 46t-41 16q-54 0 -103 -70t-61 -150q102 -2 161 40.5t59 117.5z" />
    <glyph glyph-name="v.alt" horiz-adv-x="514" 
d="M351 497h78q33 -112 33 -212q0 -141 -57.5 -220t-171.5 -79q-82 0 -121 39t-39 129v343h78v-314q0 -26 1 -42.5t6 -36t14.5 -30t27 -18t42.5 -7.5q51 0 84.5 34.5t46 83t12.5 107.5q0 93 -34 223z" />
    <glyph glyph-name="w.alt" horiz-adv-x="790" 
d="M627 497h76q36 -122 36 -209q0 -302 -209 -302q-108 0 -133 96q-59 -96 -167 -96q-81 0 -119 41t-38 127v343h78v-302q0 -29 1 -46t6 -39t14 -33.5t26.5 -20t43.5 -8.5q51 0 87 37t36 86v326h78v-305q0 -34 2.5 -55t10.5 -44t27 -34t49 -11q131 0 131 236q0 82 -36 213z
" />
    <glyph glyph-name="y.alt" horiz-adv-x="534" 
d="M386 497h77v-526q0 -93 -59 -144t-165 -51q-74 0 -151 29l19 59q63 -28 134 -28q145 0 145 132v93h-2q-53 -75 -150 -75q-161 0 -161 171v340h78v-320q0 -64 21 -98t82 -34q51 0 91.5 38t40.5 82v332z" />
    <glyph glyph-name="z.alt" horiz-adv-x="422" 
d="M410 0h-384v52l280 383h-259v62h355v-47l-284 -388h292v-62z" />
    <glyph glyph-name="ae.alt" horiz-adv-x="736" 
d="M561 511q69 0 107.5 -33.5t38.5 -90.5q0 -46 -23.5 -80.5t-57 -51.5t-77.5 -27t-77 -11.5t-65 -0.5q2 -74 39 -121t109 -47q69 0 128 46l30 -53q-66 -55 -169 -55q-92 0 -143 53q-70 -54 -148 -54q-55 0 -95.5 19.5t-64 54t-35 78t-11.5 95.5q0 132 63 205.5t180 73.5
q74 0 145 -38q55 38 126 38zM277 451q-77 0 -115 -59.5t-38 -151.5q0 -85 32.5 -139.5t103.5 -54.5q62 0 107 38q-38 64 -38 157q0 108 56 183q-54 27 -108 27zM634 378q0 35 -21 55t-55 20q-73 0 -111 -56t-41 -126q26 -1 59.5 2t74 12.5t67.5 33.5t27 59z" />
    <glyph glyph-name="oe.alt" horiz-adv-x="799" 
d="M624 511q69 0 107 -33.5t38 -90.5q0 -46 -23.5 -80.5t-57 -51.5t-77.5 -27t-77 -11.5t-65 -0.5q3 -70 39.5 -119t110.5 -49q68 0 127 46l30 -53q-65 -55 -162 -55q-136 0 -186 111q-25 -54 -72 -82.5t-106 -28.5q-96 0 -149 66.5t-53 198.5q0 74 20 127.5t53.5 81
t69.5 39.5t76 12q127 0 171 -114q26 54 74.5 84t111.5 30zM260 46q68 0 102 55.5t34 143.5q0 205 -132 205q-68 0 -103 -52t-35 -137q0 -215 134 -215zM696 378q0 35 -21 55t-55 20q-73 0 -111 -56t-41 -126q26 -1 59.5 2t74 12.5t67.5 33.5t27 59z" />
    <glyph glyph-name="ampersand.alt" horiz-adv-x="793" 
d="M614 167q36 -75 36 -167h-72q0 56 -12 99q-49 -53 -117 -83t-145 -30q-94 0 -169 54.5t-75 142.5q0 80 48.5 128.5t118.5 72.5q-74 56 -74 128q0 23 8.5 48t28.5 53t62.5 46t100.5 18q60 0 117 -32.5t93 -80.5l-46 -37q-73 89 -168 89q-32 0 -56 -9.5t-36.5 -22t-20 -29
t-9.5 -27.5t-2 -19q0 -23 19.5 -50t55.5 -47l66 -34q67 -34 116.5 -67.5t85.5 -72.5q18 63 3 148h72q23 -119 -29 -219zM304 47q64 0 129 31.5t104 90.5q-71 98 -235 172q-23 -4 -47 -12t-54.5 -24.5t-49.5 -48t-19 -72.5q0 -49 31.5 -82t68 -44t72.5 -11z" />
    <glyph glyph-name="Q.alt" horiz-adv-x="649" 
d="M718 -68l-25 -61q-36 13 -70.5 38t-55 45t-62.5 65q-10 11 -15 16q-67 -47 -162 -47q-130 0 -202 87.5t-72 255.5q0 92 25 161.5t66.5 108.5t90 57.5t102.5 18.5q119 0 194 -83.5t75 -262.5q0 -161 -70 -250q5 -5 18 -20t18.5 -20.5t17.5 -18.5t19 -19.5t18.5 -17
t20.5 -16.5t20.5 -13.5t23.5 -13t25 -10.5zM332 50q65 0 110 37q-45 47 -76 66t-70 19q-32 0 -52.5 -17.5t-20.5 -42.5q0 -34 34.5 -48t74.5 -14zM484 137q42 74 42 191q0 49 -9 94.5t-29 89.5t-59.5 70.5t-93.5 26.5q-69 0 -116 -41.5t-65.5 -101t-18.5 -132.5
q0 -116 35 -185q14 38 49.5 61t81.5 23q49 0 90 -22t93 -74z" />
    <glyph glyph-name="Euro.alt" horiz-adv-x="545" 
d="M356 589q-142 0 -169 -176h247v-60h-406v60h82q19 130 87.5 187t161.5 57q109 0 180 -90l-46 -45q-61 67 -137 67zM434 228h-246q16 -173 163 -173q79 0 143 54l37 -54q-76 -67 -184 -67q-103 0 -164 59.5t-73 180.5h-82v60h406v-60z" />
    <glyph glyph-name="Euro_tf.alt" 
d="M356 589q-142 0 -169 -176h247v-60h-406v60h82q19 130 87.5 187t161.5 57q109 0 180 -90l-46 -45q-61 67 -137 67zM434 228h-246q16 -173 163 -173q79 0 143 54l37 -54q-76 -67 -184 -67q-103 0 -164 59.5t-73 180.5h-82v60h406v-60z" />
    <glyph glyph-name="agrave.alt" 
d="M462 479v-392l8 -87h-70l-6 59l-3 1q-51 -74 -146 -74q-101 0 -149.5 64t-48.5 177q0 135 64 209.5t187 74.5q79 0 164 -32zM385 158v275q-38 17 -100 17q-161 0 -161 -226q0 -49 10 -86.5t41 -65.5t80 -28q60 0 95 34.5t35 79.5zM243 771l109 -181l-31 -25
q-78 70 -120 118q-22 25 -22 41q0 31 64 47z" />
    <glyph glyph-name="aacute.alt" 
d="M462 479v-392l8 -87h-70l-6 59l-3 1q-51 -74 -146 -74q-101 0 -149.5 64t-48.5 177q0 135 64 209.5t187 74.5q79 0 164 -32zM385 158v275q-38 17 -100 17q-161 0 -161 -226q0 -49 10 -86.5t41 -65.5t80 -28q60 0 95 34.5t35 79.5zM216 590l110 181q62 -16 62 -45
q0 -17 -22 -42q-28 -32 -119 -119z" />
    <glyph glyph-name="acircumflex.alt" 
d="M462 479v-392l8 -87h-70l-6 59l-3 1q-51 -74 -146 -74q-101 0 -149.5 64t-48.5 177q0 135 64 209.5t187 74.5q79 0 164 -32zM385 158v275q-38 17 -100 17q-161 0 -161 -226q0 -49 10 -86.5t41 -65.5t80 -28q60 0 95 34.5t35 79.5zM171 585l-31 24q55 81 97 134
q21 27 45 27q26 0 47 -26q56 -72 96 -135l-31 -25l-112 102z" />
    <glyph glyph-name="atilde.alt" 
d="M462 479v-392l8 -87h-70l-6 59l-3 1q-51 -74 -146 -74q-101 0 -149.5 64t-48.5 177q0 135 64 209.5t187 74.5q79 0 164 -32zM385 158v275q-38 17 -100 17q-161 0 -161 -226q0 -49 10 -86.5t41 -65.5t80 -28q60 0 95 34.5t35 79.5zM157 618l-7 57q34 27 80 27
q26 0 67.5 -12.5t62.5 -12.5q29 0 60 17l7 -60q-33 -18 -66 -18q-22 0 -68.5 11t-64.5 11q-37 0 -71 -20z" />
    <glyph glyph-name="adieresis.alt" 
d="M462 479v-392l8 -87h-70l-6 59l-3 1q-51 -74 -146 -74q-101 0 -149.5 64t-48.5 177q0 135 64 209.5t187 74.5q79 0 164 -32zM385 158v275q-38 17 -100 17q-161 0 -161 -226q0 -49 10 -86.5t41 -65.5t80 -28q60 0 95 34.5t35 79.5zM327 652q0 23 14.5 37.5t37.5 14.5
q22 0 36.5 -15t14.5 -37q0 -23 -15 -37.5t-37 -14.5q-23 0 -37 14.5t-14 37.5zM147 652q0 23 14.5 37.5t37.5 14.5q22 0 36.5 -15t14.5 -37q0 -23 -15 -37.5t-37 -14.5q-23 0 -37 14.5t-14 37.5z" />
    <glyph glyph-name="aring.alt" 
d="M462 479v-392l8 -87h-70l-6 59l-3 1q-51 -74 -146 -74q-101 0 -149.5 64t-48.5 177q0 135 64 209.5t187 74.5q79 0 164 -32zM385 158v275q-38 17 -100 17q-161 0 -161 -226q0 -49 10 -86.5t41 -65.5t80 -28q60 0 95 34.5t35 79.5zM199 660q0 38 23.5 62t62.5 24t62.5 -23
t23.5 -58q0 -40 -24 -65t-64 -25q-39 0 -61.5 24t-22.5 61zM247 660q0 -45 38 -45t38 45q0 46 -38 46t-38 -46z" />
    <glyph glyph-name="egrave.alt" horiz-adv-x="455" 
d="M280 511q-110 0 -171 -77t-61 -193q0 -118 55 -186.5t167 -68.5q95 0 163 57l-30 51q-62 -46 -128 -46q-73 0 -110 49t-40 119q4 0 12.5 -0.5t13.5 -0.5q44 0 85.5 6.5t87.5 23.5t74 53.5t28 88.5q0 56 -38.5 90t-107.5 34zM353 378q0 -32 -22 -54.5t-57.5 -32.5
t-66.5 -14.5t-62 -4.5q-4 0 -10.5 0.5t-9.5 0.5q3 70 40.5 125t110.5 55q34 0 55.5 -20t21.5 -55zM222 771l109 -181l-31 -25q-78 70 -120 118q-22 25 -22 41q0 31 64 47z" />
    <glyph glyph-name="eacute.alt" horiz-adv-x="455" 
d="M280 511q69 0 107.5 -34t38.5 -90q0 -52 -28 -88.5t-74 -53.5t-87.5 -23.5t-85.5 -6.5q-5 0 -13.5 0.5t-12.5 0.5q3 -70 40 -119t110 -49q66 0 128 46l30 -51q-68 -57 -163 -57q-112 0 -167 68.5t-55 186.5q0 116 61 193t171 77zM353 378q0 35 -21.5 55t-55.5 20
q-73 0 -110.5 -55t-40.5 -125q3 0 9.5 -0.5t10.5 -0.5q31 0 62 4.5t66.5 14.5t57.5 32.5t22 54.5zM187 590l110 181q62 -16 62 -45q0 -17 -22 -42q-28 -32 -119 -119z" />
    <glyph glyph-name="ecircumflex.alt" horiz-adv-x="455" 
d="M280 511q-110 0 -171 -77t-61 -193q0 -118 55 -186.5t167 -68.5q95 0 163 57l-30 51q-62 -46 -128 -46q-73 0 -110 49t-40 119q4 0 12.5 -0.5t13.5 -0.5q44 0 85.5 6.5t87.5 23.5t74 53.5t28 88.5q0 56 -38.5 90t-107.5 34zM353 378q0 -32 -22 -54.5t-57.5 -32.5
t-66.5 -14.5t-62 -4.5q-4 0 -10.5 0.5t-9.5 0.5q3 70 40.5 125t110.5 55q34 0 55.5 -20t21.5 -55zM153 585l-31 24q55 81 97 134q21 27 45 27q26 0 47 -26q56 -72 96 -135l-31 -25l-112 102z" />
    <glyph glyph-name="edieresis.alt" horiz-adv-x="455" 
d="M280 511q-110 0 -171 -77t-61 -193q0 -118 55 -186.5t167 -68.5q95 0 163 57l-30 51q-62 -46 -128 -46q-73 0 -110 49t-40 119q4 0 12.5 -0.5t13.5 -0.5q44 0 85.5 6.5t87.5 23.5t74 53.5t28 88.5q0 56 -38.5 90t-107.5 34zM353 378q0 -32 -22 -54.5t-57.5 -32.5
t-66.5 -14.5t-62 -4.5q-4 0 -10.5 0.5t-9.5 0.5q3 70 40.5 125t110.5 55q34 0 55.5 -20t21.5 -55zM301 652q0 23 14.5 37.5t37.5 14.5q22 0 36.5 -15t14.5 -37q0 -23 -15 -37.5t-37 -14.5q-23 0 -37 14.5t-14 37.5zM121 652q0 23 14.5 37.5t37.5 14.5q22 0 36.5 -15
t14.5 -37q0 -23 -15 -37.5t-37 -14.5q-23 0 -37 14.5t-14 37.5z" />
    <glyph glyph-name="yacute.alt" horiz-adv-x="534" 
d="M197 590l110 181q62 -16 62 -45q0 -17 -22 -42q-28 -32 -119 -119zM386 497h77v-526q0 -93 -59 -144t-165 -51q-74 0 -151 29l19 59q63 -28 134 -28q145 0 145 132v93h-2q-53 -75 -150 -75q-161 0 -161 171v340h78v-320q0 -64 21 -98t82 -34q51 0 91.5 38t40.5 82v332z
" />
    <glyph glyph-name="ydieresis.alt" horiz-adv-x="534" 
d="M310 652q0 23 14.5 37.5t37.5 14.5q22 0 36.5 -15t14.5 -37q0 -23 -15 -37.5t-37 -14.5q-23 0 -37 14.5t-14 37.5zM130 652q0 23 14.5 37.5t37.5 14.5q22 0 36.5 -15t14.5 -37q0 -23 -15 -37.5t-37 -14.5q-23 0 -37 14.5t-14 37.5zM386 497h77v-526q0 -93 -59 -144
t-165 -51q-74 0 -151 29l19 59q63 -28 134 -28q145 0 145 132v93h-2q-53 -75 -150 -75q-161 0 -161 171v340h78v-320q0 -64 21 -98t82 -34q51 0 91.5 38t40.5 82v332z" />
    <glyph glyph-name="amacron.alt" 
d="M462 479v-392l8 -87h-70l-6 59l-3 1q-51 -74 -146 -74q-101 0 -149.5 64t-48.5 177q0 135 64 209.5t187 74.5q79 0 164 -32zM385 158v275q-38 17 -100 17q-161 0 -161 -226q0 -49 10 -86.5t41 -65.5t80 -28q60 0 95 34.5t35 79.5zM147 619v65h260v-65h-260z" />
    <glyph glyph-name="abreve.alt" 
d="M462 479v-392l8 -87h-70l-6 59l-3 1q-51 -74 -146 -74q-101 0 -149.5 64t-48.5 177q0 135 64 209.5t187 74.5q79 0 164 -32zM385 158v275q-38 17 -100 17q-161 0 -161 -226q0 -49 10 -86.5t41 -65.5t80 -28q60 0 95 34.5t35 79.5zM372 729l58 -11q-37 -134 -154 -134
q-120 0 -149 134l60 11q25 -87 92 -87q66 0 93 87z" />
    <glyph glyph-name="aogonek.alt" 
d="M462 479v-392l8 -87q-30 -24 -51 -61t-21 -68q0 -47 42 -47q24 0 51 11l15 -49q-38 -22 -85 -22q-92 0 -92 88q0 75 71 148l-6 59l-3 1q-51 -74 -146 -74q-101 0 -149.5 64t-48.5 177q0 135 64 209.5t187 74.5q79 0 164 -32zM385 158v275q-38 17 -100 17
q-161 0 -161 -226q0 -49 10 -86.5t41 -65.5t80 -28q60 0 95 34.5t35 79.5z" />
    <glyph glyph-name="emacron.alt" horiz-adv-x="455" 
d="M280 511q-110 0 -171 -77t-61 -193q0 -118 55 -186.5t167 -68.5q95 0 163 57l-30 51q-62 -46 -128 -46q-73 0 -110 49t-40 119q4 0 12.5 -0.5t13.5 -0.5q44 0 85.5 6.5t87.5 23.5t74 53.5t28 88.5q0 56 -38.5 90t-107.5 34zM353 378q0 -32 -22 -54.5t-57.5 -32.5
t-66.5 -14.5t-62 -4.5q-4 0 -10.5 0.5t-9.5 0.5q3 70 40.5 125t110.5 55q34 0 55.5 -20t21.5 -55zM131 619v65h260v-65h-260z" />
    <glyph glyph-name="ebreve.alt" horiz-adv-x="455" 
d="M280 511q-110 0 -171 -77t-61 -193q0 -118 55 -186.5t167 -68.5q95 0 163 57l-30 51q-62 -46 -128 -46q-73 0 -110 49t-40 119q4 0 12.5 -0.5t13.5 -0.5q44 0 85.5 6.5t87.5 23.5t74 53.5t28 88.5q0 56 -38.5 90t-107.5 34zM353 378q0 -32 -22 -54.5t-57.5 -32.5
t-66.5 -14.5t-62 -4.5q-4 0 -10.5 0.5t-9.5 0.5q3 70 40.5 125t110.5 55q34 0 55.5 -20t21.5 -55zM353 729l58 -11q-37 -134 -154 -134q-120 0 -149 134l60 11q25 -87 92 -87q66 0 93 87z" />
    <glyph glyph-name="edotaccent.alt" horiz-adv-x="455" 
d="M280 511q-110 0 -171 -77t-61 -193q0 -118 55 -186.5t167 -68.5q95 0 163 57l-30 51q-62 -46 -128 -46q-73 0 -110 49t-40 119q4 0 12.5 -0.5t13.5 -0.5q44 0 85.5 6.5t87.5 23.5t74 53.5t28 88.5q0 56 -38.5 90t-107.5 34zM353 378q0 -32 -22 -54.5t-57.5 -32.5
t-66.5 -14.5t-62 -4.5q-4 0 -10.5 0.5t-9.5 0.5q3 70 40.5 125t110.5 55q34 0 55.5 -20t21.5 -55zM211 639q0 22 15 37t37 15t37 -15t15 -37q0 -23 -15 -38t-38 -15q-22 0 -36.5 15t-14.5 38z" />
    <glyph glyph-name="eogonek.alt" horiz-adv-x="455" 
d="M280 511q69 0 107.5 -34t38.5 -90q0 -52 -28 -88.5t-74 -53.5t-87.5 -23.5t-85.5 -6.5q-5 0 -13.5 0.5t-12.5 0.5q3 -70 40 -119t110 -49q66 0 128 46l30 -51q-15 -13 -70 -49q-33 -22 -55.5 -56t-22.5 -67q0 -47 42 -47q23 0 51 11l15 -49q-38 -22 -85 -22q-92 0 -92 88
q0 68 60 134h-6q-112 0 -167 68.5t-55 186.5q0 116 61 193t171 77zM353 378q0 35 -21.5 55t-55.5 20q-73 0 -110.5 -55t-40.5 -125q3 0 9.5 -0.5t10.5 -0.5q31 0 62 4.5t66.5 14.5t57.5 32.5t22 54.5z" />
    <glyph glyph-name="ecaron.alt" horiz-adv-x="455" 
d="M280 511q-110 0 -171 -77t-61 -193q0 -118 55 -186.5t167 -68.5q95 0 163 57l-30 51q-62 -46 -128 -46q-73 0 -110 49t-40 119q4 0 12.5 -0.5t13.5 -0.5q44 0 85.5 6.5t87.5 23.5t74 53.5t28 88.5q0 56 -38.5 90t-107.5 34zM353 378q0 -32 -22 -54.5t-57.5 -32.5
t-66.5 -14.5t-62 -4.5q-4 0 -10.5 0.5t-9.5 0.5q3 70 40.5 125t110.5 55q34 0 55.5 -20t21.5 -55zM376 769l31 -23q-54 -80 -97 -135q-22 -27 -46 -27t-46 26q-50 65 -97 135l31 25l112 -102z" />
    <glyph glyph-name="gcircumflex.alt" horiz-adv-x="536" 
d="M159 585l-31 24q55 81 97 134q21 27 45 27q26 0 47 -26q56 -72 96 -135l-31 -25l-112 102zM286 511q82 0 170 -35v-505q0 -93 -59 -144t-165 -51q-89 0 -169 37l22 58q65 -35 149 -35q144 0 144 132v80h-2q-55 -62 -143 -62q-91 0 -138 63.5t-47 186.5q0 130 63 202.5
t175 72.5zM379 148v284q-42 17 -88 17q-82 0 -124 -51.5t-42 -145.5q0 -42 3.5 -71.5t14.5 -64t38 -53t68 -18.5q58 0 94 32t36 71z" />
    <glyph glyph-name="gbreve.alt" horiz-adv-x="536" 
d="M372 729l58 -11q-37 -134 -154 -134q-120 0 -149 134l60 11q25 -87 92 -87q66 0 93 87zM286 511q82 0 170 -35v-505q0 -93 -59 -144t-165 -51q-89 0 -169 37l22 58q65 -35 149 -35q144 0 144 132v80h-2q-55 -62 -143 -62q-91 0 -138 63.5t-47 186.5q0 130 63 202.5
t175 72.5zM379 148v284q-42 17 -88 17q-82 0 -124 -51.5t-42 -145.5q0 -42 3.5 -71.5t14.5 -64t38 -53t68 -18.5q58 0 94 32t36 71z" />
    <glyph glyph-name="gdotaccent.alt" horiz-adv-x="536" 
d="M227 639q0 22 15 37t37 15t37 -15t15 -37q0 -23 -15 -38t-38 -15q-22 0 -36.5 15t-14.5 38zM286 511q82 0 170 -35v-505q0 -93 -59 -144t-165 -51q-89 0 -169 37l22 58q65 -35 149 -35q144 0 144 132v80h-2q-55 -62 -143 -62q-91 0 -138 63.5t-47 186.5q0 130 63 202.5
t175 72.5zM379 148v284q-42 17 -88 17q-82 0 -124 -51.5t-42 -145.5q0 -42 3.5 -71.5t14.5 -64t38 -53t68 -18.5q58 0 94 32t36 71z" />
    <glyph glyph-name="gcommaaccent.alt" horiz-adv-x="536" 
d="M357 763l-58 -187q-71 2 -71 36q1 17 14 40q20 39 78 129zM286 511q82 0 170 -35v-505q0 -93 -59 -144t-165 -51q-89 0 -169 37l22 58q65 -35 149 -35q144 0 144 132v80h-2q-55 -62 -143 -62q-91 0 -138 63.5t-47 186.5q0 130 63 202.5t175 72.5zM379 148v284
q-42 17 -88 17q-82 0 -124 -51.5t-42 -145.5q0 -42 3.5 -71.5t14.5 -64t38 -53t68 -18.5q58 0 94 32t36 71z" />
    <glyph glyph-name="kcommaaccent.alt" horiz-adv-x="480" 
d="M450 392q0 -50 -30 -103t-96 -85l124 -204h-91l-107 179q-48 -10 -98 -10v-169h-78v695h78v-324q22 57 69.5 98.5t110.5 41.5q51 0 84.5 -30.5t33.5 -88.5zM372 384q0 30 -15 46t-41 16q-54 0 -103 -70t-61 -150q102 -2 161 40.5t59 117.5zM215 -70l-58 -187l37 -18
q58 90 78 129q13 23 14 40q0 34 -71 36z" />
    <glyph glyph-name="wcircumflex.alt" horiz-adv-x="704" 
d="M604 497h83l-136 -497h-93l-106 401l-108 -401h-91l-136 497h84l105 -413h1l108 413h76l109 -414h1zM237 585l-31 24q55 81 97 134q21 27 45 27q26 0 47 -26q56 -72 96 -135l-31 -25l-112 102z" />
    <glyph glyph-name="wgrave.alt" horiz-adv-x="704" 
d="M604 497h83l-136 -497h-93l-106 401l-108 -401h-91l-136 497h84l105 -413h1l108 413h76l109 -414h1zM313 771l109 -181l-31 -25q-78 70 -120 118q-22 25 -22 41q0 31 64 47z" />
    <glyph glyph-name="wacute.alt" horiz-adv-x="704" 
d="M604 497h83l-136 -497h-93l-106 401l-108 -401h-91l-136 497h84l105 -413h1l108 413h76l109 -414h1zM265 590l110 181q62 -16 62 -45q0 -17 -22 -42q-28 -32 -119 -119z" />
    <glyph glyph-name="wdieresis.alt" horiz-adv-x="704" 
d="M604 497h83l-136 -497h-93l-106 401l-108 -401h-91l-136 497h84l105 -413h1l108 413h76l109 -414h1zM386 652q0 23 14.5 37.5t37.5 14.5q22 0 36.5 -15t14.5 -37q0 -23 -15 -37.5t-37 -14.5q-23 0 -37 14.5t-14 37.5zM206 652q0 23 14.5 37.5t37.5 14.5q22 0 36.5 -15
t14.5 -37q0 -23 -15 -37.5t-37 -14.5q-23 0 -37 14.5t-14 37.5z" />
    <glyph glyph-name="ygrave.alt" horiz-adv-x="534" 
d="M218 771l109 -181l-31 -25q-78 70 -120 118q-22 25 -22 41q0 31 64 47zM386 497h77v-526q0 -93 -59 -144t-165 -51q-74 0 -151 29l19 59q63 -28 134 -28q145 0 145 132v93h-2q-53 -75 -150 -75q-161 0 -161 171v340h78v-320q0 -64 21 -98t82 -34q51 0 91.5 38t40.5 82
v332z" />
    <glyph glyph-name="ycircumflex.alt" horiz-adv-x="534" 
d="M157 585l-31 24q55 81 97 134q21 27 45 27q26 0 47 -26q56 -72 96 -135l-31 -25l-112 102zM386 497h77v-526q0 -93 -59 -144t-165 -51q-74 0 -151 29l19 59q63 -28 134 -28q145 0 145 132v93h-2q-53 -75 -150 -75q-161 0 -161 171v340h78v-320q0 -64 21 -98t82 -34
q51 0 91.5 38t40.5 82v332z" />
    <glyph glyph-name="zacute.alt" horiz-adv-x="422" 
d="M410 0h-384v52l280 383h-259v62h355v-47l-284 -388h292v-62zM175 590l110 181q62 -16 62 -45q0 -17 -22 -42q-28 -32 -119 -119z" />
    <glyph glyph-name="zdotaccent.alt" horiz-adv-x="422" 
d="M410 0h-384v52l280 383h-259v62h355v-47l-284 -388h292v-62zM172 639q0 22 15 37t37 15t37 -15t15 -37q0 -23 -15 -38t-38 -15q-22 0 -36.5 15t-14.5 38z" />
    <glyph glyph-name="zcaron.alt" horiz-adv-x="422" 
d="M410 0h-384v52l280 383h-259v62h355v-47l-284 -388h292v-62zM335 769l31 -23q-54 -80 -97 -135q-22 -27 -46 -27t-46 26q-50 65 -97 135l31 25l112 -102z" />
    <glyph glyph-name="GID565" horiz-adv-x="600" 
d="M152 435v-435h-78v544q0 35 6.5 61.5t23.5 52.5t54 40t91 14q79 0 157 -36q41 36 116 36q30 0 66 -9t56 -20l-21 -56q-50 24 -98 24q-47 0 -66.5 -26.5t-19.5 -78.5v-49h157v-62h-157v-435h-77v435h-210zM152 546v-49h210v47q0 45 12 76q-64 31 -122 31q-55 0 -77.5 -25
t-22.5 -80z" />
    </font>
</defs>
</svg>
