<svg xmlns="http://www.w3.org/2000/svg" viewBox="5001 500 16 16">
  <g id="close_ico" transform="translate(5001 500)">
    <g id="Group_51" data-name="Group 51" transform="translate(0 0)">
      <path id="Path_66" data-name="Path 66" class="cls-1" d="M9.517,7.517a.667.667,0,0,0,0,.966l6.276,6.276a.667.667,0,0,1,0,.966l-.069.069a.667.667,0,0,1-.966,0L8.483,9.517a.667.667,0,0,0-.966,0L1.241,15.793a.667.667,0,0,1-.966,0l-.069-.069a.667.667,0,0,1,0-.966L6.483,8.483a.667.667,0,0,0,0-.966L.207,1.241a.667.667,0,0,1,0-.966L.276.207a.667.667,0,0,1,.966,0L7.517,6.483a.667.667,0,0,0,.966,0L14.759.207a.667.667,0,0,1,.966,0l.069.069a.667.667,0,0,1,0,.966Z" transform="translate(0 0)"/>
    </g>
  </g>
</svg>
