<svg xmlns="http://www.w3.org/2000/svg" viewBox="4025 137 19.959 20">
  <defs>
    <style>
      .cls-1 {
        fill: #fcaf17;
      }
    </style>
  </defs>
  <g id="dashboard_ico1" transform="translate(4024.997 137)">
    <path id="Path_26" data-name="Path 26" class="cls-1" d="M10.137,0a.625.625,0,0,0-.328.119l-3.875,3.9v-1.4a.458.458,0,0,0-.447-.447H2.894a.458.458,0,0,0-.447.447v4.56a.481.481,0,0,0,.089.268L.271,9.747A.985.985,0,0,0,.062,10.76a1,1,0,0,0,.864.6h.715v8.2A.458.458,0,0,0,2.089,20H7.6a.458.458,0,0,0,.447-.447h0V12.787h3.964v6.766h0a.458.458,0,0,0,.447.447h5.514a.458.458,0,0,0,.447-.447v-8.2h.6a.955.955,0,0,0,.864-.566A.908.908,0,0,0,19.7,9.776L10.464.149A.479.479,0,0,0,10.137,0Zm-6.8,3.07h1.7V4.948l-1.7,1.7Zm15.738,7.362c0,.03-.03.03-.06.03H17.976a.458.458,0,0,0-.447.447v8.2h-4.62V12.34a.458.458,0,0,0-.447-.447H7.6a.458.458,0,0,0-.447.447v6.766H2.536v-8.2a.458.458,0,0,0-.447-.447H.956a.092.092,0,0,1-.06-.03v-.06l9.24-9.27,8.912,9.27C19.079,10.373,19.079,10.4,19.079,10.432Z" transform="translate(0 0)"/>
  </g>
</svg>
