<svg xmlns="http://www.w3.org/2000/svg" viewBox="4026 217 18 20">
  <defs>
    <style>
      .cls-1 {
        fill: #fff;
      }
    </style>
  </defs>
  <g id="listing_ico" transform="translate(4026 217)">
    <g id="Group_18" data-name="Group 18" transform="translate(0)">
      <path id="Path_36" data-name="Path 36" class="cls-1" d="M15.5,0H2.5A2.476,2.476,0,0,0,0,2.5v15A2.476,2.476,0,0,0,2.5,20h13A2.476,2.476,0,0,0,18,17.5V2.5A2.476,2.476,0,0,0,15.5,0ZM17,17.5A1.538,1.538,0,0,1,15.5,19H2.5A1.538,1.538,0,0,1,1,17.5V2.5A1.538,1.538,0,0,1,2.5,1h13A1.538,1.538,0,0,1,17,2.5Z" transform="translate(0)"/>
      <path id="Path_37" data-name="Path 37" class="cls-1" d="M5.5,5h-1a.472.472,0,0,0-.5.5.472.472,0,0,0,.5.5h1A.472.472,0,0,0,6,5.5.472.472,0,0,0,5.5,5Z" transform="translate(0 0)"/>
      <path id="Path_38" data-name="Path 38" class="cls-1" d="M13.5,5h-6a.472.472,0,0,0-.5.5.472.472,0,0,0,.5.5h6a.472.472,0,0,0,.5-.5A.472.472,0,0,0,13.5,5Z" transform="translate(0 0)"/>
      <path id="Path_39" data-name="Path 39" class="cls-1" d="M5.5,9h-1a.5.5,0,0,0,0,1h1a.5.5,0,0,0,0-1Z" transform="translate(0 0)"/>
      <path id="Path_40" data-name="Path 40" class="cls-1" d="M13.5,9h-6a.5.5,0,0,0,0,1h6a.5.5,0,0,0,0-1Z" transform="translate(0 0)"/>
      <path id="Path_41" data-name="Path 41" class="cls-1" d="M5.5,13h-1a.5.5,0,0,0,0,1h1a.5.5,0,0,0,0-1Z" transform="translate(0 0)"/>
      <path id="Path_42" data-name="Path 42" class="cls-1" d="M13.5,13h-6a.5.5,0,0,0,0,1h6a.5.5,0,0,0,0-1Z" transform="translate(0 0)"/>
    </g>
  </g>
</svg>
