<svg xmlns="http://www.w3.org/2000/svg" viewBox="-11524 -12272 45 45">
  <g id="star" transform="translate(-12227 -12655)">
    <rect id="Rectangle_3330" data-name="Rectangle 3330" class="cls-1" width="45" height="45" transform="translate(703 383)"/>
    <path id="flaticon1520319562-svg" d="M31.564,15.056a2.314,2.314,0,0,0-1.283-3.947L22.469,9.974a1.02,1.02,0,0,1-.769-.559L18.207,2.337a2.314,2.314,0,0,0-4.15,0L10.564,9.415a1.021,1.021,0,0,1-.769.559L1.982,11.109A2.314,2.314,0,0,0,.7,15.056l5.652,5.51a1.023,1.023,0,0,1,.295.9L5.313,29.25a2.265,2.265,0,0,0,.5,1.876,2.338,2.338,0,0,0,2.852.563l6.987-3.674a1.046,1.046,0,0,1,.951,0l6.987,3.674a2.29,2.29,0,0,0,1.076.269,2.32,2.32,0,0,0,1.775-.832,2.264,2.264,0,0,0,.5-1.876l-1.334-7.78a1.022,1.022,0,0,1,.295-.9Z" transform="translate(709.301 389.153)"/>
  </g>
</svg>
