<svg xmlns="http://www.w3.org/2000/svg" viewBox="4026 451 17.744 20">
  <defs>
    <style>
      .cls-1 {
        fill: #fff;
      }
    </style>
  </defs>
  <g id="analytics_ico" transform="translate(4026 451.015)">
    <path id="Path_44" data-name="Path 44" class="cls-1" d="M15.953,16.038H1.791A1.778,1.778,0,0,1,0,14.247V5.791A1.778,1.778,0,0,1,1.791,4H15.953a1.778,1.778,0,0,1,1.791,1.791v8.456A1.8,1.8,0,0,1,15.953,16.038ZM1.791,4.833a.943.943,0,0,0-.958.958v8.456a.943.943,0,0,0,.958.958H15.953a.943.943,0,0,0,.958-.958V5.791a.943.943,0,0,0-.958-.958Z" transform="translate(0 -2.343)"/>
    <path id="Path_45" data-name="Path 45" class="cls-1" d="M32.522,38.012a.406.406,0,0,1-.417-.333l-1.416-6.29a.425.425,0,1,1,.833-.167l1.416,6.29a.422.422,0,0,1-.333.5Z" transform="translate(-17.901 -18.027)"/>
    <path id="Path_46" data-name="Path 46" class="cls-1" d="M25.7,2.49a.406.406,0,0,1-.417-.333L24.991.491a.457.457,0,0,1,.333-.5.457.457,0,0,1,.5.333l.292,1.666a.457.457,0,0,1-.333.5Z" transform="translate(-14.578 0)"/>
    <path id="Path_47" data-name="Path 47" class="cls-1" d="M15.308,2.49h-.083a.432.432,0,0,1-.333-.5L15.183.324a.425.425,0,0,1,.833.167l-.292,1.666A.439.439,0,0,1,15.308,2.49Z" transform="translate(-8.685 0)"/>
    <path id="Path_48" data-name="Path 48" class="cls-1" d="M6.908,38.014H6.824a.457.457,0,0,1-.333-.5l1.416-6.29a.425.425,0,1,1,.833.167L7.324,37.68A.439.439,0,0,1,6.908,38.014Z" transform="translate(-3.784 -18.029)"/>
    <path id="Path_49" data-name="Path 49" class="cls-1" d="M7.317,21.289a.394.394,0,0,1-.417-.417V13.417a.417.417,0,0,1,.833,0v7.5A.385.385,0,0,1,7.317,21.289Z" transform="translate(-4.026 -7.594)"/>
    <path id="Path_50" data-name="Path 50" class="cls-1" d="M14.017,25.607a.394.394,0,0,1-.417-.417V20.817a.417.417,0,1,1,.833,0V25.19A.417.417,0,0,1,14.017,25.607Z" transform="translate(-7.935 -11.912)"/>
    <path id="Path_51" data-name="Path 51" class="cls-1" d="M20.717,23.156a.394.394,0,0,1-.417-.417V16.617a.417.417,0,0,1,.833,0v6.165A.411.411,0,0,1,20.717,23.156Z" transform="translate(-11.844 -9.461)"/>
    <path id="Path_52" data-name="Path 52" class="cls-1" d="M34.117,25.607a.394.394,0,0,1-.417-.417V20.817a.417.417,0,1,1,.833,0V25.19A.417.417,0,0,1,34.117,25.607Z" transform="translate(-19.663 -11.912)"/>
    <path id="Path_53" data-name="Path 53" class="cls-1" d="M27.417,26.832A.394.394,0,0,1,27,26.415v-3.5a.417.417,0,1,1,.833,0v3.5A.417.417,0,0,1,27.417,26.832Z" transform="translate(-15.754 -13.137)"/>
  </g>
</svg>
