<svg xmlns="http://www.w3.org/2000/svg" viewBox="11277 7468 38 38">
  <defs>
    <style>
      .cls-1 {
        fill: #fff;
        stroke: #afafaf;
      }

      .cls-2 {
        fill: #afafaf;
      }

      .cls-3 {
        stroke: none;
      }

      .cls-4 {
        fill: none;
      }
    </style>
  </defs>
  <g id="call_ico" transform="translate(9952 7112)">
    <g id="Ellipse_177" data-name="Ellipse 177" class="cls-1" transform="translate(1325 356)">
      <circle class="cls-3" cx="19" cy="19" r="19"/>
      <circle class="cls-4" cx="19" cy="19" r="18.5"/>
    </g>
    <g id="flaticon1517548156-svg" transform="translate(1334.285 365.297)">
      <g id="Group_40818" data-name="Group 40818" transform="translate(0.006)">
        <path id="Path_17645" data-name="Path 17645" class="cls-2" d="M15.185,57.429a1.4,1.4,0,0,0-2.115,0c-.494.49-.989.981-1.475,1.479a.291.291,0,0,1-.407.075c-.32-.175-.661-.316-.968-.507a15.338,15.338,0,0,1-3.7-3.365A8.761,8.761,0,0,1,5.2,52.987a.3.3,0,0,1,.075-.391c.494-.478.976-.968,1.463-1.458a1.4,1.4,0,0,0,0-2.165c-.386-.391-.773-.773-1.159-1.163s-.794-.8-1.2-1.2a1.408,1.408,0,0,0-2.115,0c-.5.49-.976.993-1.483,1.475A2.408,2.408,0,0,0,.02,49.717,6.883,6.883,0,0,0,.552,52.68,18,18,0,0,0,3.747,58,19.772,19.772,0,0,0,10.3,63.125a9.47,9.47,0,0,0,3.627,1.055,2.658,2.658,0,0,0,2.281-.868c.424-.474.9-.906,1.35-1.359a1.413,1.413,0,0,0,.008-2.152Q16.378,58.611,15.185,57.429Z" transform="translate(-0.006 -44.221)"/>
        <path id="Path_17646" data-name="Path 17646" class="cls-2" d="M242.358,101.908l1.533-.262A6.882,6.882,0,0,0,238.07,96l-.216,1.541a5.319,5.319,0,0,1,4.5,4.367Z" transform="translate(-227.972 -92.011)"/>
        <path id="Path_17647" data-name="Path 17647" class="cls-2" d="M249.452,3.232A11.3,11.3,0,0,0,242.97,0l-.216,1.541A9.864,9.864,0,0,1,251.1,9.631l1.533-.262A11.387,11.387,0,0,0,249.452,3.232Z" transform="translate(-232.668)"/>
      </g>
    </g>
  </g>
</svg>
