<svg xmlns="http://www.w3.org/2000/svg" viewBox="-787.446 7342.939 14.736 17.883">
  <defs>
    <style>
      .cls-1 {
        fill: #717171;
      }
    </style>
  </defs>
  <g id="change_ico" transform="translate(-1302.642 6974.41)">
    <path id="Path_17745" data-name="Path 17745" class="cls-1" d="M138.784,100.64l-1.308,1.308,2.118,2.109h-9.752A1.842,1.842,0,0,0,128,105.9v2.763h1.842V105.9h9.752l-2.109,2.109,1.3,1.3,3.684-3.684a.921.921,0,0,0,0-1.3Z" transform="translate(387.197 267.889)"/>
    <path id="Path_17746" data-name="Path 17746" class="cls-1" d="M140.88,264.207h-9.752l2.109-2.109-1.3-1.3-3.684,3.684a.921.921,0,0,0,0,1.3l3.684,3.684,1.3-1.3-2.109-2.118h9.752a1.842,1.842,0,0,0,1.842-1.842v-2.763H140.88Z" transform="translate(387.209 116.947)"/>
  </g>
</svg>
