<svg xmlns="http://www.w3.org/2000/svg" viewBox="4025 607 19.939 20">
  <defs>
    <style>
      .cls-1 {
        fill: #fff;
      }
    </style>
  </defs>
  <g id="settings_ico" transform="translate(4025.011 607)">
    <path id="Path_28" data-name="Path 28" class="cls-1" d="M19.167,12.15a2.351,2.351,0,0,1,0-4.3,1.266,1.266,0,0,0,.675-1.6,6.106,6.106,0,0,0-.25-.6,1.231,1.231,0,0,0-1.125-.725,1.308,1.308,0,0,0-.45.075,2.434,2.434,0,0,1-.85.15,2.366,2.366,0,0,1-2.2-3.225,1.254,1.254,0,0,0-.65-1.6,6.106,6.106,0,0,0-.6-.25A1.416,1.416,0,0,0,13.267,0a1.263,1.263,0,0,0-1.15.75,2.357,2.357,0,0,1-2.15,1.4A2.357,2.357,0,0,1,7.817.75,1.263,1.263,0,0,0,6.667,0a1.416,1.416,0,0,0-.45.075,6.106,6.106,0,0,0-.6.25,1.277,1.277,0,0,0-.65,1.6A2.414,2.414,0,0,1,4.442,4.45a2.366,2.366,0,0,1-1.675.7A2.434,2.434,0,0,1,1.917,5a1.416,1.416,0,0,0-.45-.075A1.206,1.206,0,0,0,.342,5.65a6.106,6.106,0,0,0-.25.6,1.266,1.266,0,0,0,.675,1.6A2.357,2.357,0,0,1,2.167,10,2.38,2.38,0,0,1,.742,12.15a1.266,1.266,0,0,0-.675,1.6,6.107,6.107,0,0,0,.25.6,1.231,1.231,0,0,0,1.125.725A1.57,1.57,0,0,0,1.917,15a2.434,2.434,0,0,1,.85-.15,2.366,2.366,0,0,1,2.2,3.225,1.254,1.254,0,0,0,.65,1.6,6.105,6.105,0,0,0,.6.25,1.416,1.416,0,0,0,.45.075,1.263,1.263,0,0,0,1.15-.75,2.351,2.351,0,0,1,4.3,0,1.263,1.263,0,0,0,1.15.75,1.416,1.416,0,0,0,.45-.075,6.105,6.105,0,0,0,.6-.25,1.277,1.277,0,0,0,.65-1.6,2.414,2.414,0,0,1,.525-2.525,2.366,2.366,0,0,1,1.675-.7,2.434,2.434,0,0,1,.85.15,1.456,1.456,0,0,0,.475.075,1.206,1.206,0,0,0,1.125-.725,6.106,6.106,0,0,0,.25-.6A1.328,1.328,0,0,0,19.167,12.15Zm-.075,1.3c-.075.175-.15.375-.225.55a.45.45,0,0,1-.6.225,2.974,2.974,0,0,0-1.125-.2,3.1,3.1,0,0,0-2.225.925,3.228,3.228,0,0,0-.725,3.375.458.458,0,0,1-.225.6c-.175.075-.375.15-.55.225a.464.464,0,0,1-.575-.25,3.142,3.142,0,0,0-5.75,0,.442.442,0,0,1-.575.25c-.175-.075-.375-.15-.55-.225a.45.45,0,0,1-.225-.6,3.171,3.171,0,0,0-2.95-4.3,3.325,3.325,0,0,0-1.125.2.482.482,0,0,1-.6-.225c-.075-.175-.15-.375-.225-.55a.464.464,0,0,1,.25-.575A3.144,3.144,0,0,0,2.967,10,3.144,3.144,0,0,0,1.092,7.125a.442.442,0,0,1-.25-.575c.075-.175.15-.375.225-.55a.45.45,0,0,1,.6-.225,2.974,2.974,0,0,0,1.125.2A3.1,3.1,0,0,0,5.017,5.05a3.228,3.228,0,0,0,.725-3.375.458.458,0,0,1,.225-.6c.175-.075.375-.15.55-.225a.464.464,0,0,1,.575.25A3.144,3.144,0,0,0,9.967,2.975,3.144,3.144,0,0,0,12.842,1.1a.442.442,0,0,1,.575-.25c.175.075.375.15.55.225a.45.45,0,0,1,.225.6,3.171,3.171,0,0,0,2.95,4.3,3.325,3.325,0,0,0,1.125-.2.482.482,0,0,1,.6.225c.075.175.15.375.225.55a.464.464,0,0,1-.25.575,3.142,3.142,0,0,0,0,5.75A.464.464,0,0,1,19.092,13.45Z" transform="translate(0 0)"/>
    <path id="Path_29" data-name="Path 29" class="cls-1" d="M31.4,27.25a4.25,4.25,0,1,0-4.25,4.25A4.246,4.246,0,0,0,31.4,27.25Zm-7.725,0a3.45,3.45,0,1,1,3.45,3.425A3.462,3.462,0,0,1,23.675,27.25Z" transform="translate(-17.183 -17.25)"/>
  </g>
</svg>
