<svg xmlns="http://www.w3.org/2000/svg" viewBox="4963 499 18.004 18">
  <defs>
    <style>
      .cls-1 {
        fill: #ccc;
      }
    </style>
  </defs>
  <g id="drag_ico" transform="translate(4963 499)">
    <g id="Group_40" data-name="Group 40">
      <path id="Path_60" data-name="Path 60" class="cls-1" d="M17.8,9.468l-2.916,2.916a.652.652,0,0,1-.936,0,.674.674,0,0,1,0-.936l1.782-1.782H9.666v6.066l1.782-1.782a.662.662,0,0,1,.936.936L9.468,17.8a.652.652,0,0,1-.936,0L5.616,14.886a.662.662,0,0,1,.936-.936l1.782,1.782V9.666H2.268L4.05,11.448a.674.674,0,0,1,0,.936.652.652,0,0,1-.936,0L.2,9.468a.652.652,0,0,1,0-.936L3.114,5.616a.642.642,0,0,1,.936,0,.674.674,0,0,1,0,.936L2.268,8.334H8.334V2.268L6.552,4.05a.642.642,0,0,1-.936,0,.674.674,0,0,1,0-.936L8.532.2a.652.652,0,0,1,.936,0l2.916,2.916a.674.674,0,0,1,0,.936.652.652,0,0,1-.936,0L9.666,2.268V8.334h6.066L13.95,6.552a.674.674,0,0,1,0-.936.642.642,0,0,1,.936,0L17.8,8.532A.642.642,0,0,1,17.8,9.468Z"/>
    </g>
  </g>
</svg>
