<svg xmlns="http://www.w3.org/2000/svg" viewBox="0 0 49.456 34.1">
  <defs>
    <style>
      .cls-1 {
        fill: #535353;
      }

      .cls-2 {
        fill: #fcaf17;
      }
    </style>
  </defs>
  <g id="filter_applied_ico" transform="translate(-1795.495 -274)">
    <g id="Group_42997" data-name="Group 42997">
      <g id="flaticon1521713513-svg" transform="translate(1795.495 267.7)">
        <g id="Group_42959" data-name="Group 42959" transform="translate(0 6.3)">
          <g id="Group_42958" data-name="Group 42958" transform="translate(0 0)">
            <path id="Path_17823" data-name="Path 17823" class="cls-1" d="M1.229,178.9H16.871a5.176,5.176,0,0,0,10.057,0h6.843a1.225,1.225,0,1,0,0-2.45H26.929a5.176,5.176,0,0,0-10.057,0H1.229a1.225,1.225,0,1,0,0,2.45ZM21.9,174.957a2.721,2.721,0,1,1-2.729,2.721A2.725,2.725,0,0,1,21.9,174.957Z" transform="translate(0 -160.629)"/>
            <path id="Path_17824" data-name="Path 17824" class="cls-1" d="M1.229,345.2H8.736a5.176,5.176,0,0,0,10.057,0H33.771a1.225,1.225,0,1,0,0-2.45H18.793a5.176,5.176,0,0,0-10.057,0H1.229a1.225,1.225,0,1,0,0,2.45Zm12.536-3.95a2.721,2.721,0,1,1-2.721,2.779V343.9A2.725,2.725,0,0,1,13.764,341.25Z" transform="translate(0 -315.05)"/>
            <path id="Path_17825" data-name="Path 17825" class="cls-1" d="M1.229,12.7H8.736a5.176,5.176,0,0,0,10.057,0H33.771a1.225,1.225,0,1,0,0-2.45H18.793a5.176,5.176,0,0,0-10.057,0H1.229a1.225,1.225,0,1,0,0,2.45ZM13.764,8.75a2.721,2.721,0,1,1-2.721,2.779V11.4A2.73,2.73,0,0,1,13.764,8.75Z" transform="translate(0 -6.3)"/>
          </g>
        </g>
      </g>
    </g>
    <g id="flaticon1521716952-svg" transform="translate(1829.95 282.95)">
      <g id="Group_42999" data-name="Group 42999" transform="translate(0 0)">
        <path id="Path_17828" data-name="Path 17828" class="cls-2" d="M12.8,12.8A7.5,7.5,0,1,0,2.2,12.8,7.5,7.5,0,0,0,12.8,12.8ZM4.811,6.354,6.5,8.04l3.695-3.691L11.5,5.656,7.808,9.347,6.5,10.654,5.191,9.347,3.5,7.661Z" transform="translate(0 0)"/>
      </g>
    </g>
  </g>
</svg>
