<svg xmlns="http://www.w3.org/2000/svg" viewBox="-9454 -4641 50 50">
  <defs>
    <style>
      .cls-1 {
        opacity: 0.7;
      }

      .cls-2 {
        fill: #44dc5e;
        stroke: #44dc5e;
        stroke-width: 0.3px;
      }
    </style>
  </defs>
  <g id="like_ico" transform="translate(-10197 -5051)">
    <circle id="Ellipse_187" data-name="Ellipse 187" class="cls-1" cx="25" cy="25" r="25" transform="translate(743 410)"/>
    <g id="flaticon1519116454-svg" transform="translate(751.325 425)">
      <path id="Path_17767" data-name="Path 17767" class="cls-2" d="M25.673,13.7a2.5,2.5,0,0,0,.586-1.673,2.57,2.57,0,0,0-.548-1.449,2.252,2.252,0,0,0-.535-2.591,4.653,4.653,0,0,0-3.383-.809,13.223,13.223,0,0,0-2.073.265h0c-.211.038-.434.084-.661.135a7.35,7.35,0,0,1,.527-2.448c.59-1.795.556-3.168-.11-4.087A2.678,2.678,0,0,0,17.326,0a1.058,1.058,0,0,0-.813.371,2.834,2.834,0,0,0-.354,2.01c-.556,1.492-2.115,5.149-3.434,6.164a.451.451,0,0,0-.067.059,4.526,4.526,0,0,0-.826,1.239A1.739,1.739,0,0,0,11,9.632H8.428a1.754,1.754,0,0,0-1.753,1.753v6.847a1.754,1.754,0,0,0,1.753,1.753H11a1.749,1.749,0,0,0,1.011-.32l.99.118a42.421,42.421,0,0,0,5.616.308c.5.038.973.059,1.411.059a9.454,9.454,0,0,0,1.959-.177A3.664,3.664,0,0,0,24.6,18.345a2.579,2.579,0,0,0,.287-1.614,2.688,2.688,0,0,0,.956-2.187A2.846,2.846,0,0,0,25.673,13.7ZM8.428,18.846a.616.616,0,0,1-.615-.615V11.38a.616.616,0,0,1,.615-.615H11a.616.616,0,0,1,.615.615v6.847a.616.616,0,0,1-.615.615H8.428ZM24.594,13.2a.566.566,0,0,0-.076.687,1.753,1.753,0,0,1,.194.7,1.686,1.686,0,0,1-.792,1.458.574.574,0,0,0-.194.649,1.488,1.488,0,0,1-.114,1.087,2.636,2.636,0,0,1-1.862,1.07,11.1,11.1,0,0,1-3.072.093H18.62a41.589,41.589,0,0,1-5.477-.3h0l-.426-.051a1.785,1.785,0,0,0,.038-.371V11.38a1.782,1.782,0,0,0-.08-.522,3.522,3.522,0,0,1,.784-1.445c1.892-1.5,3.741-6.56,3.822-6.779a.533.533,0,0,0,.025-.282,2.633,2.633,0,0,1,.055-1.222,1.512,1.512,0,0,1,1.188.569c.43.594.413,1.656-.051,3.063-.708,2.145-.767,3.274-.206,3.771a.918.918,0,0,0,.919.164c.257-.059.5-.11.733-.147l.055-.013c1.293-.282,3.611-.455,4.416.278a1.212,1.212,0,0,1,.143,1.538.563.563,0,0,0,.1.733,1.6,1.6,0,0,1,.468.982A1.565,1.565,0,0,1,24.594,13.2Z"/>
    </g>
  </g>
</svg>
