<svg xmlns="http://www.w3.org/2000/svg" viewBox="3935 373 19.691 20">
  <defs>
    <style>
      .cls-1 {
        fill: #fcaf17;
      }
    </style>
  </defs>
  <path id="marketing_ico1" class="cls-1" d="M17.108,5.563h-.684a1.574,1.574,0,0,0-1.479-1.236H13.709C9.779,4.327,5.232,1.854,3.267.309A1.256,1.256,0,0,0,2.583,0C1.126,0,0,3.841,0,8.764s1.126,8.764,2.583,8.764a.965.965,0,0,0,.684-.309,20.942,20.942,0,0,1,7.241-3.554c.066.508.508.64.839.728.265.088.4.132.4.243s-.132.155-.375.243c-.353.132-.861.331-.861.993,0,.684.508.861.861.993.221.088.375.132.375.243a.176.176,0,0,1-.2.2h-.309a.735.735,0,0,0-.728.728A1.969,1.969,0,0,0,12.472,20h1.236a1.338,1.338,0,0,0,1.347-1.347V13.2a1.546,1.546,0,0,0,1.369-1.236h.684a2.572,2.572,0,0,0,2.583-2.583V8.146A2.572,2.572,0,0,0,17.108,5.563ZM2.583,16.689c-.574,0-1.744-3.422-1.744-7.925S2.009.839,2.583.839c.442,0,1.28,2.119,1.611,5.342a2.6,2.6,0,0,0,0,5.166C3.863,14.57,3.024,16.689,2.583,16.689ZM4.26,7.02c.022.574.066,1.17.066,1.744,0,.6-.022,1.148-.066,1.744A1.733,1.733,0,0,1,2.693,8.764,1.767,1.767,0,0,1,4.26,7.02Zm9.956,11.634a.5.5,0,0,1-.508.508H12.472a1.144,1.144,0,0,1-1.126-1.015h.2a1.036,1.036,0,0,0,1.038-1.038c0-.64-.486-.839-.861-.971-.243-.088-.375-.155-.375-.265a.176.176,0,0,1,.2-.2,1.036,1.036,0,0,0,1.038-1.038c0-.64-.486-.839-.839-.971-.2-.066-.331-.132-.375-.221a12.21,12.21,0,0,1,2.34-.243h.508Zm.728-6.291H13.709A19.524,19.524,0,0,0,4.26,15.475a21.8,21.8,0,0,0,.905-6.711A21.8,21.8,0,0,0,4.26,2.053a19.524,19.524,0,0,0,9.448,3.113h1.236c.993,0,.993,2.6.993,3.6S15.938,12.362,14.945,12.362Zm3.907-2.98a1.734,1.734,0,0,1-1.744,1.744H16.6a15.225,15.225,0,0,0,.2-2.362A15.225,15.225,0,0,0,16.6,6.4h.508a1.734,1.734,0,0,1,1.744,1.744V9.382Zm-.817-1.965h-.618a.419.419,0,0,0,0,.839h.618a.419.419,0,1,0,0-.839Z" transform="translate(3935 373)"/>
</svg>
