<svg xmlns="http://www.w3.org/2000/svg" viewBox="-17169 -2768.949 336.301 695.896">
  <defs>
    <style>
      .cls-1 {
        fill: #f4f4f4;
      }

      .cls-2 {
        fill: #e2e2e2;
      }

      .cls-3 {
        fill: #d1d1d1;
      }

      .cls-4 {
        fill: #e6e6e6;
      }
    </style>
  </defs>
  <g id="Group_40663" data-name="Group 40663" transform="translate(-18553 -2996.949)">
    <g id="Group_40660" data-name="Group 40660" transform="translate(1384 228)">
      <path id="Path_17684" data-name="Path 17684" class="cls-1" d="M333.065,646.074a47.045,47.045,0,0,1-47.216,47.09l-236.96-.252A47.045,47.045,0,0,1,1.8,645.7L2.43,48.89A46.859,46.859,0,0,1,49.519,1.8l236.96.252a47.045,47.045,0,0,1,47.09,47.216Z" transform="translate(0.466 0.466)"/>
      <path id="Path_17685" data-name="Path 17685" class="cls-2" d="M286.316,695.9l-236.96-.252A49.463,49.463,0,0,1,0,646.163L.63,49.356A49.436,49.436,0,0,1,49.986,0l236.96.252A49.463,49.463,0,0,1,336.3,49.734l-.63,596.806A49.355,49.355,0,0,1,286.316,695.9ZM49.986,4.407A44.976,44.976,0,0,0,5.036,49.356l-.63,596.807a44.976,44.976,0,0,0,44.949,44.949l236.96.252a44.976,44.976,0,0,0,44.949-44.949l.63-596.806A44.976,44.976,0,0,0,286.946,4.659Z"/>
    </g>
    <g id="Group_40661" data-name="Group 40661" transform="translate(1504.872 265.269)">
      <path id="Path_17686" data-name="Path 17686" class="cls-3" d="M111.864,37.532a7.932,7.932,0,1,1-7.932-7.932A7.98,7.98,0,0,1,111.864,37.532Z" transform="translate(-96 -29.6)"/>
      <path id="Path_17687" data-name="Path 17687" class="cls-3" d="M184.321,36.829a3.951,3.951,0,0,1-4.029,3.9H126.4a3.951,3.951,0,0,1-3.9-4.029h0a3.951,3.951,0,0,1,4.029-3.9h53.889a4.033,4.033,0,0,1,3.9,4.029Z" transform="translate(-89.134 -28.771)"/>
    </g>
    <path id="Path_17688" data-name="Path 17688" class="cls-3" d="M139.569,17.985a4.782,4.782,0,0,1-4.785,4.785h0A4.782,4.782,0,0,1,130,17.985h0a4.782,4.782,0,0,1,4.785-4.785h0a4.952,4.952,0,0,1,4.785,4.785Z" transform="translate(1417.681 231.42)"/>
    <g id="Group_40662" data-name="Group 40662" transform="translate(1527.662 857.543)">
      <path id="Path_17689" data-name="Path 17689" class="cls-1" d="M162.19,524.445A23.545,23.545,0,1,1,138.645,500.9,23.59,23.59,0,0,1,162.19,524.445Z" transform="translate(-113.841 -499.767)"/>
      <path id="Path_17690" data-name="Path 17690" class="cls-3" d="M138.778,549.356a24.678,24.678,0,1,1,24.678-24.678A24.718,24.718,0,0,1,138.778,549.356Zm.126-47.216a22.412,22.412,0,1,0,22.412,22.412A22.461,22.461,0,0,0,138.9,502.14Z" transform="translate(-114.1 -500)"/>
    </g>
    <path id="Path_17691" data-name="Path 17691" class="cls-4" d="M313,601.637l-296.515-.252A4.246,4.246,0,0,1,12.2,597.1l.5-526.424A4.246,4.246,0,0,1,16.985,66.4l296.515.252a4.246,4.246,0,0,1,4.281,4.281l-.5,526.424A4.326,4.326,0,0,1,313,601.637ZM16.985,68.666a1.989,1.989,0,0,0-2.015,2.015l-.5,526.3a1.989,1.989,0,0,0,2.015,2.014L313,599.245a1.989,1.989,0,0,0,2.015-2.014l.5-526.3a1.989,1.989,0,0,0-2.015-2.015Z" transform="translate(1387.161 245.203)"/>
  </g>
</svg>
