<svg xmlns="http://www.w3.org/2000/svg" viewBox="5587 27 22.716 29.169">
  <path id="notification_ico" d="M22.52,22.217A37.532,37.532,0,0,1,19.846,10.4l-.1-1.215a8.391,8.391,0,0,0-5.737-7.244A2.713,2.713,0,0,0,11.387,0,2.773,2.773,0,0,0,8.762,1.945,8.391,8.391,0,0,0,3.025,9.188l-.1,1.215A36.538,36.538,0,0,1,.254,22.217,2.5,2.5,0,0,0,.06,23.676,2.865,2.865,0,0,0,2.977,26.2H7.158a4.462,4.462,0,0,0,4.181,2.966A4.415,4.415,0,0,0,15.519,26.2H19.7a2.865,2.865,0,0,0,2.917-2.528A1.689,1.689,0,0,0,22.52,22.217ZM11.436,27.711A3,3,0,0,1,8.81,26.2h5.2A2.964,2.964,0,0,1,11.436,27.711Zm8.41-3.014H3.025a1.432,1.432,0,0,1-1.458-1.215,1.275,1.275,0,0,1,.1-.729A39.3,39.3,0,0,0,4.435,10.5l.1-1.215a6.9,6.9,0,0,1,5.1-6.077.793.793,0,0,0,.535-.632,1.268,1.268,0,0,1,2.528,0,.793.793,0,0,0,.535.632,6.951,6.951,0,0,1,5.1,6.077l.1,1.215a38.971,38.971,0,0,0,2.771,12.251,1.275,1.275,0,0,1,.1.729A1.469,1.469,0,0,1,19.846,24.7Z" transform="translate(5586.979 27)"/>
</svg>
