<svg xmlns="http://www.w3.org/2000/svg" viewBox="4026 529 16.839 20">
  <defs>
    <style>
      .cls-1 {
        fill: #fff;
      }
    </style>
  </defs>
  <path id="office_ico" class="cls-1" d="M12.361,6.748H10.913a.837.837,0,0,1-.824-.824V3.14a.837.837,0,0,1,.824-.824h1.448a.837.837,0,0,1,.824.824V5.924A.837.837,0,0,1,12.361,6.748ZM10.913,3.073a.059.059,0,0,0-.067.067V5.924a.059.059,0,0,0,.067.067h1.448a.059.059,0,0,0,.067-.067V3.14a.059.059,0,0,0-.067-.067ZM7.84,12.049H6.392a.837.837,0,0,1-.824-.824V8.441a.837.837,0,0,1,.824-.824H7.84a.837.837,0,0,1,.824.824v2.784A.837.837,0,0,1,7.84,12.049ZM6.392,8.374a.059.059,0,0,0-.067.067v2.784a.059.059,0,0,0,.067.067H7.84a.059.059,0,0,0,.067-.067V8.441a.059.059,0,0,0-.067-.067H6.392Zm5.969,3.675H10.913a.837.837,0,0,1-.824-.824V8.441a.837.837,0,0,1,.824-.824h1.448a.837.837,0,0,1,.824.824v2.784A.837.837,0,0,1,12.361,12.049ZM10.913,8.374a.059.059,0,0,0-.067.067v2.784a.059.059,0,0,0,.067.067h1.448a.059.059,0,0,0,.067-.067V8.441a.059.059,0,0,0-.067-.067H10.913ZM7.84,6.748H6.392a.837.837,0,0,1-.824-.824V3.14a.837.837,0,0,1,.824-.824H7.84a.837.837,0,0,1,.824.824V5.924A.837.837,0,0,1,7.84,6.748ZM6.392,3.073a.059.059,0,0,0-.067.067V5.924a.059.059,0,0,0,.067.067H7.84a.059.059,0,0,0,.067-.067V3.14a.059.059,0,0,0-.067-.067Zm4.454,13.92v-1a.152.152,0,0,0-.156-.156h-.445a.152.152,0,0,0-.156.156v1a.152.152,0,0,0,.156.156h.445A.152.152,0,0,0,10.846,16.993ZM8.6,16.949v-.935a.176.176,0,0,0-.178-.178H8.04a.176.176,0,0,0-.178.178v.935a.176.176,0,0,0,.178.178h.379C8.53,17.149,8.6,17.06,8.6,16.949Zm7.817,2.16h-.869V1.782A1.787,1.787,0,0,0,13.764,0H4.855A1.787,1.787,0,0,0,3.073,1.782V2.45A1.787,1.787,0,0,0,1.292,4.232V19.109H.445A.447.447,0,0,0,0,19.555H0A.447.447,0,0,0,.445,20H16.392a.447.447,0,0,0,.445-.445h0A.415.415,0,0,0,16.414,19.109Zm-13.341,0H2.183V4.232a.893.893,0,0,1,.891-.891Zm9.354-.134H9.688V14.009h2.227a.5.5,0,0,1,.512.512v4.454Zm-3.385,0H6.281V14.521a.5.5,0,0,1,.512-.512H9.02v4.967Zm5.612.134h-1.47V14.521a1.283,1.283,0,0,0-1.269-1.269H6.793a1.283,1.283,0,0,0-1.269,1.269v4.588H3.964V1.782A.893.893,0,0,1,4.855.891h8.909a.893.893,0,0,1,.891.891V19.109Z" transform="translate(4026 529)"/>
</svg>
