<svg xmlns="http://www.w3.org/2000/svg" viewBox="4025 296 20 17.746">
  <defs>
    <style>
      .cls-1 {
        fill: #fff;
      }
    </style>
  </defs>
  <g id="work_ico" transform="translate(4025 295.947)">
    <path id="Path_27" data-name="Path 27" class="cls-1" d="M18.638,17.8H1.362A1.363,1.363,0,0,1,0,16.437V4.352A1.363,1.363,0,0,1,1.362,2.99H6.145A3.635,3.635,0,0,1,8.245.4,4.124,4.124,0,0,1,9.93.056a4.138,4.138,0,0,1,1.7.315A3.782,3.782,0,0,1,13.843,2.99h4.8A1.363,1.363,0,0,1,20,4.352V16.437A1.364,1.364,0,0,1,18.638,17.8ZM.851,7.033v9.4a.512.512,0,0,0,.511.511H18.638a.512.512,0,0,0,.511-.511v-9.4H13.043v.743a1.363,1.363,0,0,1-1.362,1.362H8.319A1.363,1.363,0,0,1,6.957,7.775V7.033Zm6.957,0v.743a.512.512,0,0,0,.511.511h3.362a.512.512,0,0,0,.511-.511V7.033Zm5.234-.851h6.106V4.35a.512.512,0,0,0-.511-.511H1.362a.512.512,0,0,0-.511.511V6.182H6.957v0l6.085,0ZM7.026,2.99h5.928a2.886,2.886,0,0,0-1.617-1.821A3.3,3.3,0,0,0,9.966.907l-.03,0-.026,0a3.324,3.324,0,0,0-1.353.283A2.741,2.741,0,0,0,7.026,2.99Z" transform="translate(0 0)"/>
  </g>
</svg>
